<svg id="Layer_1" xmlns="http://www.w3.org/2000/svg" viewBox="0 0 424 483"><style>.st0{fill:#fff}.st0,.st1{opacity:.09}.st2{fill:#fff}</style><path class="st0" d="M87.3 275.1c.2-.5.8-2.3-.2-4.8 0 0-1.5-.5-4.9 1.9-1.4-.4-3-.5-4.5-.5s-3.1.1-4.5.5c-3.4-2.3-4.9-1.9-4.9-1.9-1 2.5-.4 4.3-.2 4.8-1.2 1.3-1.9 2.9-1.9 4.8 0 7.4 4.8 9.1 11.5 9.1s11.5-1.7 11.5-9.1c0-1.9-.7-3.5-1.9-4.8zm-9.6 12.5c-4.7 0-8.6-.2-8.6-4.8 0-1.1.5-2.1 1.5-3 1.5-1.4 4.2-.7 7.1-.7 3 0 5.6-.7 7.1.7.9.8 1.5 1.9 1.5 3 0 4.6-3.9 4.8-8.6 4.8zm-3.6-7.2c-1 0-1.7 1.1-1.7 2.6 0 1.4.8 2.6 1.7 2.6 1 0 1.7-1.1 1.7-2.6s-.8-2.6-1.7-2.6zm7.2 0c-1 0-1.7 1.1-1.7 2.6s.8 2.6 1.7 2.6 1.7-1.1 1.7-2.6-.7-2.6-1.7-2.6zm174.2-31.2c-5.2 0-9.5-1.4-9.5-3.2v-3.2c0-.3.1-.5.3-.8 1.1 1.4 4.7 2.4 9.2 2.4 4.4 0 8.1-1 9.2-2.4.2.3.3.5.3.8v3.2c0 1.7-4.3 3.2-9.5 3.2zm0-6.4c-5.2 0-9.5-1.4-9.5-3.2v-3.2c0-.2.1-.3.1-.5 0-.1.1-.2.2-.3 1.1 1.4 4.7 2.4 9.2 2.4 4.4 0 8.1-1 9.2-2.4.1.1.1.2.2.3.1.2.1.3.1.5v3.2c0 1.8-4.3 3.2-9.5 3.2zm0-6.3c-5.2 0-9.5-1.4-9.5-3.2v-3.2c0-1.7 4.3-3.2 9.5-3.2s9.5 1.4 9.5 3.2v3.2c0 1.8-4.3 3.2-9.5 3.2zm0-7.9c-3.5 0-6.3.7-6.3 1.6s2.8 1.6 6.3 1.6 6.3-.7 6.3-1.6-2.8-1.6-6.3-1.6zm-149.8-49.1c-6.1.2-10.9 5.2-10.7 11.3.2 6.1 5.2 10.9 11.3 10.7.5 0 1-.1 1.4-.1 4.9-.8 8.7-4.7 9.2-9.7.1-.5.1-1 .1-1.5-.2-6.1-5.2-10.9-11.3-10.7zm-9.6 11.2c0-1.4.2-2.8.8-4l5.1 12.8c-3.4-1.5-5.8-4.8-5.9-8.8zm11.4 9.6c-.4.1-.8.1-1.3.1-1 0-1.9-.1-2.8-.3l1-3.2 1.7-5.5 3.3 8.2.1.1c-.6.3-1.3.4-2 .6zm-.3-14.5c.6 0 1.1-.1 1.1-.1.5-.1.4-.9-.1-.8 0 0-1.6.2-2.6.2s-2.6-.1-2.6-.1c-.5 0-.6.8 0 .8 0 0 .5 0 1 .1l1.7 4.2-2 6.5-3.9-10.6c.6 0 1.1-.1 1.1-.1.5-.1.4-.9-.1-.8 0 0-1.6.2-2.6.2h-.6c1.7-2.7 4.7-4.6 8.1-4.7 2.6-.1 4.9.9 6.7 2.4h-.1c-1 0-1.6.9-1.6 1.8 0 .8.5 1.5 1 2.3.4.6.9 1.5.9 2.7 0 .8-.2 1.9-.7 3.2l-.9 3.3-3.8-10.5zm4 13.1l.7-2.3 2.1-6.5c.5-1.4.7-2.6.7-3.6 0-.4 0-.7-.1-1 .8 1.4 1.3 3 1.3 4.7 0 .5 0 .9-.1 1.3-.3 3.2-2.1 5.8-4.6 7.4zm-12.4-94l9 9.4-4.3-9.4h-4.7zm5.9 0l4.1 9.3 4.1-9.3h-8.2zm13.8 0h-4.4l-4.3 9.4 8.7-9.4zm-13.3-1.1h7.4l-3.7-3.8-3.7 3.8zm10-4.2h-5.4l3.7 3.8 1.7-3.8zm-12.8 0l1.7 4 3.8-4h-5.5zm16.1 4.2l-2.4-3.5-1.6 3.5h4zm-19.3 0h3.9l-1.5-3.5-2.4 3.5zm2.1-4.8h15l3.7 5.6-11.3 12.1-11.3-11.9 3.9-5.8zm139.9-51.5c1.3 0 2.6.4 3.9.9 1.3.6 2.1 1.5 2.8 2.6.7 1.1 1.1 2.4 1.1 3.7 0 .4-.2.6-.4.9-.2.4-.6.2-.9.2h-12.9c-.4 0-.7-.2-.9-.4-.2-.2-.4-.6-.4-.9 0-1.3.4-2.4 1.1-3.6.7-1.1 1.5-1.9 2.8-2.6 1.4-.6 2.5-.8 3.8-.8zm2.7-2.4c-.7.7-1.7 1.1-2.6 1.1-.9 0-1.9-.4-2.4-1.1-.6-.7-.9-1.5-.9-2.4v-2.4c0-.9.4-1.9 1.1-2.4.7-.6 1.5-1.1 2.4-1.1.9 0 1.9.4 2.4 1.1.6.7 1.1 1.5 1.1 2.4v2.2c-.2 1.1-.6 1.9-1.1 2.6zm4.4-.9c1.1 0 2.1.2 3 .6.9.4 1.7.9 2.4 1.5s1.3 1.5 1.7 2.2c.4.7.6 1.9.6 2.8 0 .4-.2.6-.4.7s-.6.2-.9.2h-4.5c-.4-1.1-1.1-2.4-2.2-3.4-1.1-.9-2.2-1.9-3.7-2.2.6-.6 1.1-1.1 1.5-1.9.9-.3 1.6-.5 2.5-.5zm-2-2.1v-1.9c0-1.3-.4-2.4-1.3-3.4 0-.9.4-1.7 1.1-2.4.7-.7 1.3-.9 2.2-.9.9 0 1.9.4 2.4 1.1s1.1 1.5 1.1 2.4v2.2c0 .9-.4 1.9-1.1 2.4-.7.6-1.5 1.1-2.4 1.1-.7.2-1.5 0-2-.6z"/><g class="st1"><path class="st2" d="M271.1 58.9l1 1c.7.7 1.2 1.6 1.5 2.6.3 1 .3 2 0 3s-.8 1.9-1.5 2.6l-4.1 4.1c-.6.6-1.2 1-1.9 1.3s-1.4.4-2.2.4-1.5-.1-2.2-.4-1.3-.7-1.9-1.3l-1-1c-.7-.7-1.2-1.6-1.5-2.6-.3-1-.3-2 0-3s.8-1.9 1.5-2.6l2.3-2.3c0 1.2.2 2.4.7 3.4l-.9.9c-.6.6-.8 1.2-.8 2.1 0 .8.3 1.5.8 2.1l1 1c.6.6 1.3.8 2.1.8s1.5-.3 2.1-.8l4.1-4.1c.6-.6.8-1.2.8-2.1 0-.8-.3-1.5-.8-2.1l-1-1c-.2-.2-.4-.3-.6-.4l2-2c.2.1.4.2.5.4zm2.1-7.8c1.6 0 3 .6 4.1 1.7l1 1c1.1 1.1 1.7 2.5 1.7 4.1 0 1.6-.6 3-1.7 4.1l-2.3 2.3c0-1.2-.2-2.4-.6-3.5l.9-.9c.6-.6.8-1.2.8-2.1 0-.8-.3-1.5-.8-2.1l-1-1c-.6-.6-1.3-.8-2-.8-.8 0-1.5.3-2.1.8l-4.1 4.1c-.6.6-.8 1.2-.8 2.1 0 .8.3 1.5.8 2.1l1 1c.1.1.3.3.6.4v.1l-2 2c-.4-.3-.5-.5-.6-.5l-1-1c-1.1-1.1-1.7-2.5-1.7-4.1 0-1.6.6-3 1.7-4.1l4.1-4.1c.6-.6 1.2-1 1.9-1.3.6-.2 1.3-.3 2.1-.3z"/></g><g class="st1"><path class="st2" d="M322.2 288.1c.8 0 1.4.3 2 .8s.8 1.2.8 2v8.4c0 .8-.3 1.4-.8 2s-1.2.8-2 .8h-14.1c-.8 0-1.4-.3-2-.8s-.8-1.2-.8-2v-8.4c0-.8.3-1.4.8-2s1.2-.8 2-.8h1.4v-2.8c0-1.6.5-2.9 1.6-4s2.4-1.6 4-1.6 2.9.5 4 1.6 1.6 2.4 1.6 4v2.8h1.5zm-4.2 0v-2.8c0-.8-.3-1.4-.8-2s-1.2-.8-2-.8-1.4.3-2 .8-.8 1.2-.8 2v2.8h5.6zm-.9 11.2l-.8-3.8c.4-.2.7-.5.9-.9s.4-.8.4-1.3c0-.7-.2-1.3-.7-1.7s-1.1-.7-1.7-.7c-.7 0-1.3.2-1.7.7s-.7 1.1-.7 1.7c0 .5.1.9.4 1.3s.5.7.9.9l-.8 3.8h3.8z"/></g><g class="st1"><path class="st2" d="M301.4 48.5c.8 0 1.5.3 2.1.9.6.6.9 1.3.9 2.1v8.7c0 .8-.3 1.5-.9 2.1-.6.6-1.3.9-2.1.9h-14.5c-.8 0-1.5-.3-2.1-.9-.6-.6-.9-1.3-.9-2.1v-8.7c0-.8.3-1.5.9-2.1.6-.6 1.3-.9 2.1-.9h1.5v-2.9c0-1.6.6-3 1.7-4.1s2.5-1.7 4.1-1.7c1.6 0 3 .6 4.1 1.7 1.1 1.1 1.7 2.5 1.7 4.1h-2.9c0-.8-.3-1.5-.9-2.1-.6-.6-1.3-.9-2.1-.9s-1.5.3-2.1.9c-.6.6-.9 1.3-.9 2.1v2.9h10.3zm-5.2 11.6l-.8-3.9c.4-.2.7-.5 1-.9.2-.4.4-.8.4-1.3 0-.7-.2-1.3-.7-1.8-.5-.5-1.1-.7-1.8-.7s-1.3.2-1.8.7c-.5.5-.7 1.1-.7 1.8 0 .5.1.9.4 1.3.2.4.6.7 1 .9l-.8 3.9h3.8z"/></g><g class="st1"><path class="st2" d="M320 139.4c1-.4 2-.6 3.1-.6s2.1.2 3.1.6 1.8 1 2.5 1.7 1.3 1.5 1.7 2.5.6 2 .6 3.1-.2 2.1-.6 3.1c-.4 1-1 1.8-1.7 2.5s-1.5 1.3-2.5 1.7c-1 .4-2 .6-3.1.6-.6 0-1.3-.1-1.9-.2l-1.2 1.2c-.1.1-.3.3-.6.4-.2.1-.5.1-.7.1h-1.4c-.2 0-.4.1-.5.2-.1.1-.2.3-.2.5v1.4c0 .2-.1.4-.2.5-.1.1-.3.2-.5.2h-1.4c-.2 0-.4.1-.5.2s-.2.3-.2.5v1.4c0 .2-.1.4-.2.5s-.3.2-.5.2H308v-4.9c0-.2.1-.4.2-.7.1-.2.2-.4.4-.6l6.9-6.9c-.2-.7-.3-1.3-.3-2 0-1.1.2-2.1.6-3.1.4-1 1-1.8 1.7-2.5.7-.6 1.6-1.2 2.5-1.6zm3 7.3c.4.4.9.6 1.5.6s1.1-.2 1.5-.6c.4-.4.6-.9.6-1.5s-.2-1.1-.6-1.5c-.4-.4-.9-.6-1.5-.6s-1.1.2-1.5.6c-.4.4-.6.9-.6 1.5s.2 1.1.6 1.5z"/></g><g class="st1"><path class="st2" d="M369.2 391.7c1.5.2 2.8.8 3.8 1.9 1 1.1 1.5 2.4 1.5 4s-.6 3-1.7 4.2c-1.2 1.2-2.6 1.7-4.2 1.7h-4.8l2.9-3.6c.5-.6.7-1.2.4-1.6-.2-.5-.7-.7-1.6-.7H364v-3c0-.4-.1-.8-.4-1.1-.3-.3-.6-.4-1.1-.4s-.8.1-1.1.4c-.3.3-.4.6-.4 1.1v3h-1.5c-.8 0-1.3.2-1.6.7-.2.5-.1 1 .4 1.6l2.9 3.6h-4.8c-1.6 0-3-.6-4.2-1.7-1.2-1.2-1.7-2.6-1.7-4.2 0-1.5.5-2.8 1.5-4 1-1.1 2.3-1.8 3.8-1.9.2-1.7.9-3.1 2.2-4.3 1.3-1.2 2.8-1.7 4.5-1.7s3.2.6 4.5 1.7 2 2.6 2.2 4.3z"/></g><g class="st1"><path class="st2" d="M385.7 235.5c1.4.2 2.6.8 3.6 1.8 1 1.1 1.4 2.3 1.4 3.7 0 1.6-.6 2.9-1.7 4s-2.4 1.7-4 1.7h-4.2v-2.8h1.4c.8 0 1.3-.2 1.5-.6.2-.4.1-1-.4-1.6l-3-3.7c-.2-.3-.5-.5-.9-.5s-.6.2-.9.5l-3 3.7c-.5.6-.6 1.1-.4 1.6.2.4.7.6 1.5.6h1.4v2.8h-4.2c-1.6 0-2.9-.6-4-1.7s-1.7-2.4-1.7-4c0-1.4.5-2.7 1.4-3.7 1-1.1 2.1-1.7 3.6-1.8.2-1.6.8-3 2-4.1 1.2-1.1 2.6-1.6 4.2-1.6s3 .5 4.2 1.6c1.4 1.1 2.1 2.5 2.2 4.1z"/></g><g class="st1"><path class="st2" d="M10.2 348.7c.9 0 1.7-.2 2.5-.6s1.4-.9 1.9-1.6h3.8c-.7 1.6-1.7 3-3.2 4s-3.2 1.5-5 1.5c-2 0-3.9-.6-5.5-1.9L3 351.8c-.2.2-.4.3-.7.3s-.5-.1-.7-.3-.3-.4-.3-.7v-5.8c0-.3.1-.5.3-.7s.4-.3.7-.3h5.8c.3 0 .5.1.7.3s.3.4.3.7c0 .3-.1.5-.3.7L7 347.8c1 .6 2.1.9 3.2.9zm7.8-14.3c.3 0 .5.1.7.3s.3.4.3.7v5.8c0 .3-.1.5-.3.7s-.4.3-.7.3h-5.8c-.3 0-.5-.1-.7-.3s-.3-.4-.3-.7c0-.3.1-.5.3-.7l1.8-1.8c-.9-.7-2-1-3.1-1-.9 0-1.7.2-2.5.6s-1.4.9-1.9 1.6H2.1c.7-1.6 1.7-3 3.2-4s3.1-1.5 4.9-1.5c2 0 3.9.6 5.5 1.9l1.7-1.7c.1-.1.4-.2.6-.2z"/></g><g class="st1"><path class="st2" d="M36.4 238.6c-1.6-.7-3.2-1-5-1-1.8 0-3.4.3-5 1s-3 1.6-4.2 2.8l-2.4-2.4c1.5-1.5 3.3-2.7 5.2-3.5 2-.8 4.1-1.3 6.3-1.3s4.3.4 6.3 1.3c2 .8 3.7 2 5.2 3.5l-2.4 2.4c-1-1.2-2.4-2.1-4-2.8zm-8.9 2.5c1.2-.5 2.6-.8 3.9-.8 1.4 0 2.7.3 3.9.8s2.3 1.3 3.3 2.2l-2.4 2.4c-.6-.6-1.4-1.1-2.2-1.5-.8-.4-1.7-.5-2.6-.5-.9 0-1.8.2-2.6.5s-1.6.8-2.2 1.5l-2.4-2.4c1-.9 2.1-1.6 3.3-2.2zm3.9 5.4c1.1 0 2.1.4 2.9 1.2l-1.9 1.9c-.3.3-.6.4-1 .4s-.7-.1-1-.4l-1.9-1.9c.9-.8 1.8-1.2 2.9-1.2z"/></g><g class="st1"><path class="st2" d="M133.9 434.4v-2.9h2.9v5.7h-18.5v-18.5h5.7v2.9h-3v12.8h12.9zm6.6-19.4c.3.3.5.7.5 1.2l-1.1 10.1c0 .5-.2.9-.5 1.2-.3.3-.7.5-1.2.5-.3 0-.6-.1-.9-.3-.3-.2-.5-.5-.7-.9l-.9-3.9-6.6 6.6c-.4.4-1 .7-1.6.7-.6 0-1.1-.2-1.6-.7-.4-.4-.7-1-.7-1.6 0-.6.2-1.1.7-1.6l6.6-6.6-3.9-.9c-.4-.1-.7-.4-.9-.7-.2-.3-.3-.6-.3-.9 0-.5.2-.9.5-1.2.3-.3.7-.5 1.2-.5l10.1-1.1c.6.1 1 .2 1.3.6z"/></g><g class="st1"><path class="st2" d="M194 43.5l2.1 1.8c.2.1.2.3.3.5 0 .2 0 .4-.1.6l-1.5 2.5c-.1.2-.3.3-.5.4s-.4.1-.6 0l-2.6-.9c-.9.8-1.9 1.3-3 1.7l-.5 2.7c0 .2-.1.4-.3.5s-.4.2-.6.2h-2.9c-.2 0-.4-.1-.6-.2-.2-.1-.3-.3-.3-.5l-.5-2.7c-1.1-.4-2.1-.9-3-1.7l-2.6.9c-.2.1-.4.1-.6 0s-.4-.2-.5-.4l-1.5-2.5c-.1-.2-.1-.4-.1-.6s.1-.4.3-.5l2.1-1.8c-.1-.6-.2-1.1-.2-1.7s.1-1.1.2-1.7l-2.1-1.8c-.2-.1-.2-.3-.3-.5s0-.4.1-.6l1.5-2.5c.1-.2.3-.3.5-.4s.4-.1.6 0l2.6.9c.9-.8 1.9-1.3 3-1.7l.5-2.7c0-.2.1-.4.3-.5.2-.1.4-.2.6-.2h2.9c.2 0 .4.1.6.2s.3.3.3.5l.5 2.7c1.1.4 2.1.9 3 1.7l2.6-.9c.2-.1.4-.1.6 0s.4.2.5.4l1.5 2.5c.1.2.1.4.1.6 0 .2-.1.4-.3.5L194 40c.1.6.2 1.2.2 1.7 0 .6-.1 1.2-.2 1.8zm-8.6 2.7c1.2 0 2.3-.4 3.1-1.3.9-.9 1.3-1.9 1.3-3.1s-.4-2.3-1.3-3.1c-.9-.9-1.9-1.3-3.1-1.3-1.2 0-2.3.4-3.1 1.3-.9.9-1.3 1.9-1.3 3.1s.4 2.3 1.3 3.1 1.8 1.3 3.1 1.3z"/></g><g class="st1"><path class="st2" d="M304.4 352.6c-.4-.4-.6-.9-.6-1.5s.2-1.1.6-1.5l5.1-5.1c-.9-1.5-1.4-3.2-1.4-5 0-1.3.2-2.5.7-3.7.5-1.2 1.2-2.2 2-3 .8-.8 1.8-1.5 3-2s2.4-.7 3.7-.7 2.5.2 3.7.7c1.2.5 2.2 1.2 3 2 .8.8 1.5 1.8 2 3s.7 2.4.7 3.7-.2 2.5-.7 3.7-1.2 2.2-2 3c-.8.8-1.8 1.5-3 2s-2.4.7-3.7.7c-1.8 0-3.4-.5-5-1.4l-5.1 5.1c-.4.4-1 .6-1.5.6-.6 0-1.1-.2-1.5-.6zm8.1-16.1c-.5.9-.8 1.9-.8 2.9s.3 2 .8 2.9 1.2 1.6 2.1 2.1c.9.5 1.9.8 2.9.8.8 0 1.5-.2 2.3-.5.7-.3 1.3-.7 1.9-1.2.5-.5.9-1.1 1.2-1.9.3-.7.5-1.5.5-2.3 0-.8-.2-1.5-.5-2.3-.3-.7-.7-1.3-1.2-1.9-.5-.5-1.1-.9-1.9-1.2s-1.5-.5-2.3-.5c-1.1 0-2 .3-2.9.8s-1.6 1.4-2.1 2.3z"/></g><g class="st1"><path class="st2" d="M222.7 199.5c1.4.2 2.6.8 3.6 1.8 1 1.1 1.4 2.3 1.4 3.7 0 1.6-.6 2.9-1.7 4s-2.4 1.7-4 1.7h-4.2v-2.8h1.4c.8 0 1.3-.2 1.5-.6.2-.4.1-1-.4-1.6l-3-3.7c-.2-.3-.5-.5-.9-.5s-.6.2-.9.5l-3 3.7c-.5.6-.6 1.1-.4 1.6.2.4.7.6 1.5.6h1.4v2.8h-4.2c-1.6 0-2.9-.6-4-1.7s-1.7-2.4-1.7-4c0-1.4.5-2.7 1.4-3.7 1-1.1 2.1-1.7 3.6-1.8.2-1.6.8-3 2-4.1 1.2-1.1 2.6-1.6 4.2-1.6s3 .5 4.2 1.6c1.4 1.1 2.1 2.5 2.2 4.1z"/></g><g class="st1"><path class="st2" d="M151.7 316.5c1.4.2 2.6.8 3.6 1.8 1 1.1 1.4 2.3 1.4 3.7 0 1.6-.6 2.9-1.7 4s-2.4 1.7-4 1.7h-4.2v-2.8h1.4c.8 0 1.3-.2 1.5-.6.2-.4.1-1-.4-1.6l-3-3.7c-.2-.3-.5-.5-.9-.5s-.6.2-.9.5l-3 3.7c-.5.6-.6 1.1-.4 1.6.2.4.7.6 1.5.6h1.4v2.8h-4.2c-1.6 0-2.9-.6-4-1.7s-1.7-2.4-1.7-4c0-1.4.5-2.7 1.4-3.7 1-1.1 2.1-1.7 3.6-1.8.2-1.6.8-3 2-4.1 1.2-1.1 2.6-1.6 4.2-1.6s3 .5 4.2 1.6c1.4 1.1 2.1 2.5 2.2 4.1z"/></g><g class="st1"><path class="st2" d="M164.7 36.5c1.4.2 2.6.8 3.6 1.8 1 1.1 1.4 2.3 1.4 3.7 0 1.6-.6 2.9-1.7 4s-2.4 1.7-4 1.7h-4.2v-2.8h1.4c.8 0 1.3-.2 1.5-.6.2-.4.1-1-.4-1.6l-3-3.7c-.2-.3-.5-.5-.9-.5s-.6.2-.9.5l-3 3.7c-.5.6-.6 1.1-.4 1.6.2.4.7.6 1.5.6h1.4v2.8h-4.2c-1.6 0-2.9-.6-4-1.7s-1.7-2.4-1.7-4c0-1.4.5-2.7 1.4-3.7 1-1.1 2.1-1.7 3.6-1.8.2-1.6.8-3 2-4.1 1.2-1.1 2.6-1.6 4.2-1.6s3 .5 4.2 1.6c1.4 1.1 2.1 2.5 2.2 4.1z"/></g><g class="st1"><path class="st2" d="M89.2 196.1c.8 0 1.4.3 2 .8s.8 1.2.8 2v8.4c0 .8-.3 1.4-.8 2s-1.2.8-2 .8H75.1c-.8 0-1.4-.3-2-.8s-.8-1.2-.8-2v-8.4c0-.8.3-1.4.8-2s1.2-.8 2-.8h1.4v-2.8c0-1.6.5-2.9 1.6-4s2.4-1.6 4-1.6 2.9.5 4 1.6 1.6 2.4 1.6 4v2.8h1.5zm-4.2 0v-2.8c0-.8-.3-1.4-.8-2s-1.2-.8-2-.8-1.4.3-2 .8-.8 1.2-.8 2v2.8H85zm-.9 11.2l-.8-3.8c.4-.2.7-.5.9-.9s.4-.8.4-1.3c0-.7-.2-1.3-.7-1.7s-1.1-.7-1.7-.7c-.7 0-1.3.2-1.7.7s-.7 1.1-.7 1.7c0 .5.1.9.4 1.3s.5.7.9.9l-.8 3.8h3.8z"/></g><g class="st1"><path class="st2" d="M299.2 429.1c.8 0 1.4.3 2 .8s.8 1.2.8 2v8.4c0 .8-.3 1.4-.8 2s-1.2.8-2 .8h-14.1c-.8 0-1.4-.3-2-.8s-.8-1.2-.8-2v-8.4c0-.8.3-1.4.8-2s1.2-.8 2-.8h1.4v-2.8c0-1.6.5-2.9 1.6-4s2.4-1.6 4-1.6 2.9.5 4 1.6 1.6 2.4 1.6 4v2.8h1.5zm-4.2 0v-2.8c0-.8-.3-1.4-.8-2s-1.2-.8-2-.8-1.4.3-2 .8-.8 1.2-.8 2v2.8h5.6zm-.9 11.2l-.8-3.8c.4-.2.7-.5.9-.9s.4-.8.4-1.3c0-.7-.2-1.3-.7-1.7s-1.1-.7-1.7-.7c-.7 0-1.3.2-1.7.7s-.7 1.1-.7 1.7c0 .5.1.9.4 1.3s.5.7.9.9l-.8 3.8h3.8z"/></g><g class="st1"><path class="st2" d="M161.4 29.6c-.4-.4-.6-.9-.6-1.5s.2-1.1.6-1.5l5.1-5.1c-.9-1.5-1.4-3.2-1.4-5 0-1.3.2-2.5.7-3.7.5-1.2 1.2-2.2 2-3 .8-.8 1.8-1.5 3-2s2.4-.7 3.7-.7c1.3 0 2.5.2 3.7.7s2.2 1.2 3 2c.8.8 1.5 1.8 2 3s.7 2.4.7 3.7-.2 2.5-.7 3.7c-.5 1.2-1.2 2.2-2 3-.8.8-1.8 1.5-3 2s-2.4.7-3.7.7c-1.8 0-3.4-.5-5-1.4l-5.1 5.1c-.4.4-1 .6-1.5.6-.6 0-1.1-.2-1.5-.6zm8.1-16.1c-.5.9-.8 1.9-.8 2.9s.3 2 .8 2.9c.5.9 1.2 1.6 2.1 2.1.9.5 1.9.8 2.9.8.8 0 1.5-.2 2.3-.5.7-.3 1.3-.7 1.9-1.2s.9-1.1 1.2-1.9c.3-.7.5-1.5.5-2.3 0-.8-.2-1.5-.5-2.3-.3-.7-.7-1.3-1.2-1.9-.5-.5-1.1-.9-1.9-1.2-.7-.3-1.5-.5-2.3-.5-1.1 0-2 .3-2.9.8-.9.7-1.6 1.4-2.1 2.3z"/></g><g class="st1"><path class="st2" d="M3.1 238.1c-.7-.7-1.1-1.7-1.1-2.7 0-1.1.4-2 1.1-2.7l9-9c-1.7-2.7-2.5-5.6-2.5-8.7 0-2.3.4-4.4 1.3-6.5s2.1-3.8 3.5-5.3c1.5-1.5 3.3-2.7 5.3-3.6 2.1-.9 4.2-1.3 6.5-1.3s4.4.4 6.5 1.3c2.1.9 3.8 2.1 5.3 3.6s2.7 3.3 3.6 5.3 1.3 4.2 1.3 6.5-.4 4.4-1.3 6.5-2.1 3.8-3.6 5.3-3.3 2.7-5.3 3.6c-2.1.9-4.2 1.3-6.5 1.3-3.1 0-6-.8-8.7-2.5l-9 9.1c-.8.7-1.7 1.1-2.7 1.1s-1.9-.5-2.7-1.3zm14.4-28.4c-.9 1.6-1.4 3.3-1.4 5.1 0 1.9.5 3.6 1.4 5.1.9 1.6 2.2 2.8 3.7 3.7 1.6.9 3.3 1.4 5.1 1.4 1.4 0 2.7-.3 4-.8 1.3-.5 2.4-1.3 3.3-2.2s1.7-2 2.2-3.3c.5-1.3.8-2.6.8-4s-.3-2.7-.8-4c-.5-1.3-1.3-2.4-2.2-3.3s-2-1.7-3.3-2.2c-1.3-.5-2.6-.8-4-.8-1.9 0-3.6.5-5.1 1.4-1.6 1.1-2.8 2.4-3.7 3.9z"/></g><g class="st1"><path class="st2" d="M39.2 451.1c.8 0 1.4.3 2 .8s.8 1.2.8 2v8.4c0 .8-.3 1.4-.8 2s-1.2.8-2 .8H25.1c-.8 0-1.4-.3-2-.8s-.8-1.2-.8-2v-8.4c0-.8.3-1.4.8-2s1.2-.8 2-.8h1.4v-2.8c0-1.6.5-2.9 1.6-4s2.4-1.6 4-1.6 2.9.5 4 1.6 1.6 2.4 1.6 4v2.8h1.5zm-4.2 0v-2.8c0-.8-.3-1.4-.8-2s-1.2-.8-2-.8-1.4.3-2 .8-.8 1.2-.8 2v2.8H35zm-.9 11.2l-.8-3.8c.4-.2.7-.5.9-.9s.4-.8.4-1.3c0-.7-.2-1.3-.7-1.7s-1.1-.7-1.7-.7c-.7 0-1.3.2-1.7.7s-.7 1.1-.7 1.7c0 .5.1.9.4 1.3s.5.7.9.9l-.8 3.8h3.8z"/></g><g class="st1"><path class="st2" d="M363.4 205.6c-.4-.4-.6-.9-.6-1.5s.2-1.1.6-1.5l5.1-5.1c-.9-1.5-1.4-3.2-1.4-5 0-1.3.2-2.5.7-3.7s1.2-2.2 2-3c.8-.8 1.8-1.5 3-2s2.4-.7 3.7-.7 2.5.2 3.7.7c1.2.5 2.2 1.2 3 2 .8.8 1.5 1.8 2 3s.7 2.4.7 3.7c0 1.3-.2 2.5-.7 3.7s-1.2 2.2-2 3c-.8.8-1.8 1.5-3 2s-2.4.7-3.7.7c-1.8 0-3.4-.5-5-1.4l-5.1 5.1c-.4.4-1 .6-1.5.6-.6 0-1.1-.2-1.5-.6zm8.1-16.1c-.5.9-.8 1.9-.8 2.9 0 1.1.3 2 .8 2.9s1.2 1.6 2.1 2.1 1.9.8 2.9.8c.8 0 1.5-.2 2.3-.5.7-.3 1.3-.7 1.9-1.2.5-.5.9-1.1 1.2-1.9.3-.7.5-1.5.5-2.3 0-.8-.2-1.5-.5-2.3-.3-.7-.7-1.3-1.2-1.9-.5-.5-1.1-.9-1.9-1.2-.7-.3-1.5-.5-2.3-.5-1.1 0-2 .3-2.9.8s-1.6 1.4-2.1 2.3z"/></g><g class="st1"><path class="st2" d="M144.4 434.6c-.4-.4-.6-.9-.6-1.5s.2-1.1.6-1.5l5.1-5.1c-.9-1.5-1.4-3.2-1.4-5 0-1.3.2-2.5.7-3.7.5-1.2 1.2-2.2 2-3 .8-.8 1.8-1.5 3-2s2.4-.7 3.7-.7c1.3 0 2.5.2 3.7.7 1.2.5 2.2 1.2 3 2 .8.8 1.5 1.8 2 3s.7 2.4.7 3.7-.2 2.5-.7 3.7c-.5 1.2-1.2 2.2-2 3-.8.8-1.8 1.5-3 2s-2.4.7-3.7.7c-1.8 0-3.4-.5-5-1.4l-5.1 5.1c-.4.4-1 .6-1.5.6-.6 0-1.1-.2-1.5-.6zm8.1-16.1c-.5.9-.8 1.9-.8 2.9s.3 2 .8 2.9 1.2 1.6 2.1 2.1c.9.5 1.9.8 2.9.8.8 0 1.5-.2 2.3-.5.7-.3 1.3-.7 1.9-1.2.5-.5.9-1.1 1.2-1.9.3-.7.5-1.5.5-2.3 0-.8-.2-1.5-.5-2.3-.3-.7-.7-1.3-1.2-1.9s-1.1-.9-1.9-1.2c-.7-.3-1.5-.5-2.3-.5-1.1 0-2 .3-2.9.8-.9.7-1.6 1.4-2.1 2.3z"/></g><path class="st0" d="M136.5 109.2c-5.2 0-9.5-1.4-9.5-3.2v-3.2c0-.3.1-.5.3-.8 1.1 1.4 4.7 2.4 9.2 2.4s8.1-1 9.2-2.4c.2.3.3.5.3.8v3.2c0 1.7-4.3 3.2-9.5 3.2zm0-6.4c-5.2 0-9.5-1.4-9.5-3.2v-3.2c0-.2.1-.3.1-.5 0-.1.1-.2.2-.3 1.1 1.4 4.7 2.4 9.2 2.4s8.1-1 9.2-2.4c.1.1.1.2.2.3.1.2.1.3.1.5v3.2c0 1.8-4.3 3.2-9.5 3.2zm0-6.3c-5.2 0-9.5-1.4-9.5-3.2v-3.2c0-1.7 4.3-3.2 9.5-3.2s9.5 1.4 9.5 3.2v3.2c0 1.8-4.3 3.2-9.5 3.2zm0-7.9c-3.5 0-6.3.7-6.3 1.6s2.8 1.6 6.3 1.6 6.3-.7 6.3-1.6-2.8-1.6-6.3-1.6zm33 270.6c-5.2 0-9.5-1.4-9.5-3.2v-3.2c0-.3.1-.5.3-.8 1.1 1.4 4.7 2.4 9.2 2.4s8.1-1 9.2-2.4c.2.3.3.5.3.8v3.2c0 1.7-4.3 3.2-9.5 3.2zm0-6.4c-5.2 0-9.5-1.4-9.5-3.2v-3.2c0-.2.1-.3.1-.5 0-.1.1-.2.2-.3 1.1 1.4 4.7 2.4 9.2 2.4s8.1-1 9.2-2.4c.1.1.1.2.2.3.1.2.1.3.1.5v3.2c0 1.8-4.3 3.2-9.5 3.2zm0-6.3c-5.2 0-9.5-1.4-9.5-3.2v-3.2c0-1.7 4.3-3.2 9.5-3.2s9.5 1.4 9.5 3.2v3.2c0 1.8-4.3 3.2-9.5 3.2zm0-7.9c-3.5 0-6.3.7-6.3 1.6 0 .9 2.8 1.6 6.3 1.6s6.3-.7 6.3-1.6c0-.9-2.8-1.6-6.3-1.6zm-155 102.6c-5.2 0-9.5-1.4-9.5-3.2v-3.2c0-.3.1-.5.3-.8 1.1 1.4 4.7 2.4 9.2 2.4s8.1-1 9.2-2.4c.2.3.3.5.3.8v3.2c0 1.7-4.3 3.2-9.5 3.2zm0-6.4c-5.2 0-9.5-1.4-9.5-3.2v-3.2c0-.2.1-.3.1-.5 0-.1.1-.2.2-.3 1.1 1.4 4.7 2.4 9.2 2.4s8.1-1 9.2-2.4c.1.1.1.2.2.3.1.2.1.3.1.5v3.2c0 1.8-4.3 3.2-9.5 3.2zm0-6.3c-5.2 0-9.5-1.4-9.5-3.2v-3.2c0-1.7 4.3-3.2 9.5-3.2s9.5 1.4 9.5 3.2v3.2c0 1.8-4.3 3.2-9.5 3.2zm0-7.9c-3.5 0-6.3.7-6.3 1.6 0 .9 2.8 1.6 6.3 1.6s6.3-.7 6.3-1.6c0-.9-2.8-1.6-6.3-1.6zm329-37.4c-5.2 0-9.5-1.4-9.5-3.2v-3.2c0-.3.1-.5.3-.8 1.1 1.4 4.7 2.4 9.2 2.4s8.1-1 9.2-2.4c.2.3.3.5.3.8v3.2c0 1.7-4.3 3.2-9.5 3.2zm0-6.4c-5.2 0-9.5-1.4-9.5-3.2v-3.2c0-.2.1-.3.1-.5 0-.1.1-.2.2-.3 1.1 1.4 4.7 2.4 9.2 2.4s8.1-1 9.2-2.4c.1.1.1.2.2.3.1.2.1.3.1.5v3.2c0 1.8-4.3 3.2-9.5 3.2zm0-6.3c-5.2 0-9.5-1.4-9.5-3.2v-3.2c0-1.7 4.3-3.2 9.5-3.2s9.5 1.4 9.5 3.2v3.2c0 1.8-4.3 3.2-9.5 3.2zm0-7.9c-3.5 0-6.3.7-6.3 1.6 0 .9 2.8 1.6 6.3 1.6s6.3-.7 6.3-1.6c0-.9-2.8-1.6-6.3-1.6z"/><g class="st1"><path class="st2" d="M144 283.4c1-.4 2-.6 3.1-.6s2.1.2 3.1.6 1.8 1 2.5 1.7 1.3 1.5 1.7 2.5c.4 1 .6 2 .6 3.1s-.2 2.1-.6 3.1c-.4 1-1 1.8-1.7 2.5s-1.5 1.3-2.5 1.7-2 .6-3.1.6c-.6 0-1.3-.1-1.9-.2l-1.2 1.2c-.1.1-.3.3-.6.4-.2.1-.5.1-.7.1h-1.4c-.2 0-.4.1-.5.2s-.2.3-.2.5v1.4c0 .2-.1.4-.2.5-.1.1-.3.2-.5.2h-1.4c-.2 0-.4.1-.5.2-.1.1-.2.3-.2.5v1.4c0 .2-.1.4-.2.5s-.3.2-.5.2H132v-4.9c0-.2.1-.4.2-.7.1-.2.2-.4.4-.6l6.9-6.9c-.2-.7-.3-1.3-.3-2 0-1.1.2-2.1.6-3.1.4-1 1-1.8 1.7-2.5.7-.6 1.6-1.2 2.5-1.6zm3 7.3c.4.4.9.6 1.5.6s1.1-.2 1.5-.6.6-.9.6-1.5-.2-1.1-.6-1.5-.9-.6-1.5-.6-1.1.2-1.5.6-.6.9-.6 1.5.2 1.1.6 1.5z"/></g><g class="st1"><path class="st2" d="M336 393.4c1-.4 2-.6 3.1-.6s2.1.2 3.1.6 1.8 1 2.5 1.7 1.3 1.5 1.7 2.5c.4 1 .6 2 .6 3.1s-.2 2.1-.6 3.1c-.4 1-1 1.8-1.7 2.5s-1.5 1.3-2.5 1.7-2 .6-3.1.6c-.6 0-1.3-.1-1.9-.2l-1.2 1.2c-.1.1-.3.3-.6.4-.2.1-.5.1-.7.1h-1.4c-.2 0-.4.1-.5.2-.1.1-.2.3-.2.5v1.4c0 .2-.1.4-.2.5-.1.1-.3.2-.5.2h-1.4c-.2 0-.4.1-.5.2-.1.1-.2.3-.2.5v1.4c0 .2-.1.4-.2.5s-.3.2-.5.2H324v-4.9c0-.2.1-.4.2-.7.1-.2.2-.4.4-.6l6.9-6.9c-.2-.7-.3-1.3-.3-2 0-1.1.2-2.1.6-3.1.4-1 1-1.8 1.7-2.5s1.6-1.2 2.5-1.6zm3 7.3c.4.4.9.6 1.5.6s1.1-.2 1.5-.6.6-.9.6-1.5-.2-1.1-.6-1.5-.9-.6-1.5-.6-1.1.2-1.5.6-.6.9-.6 1.5.2 1.1.6 1.5z"/></g><g class="st1"><path class="st2" d="M165 50.4c1-.4 2-.6 3.1-.6s2.1.2 3.1.6 1.8 1 2.5 1.7 1.3 1.5 1.7 2.5c.4 1 .6 2 .6 3.1s-.2 2.1-.6 3.1c-.4 1-1 1.8-1.7 2.5s-1.5 1.3-2.5 1.7-2 .6-3.1.6c-.6 0-1.3-.1-1.9-.2l-1.2 1.2c-.1.1-.3.3-.6.4-.2.1-.5.1-.7.1h-1.4c-.2 0-.4.1-.5.2-.1.1-.2.3-.2.5v1.4c0 .2-.1.4-.2.5-.1.1-.3.2-.5.2h-1.4c-.2 0-.4.1-.5.2-.1.1-.2.3-.2.5V72c0 .2-.1.4-.2.5-.1.1-.3.2-.5.2H153v-4.9c0-.2.1-.4.2-.7.1-.2.2-.4.4-.6l6.9-6.9c-.2-.7-.3-1.3-.3-2 0-1.1.2-2.1.6-3.1.4-1 1-1.8 1.7-2.5.7-.6 1.6-1.2 2.5-1.6zm3 7.3c.4.4.9.6 1.5.6s1.1-.2 1.5-.6c.4-.4.6-.9.6-1.5s-.2-1.1-.6-1.5c-.4-.4-.9-.6-1.5-.6s-1.1.2-1.5.6c-.4.4-.6.9-.6 1.5s.2 1.1.6 1.5z"/></g><g class="st1"><path class="st2" d="M202 428.4c1-.4 2-.6 3.1-.6s2.1.2 3.1.6 1.8 1 2.5 1.7 1.3 1.5 1.7 2.5c.4 1 .6 2 .6 3.1s-.2 2.1-.6 3.1c-.4 1-1 1.8-1.7 2.5s-1.5 1.3-2.5 1.7-2 .6-3.1.6c-.6 0-1.3-.1-1.9-.2l-1.2 1.2c-.1.1-.3.3-.6.4-.2.1-.5.1-.7.1h-1.4c-.2 0-.4.1-.5.2s-.2.3-.2.5v1.4c0 .2-.1.4-.2.5-.1.1-.3.2-.5.2h-1.4c-.2 0-.4.1-.5.2-.1.1-.2.3-.2.5v1.4c0 .2-.1.4-.2.5s-.3.2-.5.2H190v-4.9c0-.2.1-.4.2-.7.1-.2.2-.4.4-.6l6.9-6.9c-.2-.7-.3-1.3-.3-2 0-1.1.2-2.1.6-3.1.4-1 1-1.8 1.7-2.5.7-.6 1.6-1.2 2.5-1.6zm3 7.3c.4.4.9.6 1.5.6s1.1-.2 1.5-.6.6-.9.6-1.5-.2-1.1-.6-1.5-.9-.6-1.5-.6-1.1.2-1.5.6-.6.9-.6 1.5.2 1.1.6 1.5z"/></g><g class="st1"><path class="st2" d="M153.4 342.5c.8 0 1.5.3 2.1.9.6.6.9 1.3.9 2.1v8.7c0 .8-.3 1.5-.9 2.1-.6.6-1.3.9-2.1.9h-14.5c-.8 0-1.5-.3-2.1-.9-.6-.6-.9-1.3-.9-2.1v-8.7c0-.8.3-1.5.9-2.1s1.3-.9 2.1-.9h1.5v-2.9c0-1.6.6-3 1.7-4.1 1.1-1.1 2.5-1.7 4.1-1.7s3 .6 4.1 1.7c1.1 1.1 1.7 2.5 1.7 4.1h-2.9c0-.8-.3-1.5-.9-2.1-.6-.6-1.3-.9-2.1-.9s-1.5.3-2.1.9c-.6.6-.9 1.3-.9 2.1v2.9h10.3zm-5.2 11.6l-.8-3.9c.4-.2.7-.5 1-.9s.4-.8.4-1.3c0-.7-.2-1.3-.7-1.8-.5-.5-1.1-.7-1.8-.7s-1.3.2-1.8.7c-.5.5-.7 1.1-.7 1.8 0 .5.1.9.4 1.3s.6.7 1 .9l-.8 3.9h3.8z"/></g><g class="st1"><path class="st2" d="M406.4 208.5c.8 0 1.5.3 2.1.9.6.6.9 1.3.9 2.1v8.7c0 .8-.3 1.5-.9 2.1-.6.6-1.3.9-2.1.9h-14.5c-.8 0-1.5-.3-2.1-.9-.6-.6-.9-1.3-.9-2.1v-8.7c0-.8.3-1.5.9-2.1.6-.6 1.3-.9 2.1-.9h1.5v-2.9c0-1.6.6-3 1.7-4.1 1.1-1.1 2.5-1.7 4.1-1.7 1.6 0 3 .6 4.1 1.7 1.1 1.1 1.7 2.5 1.7 4.1h-2.9c0-.8-.3-1.5-.9-2.1-.6-.6-1.3-.9-2.1-.9s-1.5.3-2.1.9c-.6.6-.9 1.3-.9 2.1v2.9h10.3zm-5.2 11.6l-.8-3.9c.4-.2.7-.5 1-.9s.4-.8.4-1.3c0-.7-.2-1.3-.7-1.8-.5-.5-1.1-.7-1.8-.7s-1.3.2-1.8.7c-.5.5-.7 1.1-.7 1.8 0 .5.1.9.4 1.3s.6.7 1 .9l-.8 3.9h3.8z"/></g><g class="st1"><path class="st2" d="M44.4 261.5c.8 0 1.5.3 2.1.9s.9 1.3.9 2.1v8.7c0 .8-.3 1.5-.9 2.1-.6.6-1.3.9-2.1.9H29.9c-.8 0-1.5-.3-2.1-.9-.6-.6-.9-1.3-.9-2.1v-8.7c0-.8.3-1.5.9-2.1.6-.6 1.3-.9 2.1-.9h1.5v-2.9c0-1.6.6-3 1.7-4.1 1.1-1.1 2.5-1.7 4.1-1.7s3 .6 4.1 1.7c1.1 1.1 1.7 2.5 1.7 4.1h-2.9c0-.8-.3-1.5-.9-2.1-.6-.6-1.3-.9-2.1-.9s-1.5.3-2.1.9c-.6.6-.9 1.3-.9 2.1v2.9h10.3zm-5.2 11.6l-.8-3.9c.4-.2.7-.5 1-.9.2-.4.4-.8.4-1.3 0-.7-.2-1.3-.7-1.8-.5-.5-1.1-.7-1.8-.7s-1.3.2-1.8.7c-.5.5-.7 1.1-.7 1.8 0 .5.1.9.4 1.3.2.4.6.7 1 .9l-.8 3.9h3.8z"/></g><g class="st1"><path class="st2" d="M240.4 224.5c.8 0 1.5.3 2.1.9.6.6.9 1.3.9 2.1v8.7c0 .8-.3 1.5-.9 2.1-.6.6-1.3.9-2.1.9h-14.5c-.8 0-1.5-.3-2.1-.9s-.9-1.3-.9-2.1v-8.7c0-.8.3-1.5.9-2.1.6-.6 1.3-.9 2.1-.9h1.5v-2.9c0-1.6.6-3 1.7-4.1 1.1-1.1 2.5-1.7 4.1-1.7s3 .6 4.1 1.7c1.1 1.1 1.7 2.5 1.7 4.1h-2.9c0-.8-.3-1.5-.9-2.1-.6-.6-1.3-.9-2.1-.9s-1.5.3-2.1.9c-.6.6-.9 1.3-.9 2.1v2.9h10.3zm-5.2 11.6l-.8-3.9c.4-.2.7-.5 1-.9s.4-.8.4-1.3c0-.7-.2-1.3-.7-1.8-.5-.5-1.1-.7-1.8-.7s-1.3.2-1.8.7c-.5.5-.7 1.1-.7 1.8 0 .5.1.9.4 1.3s.6.7 1 .9l-.8 3.9h3.8z"/></g><g class="st1"><path class="st2" d="M130.4 45.3l1.3 1.3c1 1 1.6 2.1 2 3.4.3 1.3.3 2.6 0 3.9-.3 1.3-1 2.4-2 3.4l-5.4 5.4c-.7.7-1.5 1.3-2.5 1.6-.9.4-1.9.6-2.9.6s-2-.2-2.9-.6-1.8-.9-2.5-1.6l-1.3-1.4c-1-1-1.6-2.1-2-3.4-.3-1.3-.3-2.6 0-3.9.3-1.3 1-2.4 2-3.4l3-3c0 1.6.2 3.1.9 4.5l-1.2 1.2c-.7.7-1.1 1.6-1.1 2.7s.4 1.9 1.1 2.7l1.3 1.3c.8.7 1.6 1.1 2.7 1.1s1.9-.4 2.7-1.1l5.4-5.4c.7-.7 1.1-1.6 1.1-2.7s-.4-1.9-1.1-2.7l-1.3-1.3c-.2-.2-.5-.4-.8-.6v-.2l2.6-2.6c.5.3.7.6.9.8zm2.7-10.3c2.1 0 3.9.7 5.4 2.2l1.3 1.3c1.5 1.5 2.2 3.3 2.2 5.4s-.7 3.9-2.2 5.4l-3.1 3.1c.1-1.6-.2-3.1-.8-4.5l1.2-1.2c.7-.7 1.1-1.6 1.1-2.7s-.4-1.9-1.1-2.7l-1.3-1.3c-.8-.7-1.6-1.1-2.7-1.1-1 0-1.9.4-2.7 1.1l-5.4 5.4c-.7.7-1.1 1.6-1.1 2.7s.4 1.9 1.1 2.7l1.3 1.3c.2.2.4.4.8.6v.1l-.1.1-2.6 2.6c-.5-.4-.7-.6-.8-.6l-1.3-1.3c-1.5-1.5-2.2-3.3-2.2-5.4s.7-3.9 2.2-5.4l5.4-5.4c.7-.7 1.5-1.3 2.5-1.6 1-.6 1.9-.8 2.9-.8z"/></g><g class="st1"><path class="st2" d="M212.1 220.9l1 1c.7.7 1.2 1.6 1.5 2.6.3 1 .3 2 0 3s-.8 1.9-1.5 2.6l-4.1 4.1c-.6.6-1.2 1-1.9 1.3s-1.4.4-2.2.4-1.5-.1-2.2-.4-1.3-.7-1.9-1.3l-1-1c-.7-.7-1.2-1.6-1.5-2.6-.3-1-.3-2 0-3s.8-1.9 1.5-2.6l2.3-2.3c0 1.2.2 2.4.7 3.4l-.9.9c-.6.6-.8 1.2-.8 2.1s.3 1.5.8 2.1l1 1c.6.6 1.3.8 2.1.8s1.5-.3 2.1-.8l4.1-4.1c.6-.6.8-1.2.8-2.1s-.3-1.5-.8-2.1l-1-1c-.2-.2-.4-.3-.6-.4l2-2c.2.1.4.2.5.4zm2.1-7.8c1.6 0 3 .6 4.1 1.7l1 1c1.1 1.1 1.7 2.5 1.7 4.1 0 1.6-.6 3-1.7 4.1l-2.3 2.3c0-1.2-.2-2.4-.6-3.5l.9-.9c.6-.6.8-1.2.8-2.1s-.3-1.5-.8-2.1l-1-1c-.6-.6-1.3-.8-2-.8-.8 0-1.5.3-2.1.8l-4.1 4.1c-.6.6-.8 1.2-.8 2.1 0 .8.3 1.5.8 2.1l1 1c.1.1.3.3.6.4v.1l-2 2c-.4-.3-.5-.5-.6-.5l-1-1c-1.1-1.1-1.7-2.5-1.7-4.1s.6-3 1.7-4.1l4.1-4.1c.6-.6 1.2-1 1.9-1.3.6-.2 1.3-.3 2.1-.3z"/></g><g class="st1"><path class="st2" d="M65.1 256.9l1 1c.7.7 1.2 1.6 1.5 2.6.3 1 .3 2 0 3s-.8 1.9-1.5 2.6l-4.1 4.1c-.6.6-1.2 1-1.9 1.3-.7.3-1.4.4-2.2.4s-1.5-.1-2.2-.4c-.7-.3-1.3-.7-1.9-1.3l-1-1c-.7-.7-1.2-1.6-1.5-2.6-.3-1-.3-2 0-3s.8-1.9 1.5-2.6l2.3-2.3c0 1.2.2 2.4.7 3.4l-.9.9c-.6.6-.8 1.2-.8 2.1s.3 1.5.8 2.1l1 1c.6.6 1.3.8 2.1.8s1.5-.3 2.1-.8l4.1-4.1c.6-.6.8-1.2.8-2.1 0-.8-.3-1.5-.8-2.1l-1-1c-.2-.2-.4-.3-.6-.4l2-2c.2.1.4.2.5.4zm2.1-7.8c1.6 0 3 .6 4.1 1.7l1 1c1.1 1.1 1.7 2.5 1.7 4.1 0 1.6-.6 3-1.7 4.1l-2.3 2.3c0-1.2-.2-2.4-.6-3.5l.9-.9c.6-.6.8-1.2.8-2.1 0-.8-.3-1.5-.8-2.1l-1-1c-.6-.6-1.3-.8-2-.8-.8 0-1.5.3-2.1.8l-4.1 4.1c-.6.6-.8 1.2-.8 2.1s.3 1.5.8 2.1l1 1c.1.1.3.3.6.4v.1l-2 2c-.4-.3-.5-.5-.6-.5l-1-1c-1.1-1.1-1.7-2.5-1.7-4.1s.6-3 1.7-4.1l4.1-4.1c.6-.6 1.2-1 1.9-1.3.6-.2 1.3-.3 2.1-.3z"/></g><g class="st1"><path class="st2" d="M344.1 419.9l1 1c.7.7 1.2 1.6 1.5 2.6.3 1 .3 2 0 3s-.8 1.9-1.5 2.6l-4.1 4.1c-.6.6-1.2 1-1.9 1.3-.7.3-1.4.4-2.2.4s-1.5-.1-2.2-.4c-.7-.3-1.3-.7-1.9-1.3l-1-1c-.7-.7-1.2-1.6-1.5-2.6-.3-1-.3-2 0-3s.8-1.9 1.5-2.6l2.3-2.3c0 1.2.2 2.4.7 3.4l-.9.9c-.6.6-.8 1.2-.8 2.1s.3 1.5.8 2.1l1 1c.6.6 1.3.8 2.1.8s1.5-.3 2.1-.8l4.1-4.1c.6-.6.8-1.2.8-2.1 0-.8-.3-1.5-.8-2.1l-1-1c-.2-.2-.4-.3-.6-.4l2-2c.2.1.4.2.5.4zm2.1-7.8c1.6 0 3 .6 4.1 1.7l1 1c1.1 1.1 1.7 2.5 1.7 4.1s-.6 3-1.7 4.1l-2.3 2.3c0-1.2-.2-2.4-.6-3.5l.9-.9c.6-.6.8-1.2.8-2.1 0-.8-.3-1.5-.8-2.1l-1-1c-.6-.6-1.3-.8-2-.8-.8 0-1.5.3-2.1.8l-4.1 4.1c-.6.6-.8 1.2-.8 2.1s.3 1.5.8 2.1l1 1c.1.1.3.3.6.4v.1l-2 2c-.4-.3-.5-.5-.6-.5l-1-1c-1.1-1.1-1.7-2.5-1.7-4.1s.6-3 1.7-4.1l4.1-4.1c.6-.6 1.2-1 1.9-1.3s1.3-.3 2.1-.3z"/></g><path class="st0" d="M135.2 74.5c1.3 0 2.6.4 3.9.9 1.3.6 2.1 1.5 2.8 2.6.7 1.1 1.1 2.4 1.1 3.7 0 .4-.2.6-.4.9-.2.4-.6.2-.9.2h-12.9c-.4 0-.7-.2-.9-.4-.2-.2-.4-.6-.4-.9 0-1.3.4-2.4 1.1-3.6.7-1.1 1.5-1.9 2.8-2.6 1.4-.6 2.5-.8 3.8-.8zm2.7-2.4c-.7.7-1.7 1.1-2.6 1.1-.9 0-1.9-.4-2.4-1.1-.6-.7-.9-1.5-.9-2.4v-2.4c0-.9.4-1.9 1.1-2.4.7-.6 1.5-1.1 2.4-1.1.9 0 1.9.4 2.4 1.1s1.1 1.5 1.1 2.4v2.2c-.2 1.1-.6 1.9-1.1 2.6zm4.4-.9c1.1 0 2.1.2 3 .6.9.4 1.7.9 2.4 1.5s1.3 1.5 1.7 2.2c.4.7.6 1.9.6 2.8 0 .4-.2.6-.4.7-.2.2-.6.2-.9.2h-4.5c-.4-1.1-1.1-2.4-2.2-3.4-1.1-.9-2.2-1.9-3.7-2.2.6-.6 1.1-1.1 1.5-1.9.9-.3 1.6-.5 2.5-.5zm-2-2.1v-1.9c0-1.3-.4-2.4-1.3-3.4 0-.9.4-1.7 1.1-2.4.7-.7 1.3-.9 2.2-.9.9 0 1.9.4 2.4 1.1s1.1 1.5 1.1 2.4v2.2c0 .9-.4 1.9-1.1 2.4-.7.6-1.5 1.1-2.4 1.1-.7.2-1.5 0-2-.6zm-39.1 149.4c1.3 0 2.6.4 3.9.9 1.3.6 2.1 1.5 2.8 2.6s1.1 2.4 1.1 3.7c0 .4-.2.6-.4.9-.2.4-.6.2-.9.2H94.9c-.4 0-.7-.2-.9-.4s-.4-.6-.4-.9c0-1.3.4-2.4 1.1-3.6s1.5-1.9 2.8-2.6c1.3-.6 2.4-.8 3.7-.8zm2.7-2.4c-.7.7-1.7 1.1-2.6 1.1s-1.9-.4-2.4-1.1c-.6-.7-.9-1.5-.9-2.4v-2.4c0-.9.4-1.9 1.1-2.4.7-.6 1.5-1.1 2.4-1.1.9 0 1.9.4 2.4 1.1.6.7 1.1 1.5 1.1 2.4v2.2c-.2 1.1-.6 1.9-1.1 2.6zm4.4-.9c1.1 0 2.1.2 3 .6.9.4 1.7.9 2.4 1.5s1.3 1.5 1.7 2.2c.4.7.6 1.9.6 2.8 0 .4-.2.6-.4.7-.2.2-.6.2-.9.2h-4.5c-.4-1.1-1.1-2.4-2.2-3.4-1.1-.9-2.2-1.9-3.7-2.2.6-.6 1.1-1.1 1.5-1.9.9-.3 1.6-.5 2.5-.5zm-2-2.1v-1.9c0-1.3-.4-2.4-1.3-3.4 0-.9.4-1.7 1.1-2.4.7-.7 1.3-.9 2.2-.9s1.9.4 2.4 1.1c.6.7 1.1 1.5 1.1 2.4v2.2c0 .9-.4 1.9-1.1 2.4s-1.5 1.1-2.4 1.1c-.7.2-1.5 0-2-.6zm53.9 164.4c1.3 0 2.6.4 3.9.9s2.1 1.5 2.8 2.6c.7 1.1 1.1 2.4 1.1 3.7 0 .4-.2.6-.4.9s-.6.2-.9.2h-12.9c-.4 0-.7-.2-.9-.4-.2-.2-.4-.6-.4-.9 0-1.3.4-2.4 1.1-3.6.7-1.1 1.5-1.9 2.8-2.6 1.4-.6 2.5-.8 3.8-.8zm2.7-2.4c-.7.7-1.7 1.1-2.6 1.1-.9 0-1.9-.4-2.4-1.1-.6-.7-.9-1.5-.9-2.4v-2.4c0-.9.4-1.9 1.1-2.4.7-.6 1.5-1.1 2.4-1.1.9 0 1.9.4 2.4 1.1s1.1 1.5 1.1 2.4v2.2c-.2 1.1-.6 1.9-1.1 2.6zm4.4-.9c1.1 0 2.1.2 3 .6.9.4 1.7.9 2.4 1.5s1.3 1.5 1.7 2.2c.4.7.6 1.9.6 2.8 0 .4-.2.6-.4.7s-.6.2-.9.2h-4.5c-.4-1.1-1.1-2.4-2.2-3.4-1.1-.9-2.2-1.9-3.7-2.2.6-.6 1.1-1.1 1.5-1.9.9-.3 1.6-.5 2.5-.5zm-2-2.1v-1.9c0-1.3-.4-2.4-1.3-3.4 0-.9.4-1.7 1.1-2.4.7-.7 1.3-.9 2.2-.9.9 0 1.9.4 2.4 1.1s1.1 1.5 1.1 2.4v2.2c0 .9-.4 1.9-1.1 2.4s-1.5 1.1-2.4 1.1c-.7.2-1.5 0-2-.6zM315.2 319c1.4 0 2.8.4 4.2 1 1.4.6 2.2 1.6 3 2.8.8 1.2 1.2 2.6 1.2 4 0 .4-.2.6-.4 1s-.6.2-1 .2h-13.8c-.4 0-.8-.2-1-.4s-.4-.6-.4-1c0-1.4.4-2.6 1.2-3.8s1.6-2 3-2.8c1.4-.8 2.6-1 4-1zm2.8-2.6c-.8.8-1.8 1.2-2.8 1.2s-2-.4-2.6-1.2c-.6-.8-1-1.6-1-2.6v-2.6c0-1 .4-2 1.2-2.6.8-.6 1.6-1.2 2.6-1.2s2 .4 2.6 1.2c.6.8 1.2 1.6 1.2 2.6v2.4c-.2 1.2-.6 2-1.2 2.8zm4.8-1c1.2 0 2.2.2 3.2.6 1 .4 1.8 1 2.6 1.6s1.4 1.6 1.8 2.4.6 2 .6 3c0 .4-.2.6-.4.8-.2.2-.6.2-1 .2h-4.8c-.4-1.2-1.2-2.6-2.4-3.6s-2.4-2-4-2.4c.6-.6 1.2-1.2 1.6-2 1-.4 1.8-.6 2.8-.6zm-2.2-2.2v-2c0-1.4-.4-2.6-1.4-3.6 0-1 .4-1.8 1.2-2.6s1.4-1 2.4-1 2 .4 2.6 1.2 1.2 1.6 1.2 2.6v2.4c0 1-.4 2-1.2 2.6s-1.6 1.2-2.6 1.2c-.8 0-1.6-.2-2.2-.8z"/><g class="st1"><path class="st2" d="M148 376.5l2.1 1.8c.2.1.2.3.3.5 0 .2 0 .4-.1.6l-1.5 2.5c-.1.2-.3.3-.5.4-.2.1-.4.1-.6 0l-2.6-.9c-.9.8-1.9 1.3-3 1.7l-.5 2.7c0 .2-.1.4-.3.5s-.4.2-.6.2h-2.9c-.2 0-.4-.1-.6-.2-.2-.1-.3-.3-.3-.5l-.5-2.7c-1.1-.4-2.1-.9-3-1.7l-2.6.9c-.2.1-.4.1-.6 0-.2-.1-.4-.2-.5-.4l-1.5-2.5c-.1-.2-.1-.4-.1-.6s.1-.4.3-.5l2.1-1.8c-.1-.6-.2-1.1-.2-1.7 0-.6.1-1.1.2-1.7l-2.1-1.8c-.2-.1-.2-.3-.3-.5 0-.2 0-.4.1-.6l1.5-2.5c.1-.2.3-.3.5-.4.2-.1.4-.1.6 0l2.6.9c.9-.8 1.9-1.3 3-1.7l.5-2.7c0-.2.1-.4.3-.5.2-.1.4-.2.6-.2h2.9c.2 0 .4.1.6.2s.3.3.3.5l.5 2.7c1.1.4 2.1.9 3 1.7l2.6-.9c.2-.1.4-.1.6 0 .2.1.4.2.5.4l1.5 2.5c.1.2.1.4.1.6 0 .2-.1.4-.3.5L148 373c.1.6.2 1.2.2 1.7 0 .6-.1 1.2-.2 1.8zm-8.6 2.7c1.2 0 2.3-.4 3.1-1.3.9-.9 1.3-1.9 1.3-3.1 0-1.2-.4-2.3-1.3-3.1-.9-.9-1.9-1.3-3.1-1.3-1.2 0-2.3.4-3.1 1.3s-1.3 1.9-1.3 3.1c0 1.2.4 2.3 1.3 3.1.8.8 1.8 1.3 3.1 1.3z"/></g><g class="st1"><path class="st2" d="M416 237.5l2.1 1.8c.2.1.2.3.3.5 0 .2 0 .4-.1.6l-1.5 2.5c-.1.2-.3.3-.5.4-.2.1-.4.1-.6 0l-2.6-.9c-.9.8-1.9 1.3-3 1.7l-.5 2.7c0 .2-.1.4-.3.5-.2.1-.4.2-.6.2h-2.9c-.2 0-.4-.1-.6-.2-.2-.1-.3-.3-.3-.5l-.5-2.7c-1.1-.4-2.1-.9-3-1.7l-2.6.9c-.2.1-.4.1-.6 0-.2-.1-.4-.2-.5-.4l-1.5-2.5c-.1-.2-.1-.4-.1-.6 0-.2.1-.4.3-.5l2.1-1.8c-.1-.6-.2-1.1-.2-1.7s.1-1.1.2-1.7l-2.1-1.8c-.2-.1-.2-.3-.3-.5 0-.2 0-.4.1-.6l1.5-2.5c.1-.2.3-.3.5-.4.2-.1.4-.1.6 0l2.6.9c.9-.8 1.9-1.3 3-1.7l.5-2.7c0-.2.1-.4.3-.5.2-.1.4-.2.6-.2h2.9c.2 0 .4.1.6.2.2.1.3.3.3.5l.5 2.7c1.1.4 2.1.9 3 1.7l2.6-.9c.2-.1.4-.1.6 0 .2.1.4.2.5.4l1.5 2.5c.1.2.1.4.1.6s-.1.4-.3.5L416 234c.1.6.2 1.2.2 1.7 0 .6-.1 1.2-.2 1.8zm-8.6 2.7c1.2 0 2.3-.4 3.1-1.3s1.3-1.9 1.3-3.1c0-1.2-.4-2.3-1.3-3.1s-1.9-1.3-3.1-1.3c-1.2 0-2.3.4-3.1 1.3s-1.3 1.9-1.3 3.1c0 1.2.4 2.3 1.3 3.1s1.8 1.3 3.1 1.3z"/></g><g class="st1"><path class="st2" d="M326 366.5l2.1 1.8c.2.1.2.3.3.5s0 .4-.1.6l-1.5 2.5c-.1.2-.3.3-.5.4-.2.1-.4.1-.6 0l-2.6-.9c-.9.8-1.9 1.3-3 1.7l-.5 2.7c0 .2-.1.4-.3.5s-.4.2-.6.2h-2.9c-.2 0-.4-.1-.6-.2s-.3-.3-.3-.5l-.5-2.7c-1.1-.4-2.1-.9-3-1.7l-2.6.9c-.2.1-.4.1-.6 0-.2-.1-.4-.2-.5-.4l-1.5-2.5c-.1-.2-.1-.4-.1-.6 0-.2.1-.4.3-.5l2.1-1.8c-.1-.6-.2-1.1-.2-1.7 0-.6.1-1.1.2-1.7l-2.1-1.8c-.2-.1-.2-.3-.3-.5 0-.2 0-.4.1-.6l1.5-2.5c.1-.2.3-.3.5-.4.2-.1.4-.1.6 0l2.6.9c.9-.8 1.9-1.3 3-1.7l.5-2.7c0-.2.1-.4.3-.5s.4-.2.6-.2h2.9c.2 0 .4.1.6.2s.3.3.3.5l.5 2.7c1.1.4 2.1.9 3 1.7l2.6-.9c.2-.1.4-.1.6 0 .2.1.4.2.5.4l1.5 2.5c.1.2.1.4.1.6 0 .2-.1.4-.3.5L326 363c.1.6.2 1.2.2 1.7 0 .6-.1 1.2-.2 1.8zm-8.6 2.7c1.2 0 2.3-.4 3.1-1.3.9-.9 1.3-1.9 1.3-3.1 0-1.2-.4-2.3-1.3-3.1s-1.9-1.3-3.1-1.3c-1.2 0-2.3.4-3.1 1.3s-1.3 1.9-1.3 3.1c0 1.2.4 2.3 1.3 3.1.8.8 1.8 1.3 3.1 1.3z"/></g><g class="st1"><path class="st2" d="M64 196.5l2.1 1.8c.2.1.2.3.3.5 0 .2 0 .4-.1.6l-1.5 2.5c-.1.2-.3.3-.5.4-.2.1-.4.1-.6 0l-2.6-.9c-.9.8-1.9 1.3-3 1.7l-.5 2.7c0 .2-.1.4-.3.5-.2.1-.4.2-.6.2h-2.9c-.2 0-.4-.1-.6-.2-.2-.1-.3-.3-.3-.5l-.5-2.7c-1.1-.4-2.1-.9-3-1.7l-2.6.9c-.2.1-.4.1-.6 0-.2-.1-.4-.2-.5-.4l-1.5-2.5c-.1-.2-.1-.4-.1-.6 0-.2.1-.4.3-.5l2.1-1.8c-.1-.6-.2-1.1-.2-1.7s.1-1.1.2-1.7l-2.1-1.8c-.2-.1-.2-.3-.3-.5 0-.2 0-.4.1-.6l1.5-2.5c.1-.2.3-.3.5-.4.2-.1.4-.1.6 0l2.6.9c.9-.8 1.9-1.3 3-1.7l.5-2.7c0-.2.1-.4.3-.5.2-.1.4-.2.6-.2h2.9c.2 0 .4.1.6.2.2.1.3.3.3.5l.5 2.7c1.1.4 2.1.9 3 1.7l2.6-.9c.2-.1.4-.1.6 0 .2.1.4.2.5.4l1.5 2.5c.1.2.1.4.1.6s-.1.4-.3.5L64 193c.1.6.2 1.2.2 1.7 0 .6-.1 1.2-.2 1.8zm-8.6 2.7c1.2 0 2.3-.4 3.1-1.3.9-.9 1.3-1.9 1.3-3.1 0-1.2-.4-2.3-1.3-3.1-.9-.9-1.9-1.3-3.1-1.3-1.2 0-2.3.4-3.1 1.3s-1.3 1.9-1.3 3.1c0 1.2.4 2.3 1.3 3.1s1.8 1.3 3.1 1.3z"/></g><path class="st0" d="M362.8 216.9l9 9.4-4.3-9.4h-4.7zm5.9 0l4.1 9.3 4.1-9.3h-8.2zm13.8 0h-4.4l-4.3 9.4 8.7-9.4zm-13.3-1.1h7.4l-3.7-3.8-3.7 3.8zm10-4.2h-5.4l3.7 3.8 1.7-3.8zm-12.8 0l1.7 4 3.8-4h-5.5zm16.1 4.2l-2.4-3.5-1.6 3.5h4zm-19.3 0h3.9l-1.5-3.5-2.4 3.5zm2.1-4.8h15l3.7 5.6-11.3 12.1-11.3-11.9 3.9-5.8zM146.8 397.9l9 9.4-4.3-9.4h-4.7zm5.9 0l4.1 9.3 4.1-9.3h-8.2zm13.8 0h-4.4l-4.3 9.4 8.7-9.4zm-13.3-1.1h7.4l-3.7-3.8-3.7 3.8zm10-4.2h-5.4l3.7 3.8 1.7-3.8zm-12.8 0l1.7 4 3.8-4h-5.5zm16.1 4.2l-2.4-3.5-1.6 3.5h4zm-19.3 0h3.9l-1.5-3.5-2.4 3.5zm2.1-4.8h15l3.7 5.6-11.3 12.1-11.3-11.9 3.9-5.8zm237.8 43.2l14.3 15-6.8-15h-7.5zm9.3 0l6.5 14.9 6.5-14.9h-13zm21.9 0h-7l-6.8 15 13.8-15zm-21.1-1.7h11.7l-5.9-6.1-5.8 6.1zm15.9-6.6h-8.5l5.8 6.1 2.7-6.1zm-20.4 0l2.8 6.3 6-6.3h-8.8zm25.6 6.6l-3.8-5.6-2.5 5.6h6.3zm-30.7 0h6.1l-2.4-5.5-3.7 5.5zm3.4-7.6h23.9l5.9 8.9-18 19.2-18-18.9 6.2-9.2zm-349.2-141l9 9.4-4.3-9.4h-4.7zm5.9 0l4.1 9.3 4.1-9.3h-8.2zm13.8 0h-4.4l-4.3 9.4 8.7-9.4zm-13.3-1.1h7.4l-3.7-3.8-3.7 3.8zm10-4.2h-5.4l3.7 3.8 1.7-3.8zm-12.8 0l1.7 4 3.8-4h-5.5zm16.1 4.2l-2.4-3.5-1.6 3.5h4zm-19.3 0H46l-1.5-3.5-2.3 3.5zm2.1-4.8h15l3.7 5.6-11.3 12.1-11.3-11.9 3.9-5.8zM215.7 20.1c-8.9 0-16.2 7.3-16.2 16.2 0 8.9 7.3 16.2 16.2 16.2.7 0 1.4 0 2.1-.2 7.2-.9 13-6.6 13.9-13.8.1-.7.2-1.5.2-2.2 0-8.9-7.3-16.2-16.2-16.2zm-14.6 16.2c0-2.1.5-4.1 1.3-5.9l6.9 19c-4.8-2.3-8.2-7.3-8.2-13.1zm16.4 14.5c-.6.1-1.2.1-1.9.1-1.4 0-2.8-.2-4.1-.6l1.6-4.6 2.8-8.1 4.5 12.3c0 .1.1.1.1.2-.9.3-1.9.5-3 .7zm.2-21.3c.9 0 1.7-.1 1.7-.1.8-.1.7-1.2-.1-1.2 0 0-2.4.2-3.9.2-1.4 0-3.8-.2-3.8-.2-.8-.1-.9 1.2-.1 1.2 0 0 .7.1 1.5.1l2.3 6.2-3.2 9.6-5.3-15.8c.9 0 1.7-.1 1.7-.1.8-.1.7-1.2-.1-1.2 0 0-2.4.2-3.9.2h-.9c2.6-3.9 7.1-6.6 12.2-6.6 3.8 0 7.2 1.5 9.8 3.8h-.2c-1.4 0-2.4 1.2-2.4 2.6 0 1.2.7 2.2 1.4 3.4.6 1 1.2 2.2 1.2 4 0 1.2-.4 2.8-1.1 4.7l-1.5 4.9-5.3-15.7zm5.3 19.4l1.2-3.3 3.3-9.5c.8-2.1 1.1-3.7 1.1-5.2 0-.5 0-1-.1-1.5 1.1 2.1 1.8 4.5 1.8 7 0 .7 0 1.3-.1 2-.7 4.5-3.4 8.3-7.2 10.5zm32 285.8c-6.1 0-11 4.9-11 11s4.9 11 11 11c.5 0 1 0 1.4-.1 4.9-.6 8.8-4.5 9.5-9.4.1-.5.1-1 .1-1.5 0-6.1-4.9-11-11-11zm-9.9 11c0-1.4.3-2.8.9-4l4.7 12.9c-3.3-1.6-5.6-5-5.6-8.9zm11.2 9.8c-.4.1-.8.1-1.3.1-1 0-1.9-.1-2.8-.4l1.1-3.2 1.9-5.5 3 8.3.1.1c-.7.3-1.3.5-2 .6zm.1-14.5c.6 0 1.1-.1 1.1-.1.5-.1.5-.8-.1-.8 0 0-1.6.1-2.6.1s-2.6-.1-2.6-.1c-.5 0-.6.8-.1.8 0 0 .5.1 1 .1l1.5 4.2-2.2 6.5-3.6-10.7c.6 0 1.1-.1 1.1-.1.5-.1.5-.8-.1-.8 0 0-1.6.1-2.6.1h-.6c1.8-2.7 4.8-4.5 8.3-4.5 2.6 0 4.9 1 6.7 2.6h-.1c-1 0-1.7.8-1.7 1.8 0 .8.5 1.5 1 2.3.4.7.8 1.5.8 2.7 0 .8-.3 1.9-.8 3.2l-1 3.3-3.4-10.6zm3.6 13.2l.8-2.3 2.2-6.5c.6-1.4.8-2.5.8-3.5 0-.4 0-.7-.1-1 .8 1.4 1.2 3 1.2 4.7 0 .5 0 .9-.1 1.3-.4 3.2-2.3 5.8-4.8 7.3zm121.8 94c-7.5 0-13.6 6.1-13.6 13.6s6.1 13.6 13.6 13.6c.6 0 1.2 0 1.8-.1 6.1-.8 10.9-5.6 11.7-11.6.1-.6.1-1.2.1-1.8 0-7.6-6.1-13.7-13.6-13.7zm-12.2 13.6c0-1.8.4-3.5 1.1-5l5.8 16c-4.1-1.9-6.9-6.1-6.9-11zm13.8 12.2c-.5.1-1 .1-1.6.1-1.2 0-2.4-.2-3.4-.5l1.3-3.9 2.3-6.8 3.8 10.3c0 .1.1.1.1.2-.8.2-1.6.4-2.5.6zm.1-17.9c.7 0 1.4-.1 1.4-.1.7-.1.6-1-.1-1 0 0-2 .2-3.3.2-1.2 0-3.2-.2-3.2-.2-.7 0-.7 1-.1 1 0 0 .6.1 1.3.1l1.9 5.2-2.7 8-4.5-13.2c.7 0 1.4-.1 1.4-.1.7-.1.6-1-.1-1 0 0-2 .2-3.3.2h-.8c2.2-3.3 5.9-5.5 10.2-5.5 3.2 0 6.1 1.2 8.3 3.2h-.2c-1.2 0-2.1 1-2.1 2.2 0 1 .6 1.9 1.2 2.9.5.8 1 1.9 1 3.4 0 1-.3 2.4-.9 3.9l-1.2 4.1-4.2-13.3zm4.5 16.3l1-2.8 2.8-8c.7-1.7.9-3.1.9-4.4 0-.4 0-.9-.1-1.3 1 1.7 1.5 3.7 1.5 5.9 0 .6 0 1.1-.1 1.7-.6 3.8-2.8 7.1-6 8.9zm-233-34.7c-6.1 0-11 4.9-11 11s4.9 11 11 11c.5 0 1 0 1.4-.1 4.9-.6 8.8-4.5 9.5-9.4.1-.5.1-1 .1-1.5 0-6.1-4.9-11-11-11zm-9.9 11c0-1.4.3-2.8.9-4l4.7 12.9c-3.3-1.6-5.6-5-5.6-8.9zm11.2 9.8c-.4.1-.8.1-1.3.1-1 0-1.9-.1-2.8-.4l1.1-3.2 1.9-5.5 3 8.3.1.1c-.7.3-1.3.5-2 .6zm.1-14.5c.6 0 1.1-.1 1.1-.1.5-.1.5-.8-.1-.8 0 0-1.6.1-2.6.1s-2.6-.1-2.6-.1c-.5 0-.6.8-.1.8 0 0 .5.1 1 .1l1.5 4.2-2.2 6.5-3.6-10.7c.6 0 1.1-.1 1.1-.1.5-.1.5-.8-.1-.8 0 0-1.6.1-2.6.1h-.6c1.8-2.7 4.8-4.5 8.3-4.5 2.6 0 4.9 1 6.7 2.6h-.1c-1 0-1.7.8-1.7 1.8 0 .8.5 1.5 1 2.3.4.7.8 1.5.8 2.7 0 .8-.3 1.9-.8 3.2l-1 3.3-3.4-10.6zm3.6 13.2l.8-2.3 2.2-6.5c.6-1.4.8-2.5.8-3.5 0-.4 0-.7-.1-1 .8 1.4 1.2 3 1.2 4.7 0 .5 0 .9-.1 1.3-.4 3.2-2.3 5.8-4.8 7.3z"/><g class="st1"><path class="st2" d="M156.2 266.1c.8 0 1.4.3 2 .8s.8 1.2.8 2v8.4c0 .8-.3 1.4-.8 2s-1.2.8-2 .8h-14.1c-.8 0-1.4-.3-2-.8s-.8-1.2-.8-2v-8.4c0-.8.3-1.4.8-2s1.2-.8 2-.8h1.4v-2.8c0-1.6.5-2.9 1.6-4s2.4-1.6 4-1.6 2.9.5 4 1.6 1.6 2.4 1.6 4v2.8h1.5zm-4.2 0v-2.8c0-.8-.3-1.4-.8-2s-1.2-.8-2-.8-1.4.3-2 .8-.8 1.2-.8 2v2.8h5.6zm-.9 11.2l-.8-3.8c.4-.2.7-.5.9-.9s.4-.8.4-1.3c0-.7-.2-1.3-.7-1.7s-1.1-.7-1.7-.7c-.7 0-1.3.2-1.7.7s-.7 1.1-.7 1.7c0 .5.1.9.4 1.3.2.4.5.7.9.9l-.8 3.8h3.8z"/></g><g class="st1"><path class="st2" d="M201.4 6.6c-1.6-.7-3.2-1-5-1-1.8 0-3.4.3-5 1s-3 1.6-4.2 2.8L184.9 7c1.5-1.5 3.3-2.7 5.2-3.5 2-.8 4.1-1.3 6.3-1.3s4.3.4 6.3 1.3c2 .8 3.7 2 5.2 3.5l-2.4 2.4c-1.1-1.2-2.5-2.1-4.1-2.8zm-8.9 2.5c1.2-.5 2.6-.8 3.9-.8 1.4 0 2.7.3 3.9.8 1.2.5 2.3 1.3 3.3 2.2l-2.4 2.4c-.6-.6-1.4-1.1-2.2-1.5-.8-.4-1.7-.5-2.6-.5-.9 0-1.8.2-2.6.5s-1.6.8-2.2 1.5l-2.4-2.4c1-.9 2.1-1.6 3.3-2.2zm3.9 5.4c1.1 0 2.1.4 2.9 1.2l-1.9 1.9c-.3.3-.6.4-1 .4s-.7-.1-1-.4l-1.9-1.9c.9-.8 1.8-1.2 2.9-1.2z"/></g><g class="st1"><path class="st2" d="M328.4 388.6c-1.6-.7-3.2-1-5-1-1.8 0-3.4.3-5 1s-3 1.6-4.2 2.8l-2.4-2.4c1.5-1.5 3.3-2.7 5.2-3.5 2-.8 4.1-1.3 6.3-1.3s4.3.4 6.3 1.3c2 .8 3.7 2 5.2 3.5l-2.4 2.4c-1-1.2-2.4-2.1-4-2.8zm-8.9 2.5c1.2-.5 2.6-.8 3.9-.8 1.4 0 2.7.3 3.9.8s2.3 1.3 3.3 2.2l-2.4 2.4c-.6-.6-1.4-1.1-2.2-1.5-.8-.4-1.7-.5-2.6-.5-.9 0-1.8.2-2.6.5s-1.6.8-2.2 1.5l-2.4-2.4c1-.9 2.1-1.6 3.3-2.2zm3.9 5.4c1.1 0 2.1.4 2.9 1.2l-1.9 1.9c-.3.3-.6.4-1 .4s-.7-.1-1-.4l-1.9-1.9c.9-.8 1.8-1.2 2.9-1.2z"/></g><g class="st1"><path class="st2" d="M182.4 434.6c-1.6-.7-3.2-1-5-1-1.8 0-3.4.3-5 1s-3 1.6-4.2 2.8l-2.4-2.4c1.5-1.5 3.3-2.7 5.2-3.5 2-.8 4.1-1.3 6.3-1.3s4.3.4 6.3 1.3c2 .8 3.7 2 5.2 3.5l-2.4 2.4c-1-1.2-2.4-2.1-4-2.8zm-8.9 2.5c1.2-.5 2.6-.8 3.9-.8 1.4 0 2.7.3 3.9.8 1.2.5 2.3 1.3 3.3 2.2l-2.4 2.4c-.6-.6-1.4-1.1-2.2-1.5-.8-.4-1.7-.5-2.6-.5-.9 0-1.8.2-2.6.5s-1.6.8-2.2 1.5l-2.4-2.4c1-.9 2.1-1.6 3.3-2.2zm3.9 5.4c1.1 0 2.1.4 2.9 1.2l-1.9 1.9c-.3.3-.6.4-1 .4s-.7-.1-1-.4l-1.9-1.9c.9-.8 1.8-1.2 2.9-1.2z"/></g><g class="st1"><path class="st2" d="M412.4 256.6c-1.6-.7-3.2-1-5-1-1.8 0-3.4.3-5 1s-3 1.6-4.2 2.8l-2.4-2.4c1.5-1.5 3.3-2.7 5.2-3.5 2-.8 4.1-1.3 6.3-1.3s4.3.4 6.3 1.3c2 .8 3.7 2 5.2 3.5l-2.4 2.4c-1-1.2-2.4-2.1-4-2.8zm-8.9 2.5c1.2-.5 2.6-.8 3.9-.8 1.4 0 2.7.3 3.9.8s2.3 1.3 3.3 2.2l-2.4 2.4c-.6-.6-1.4-1.1-2.2-1.5-.8-.4-1.7-.5-2.6-.5-.9 0-1.8.2-2.6.5s-1.6.8-2.2 1.5l-2.4-2.4c1-.9 2.1-1.6 3.3-2.2zm3.9 5.4c1.1 0 2.1.4 2.9 1.2l-1.9 1.9c-.3.3-.6.4-1 .4s-.7-.1-1-.4l-1.9-1.9c.9-.8 1.8-1.2 2.9-1.2z"/></g><path class="st0" d="M271.3 247.7c-6.1-.2-11.1 4.6-11.3 10.7-.2 6.1 4.6 11.1 10.7 11.3.5 0 1 0 1.4-.1 4.9-.5 8.9-4.2 9.8-9.1.1-.5.1-1 .2-1.5.1-6.1-4.7-11.1-10.8-11.3zm-10.2 10.7c0-1.4.4-2.8 1-4l4.3 13.1c-3.2-1.8-5.4-5.2-5.3-9.1zm10.9 10.1c-.4 0-.8.1-1.3 0-1 0-1.9-.2-2.8-.5l1.2-3.1 2-5.4 2.8 8.4s0 .1.1.1c-.7.3-1.3.4-2 .5zm.5-14.4c.6 0 1.1-.1 1.1-.1.5 0 .5-.8 0-.8 0 0-1.6.1-2.6 0-1 0-2.6-.2-2.6-.2-.5-.1-.6.8-.1.8 0 0 .5.1 1 .1l1.4 4.3-2.4 6.4-3.3-10.8c.6 0 1.1-.1 1.1-.1.5 0 .5-.8 0-.8 0 0-1.6.1-2.6 0h-.6c1.8-2.6 4.9-4.3 8.4-4.2 2.6.1 4.9 1.1 6.6 2.8h-.1c-1 0-1.7.8-1.7 1.7 0 .8.4 1.5.9 2.3.4.7.8 1.5.7 2.8 0 .8-.3 1.9-.8 3.2l-1.1 3.3-3.3-10.7zm3.2 13.3l.9-2.2 2.4-6.4c.6-1.4.8-2.5.9-3.5v-1c.7 1.4 1.1 3.1 1.1 4.8 0 .5-.1.9-.1 1.3-.7 3-2.6 5.5-5.2 7zM233.3 5.1c.2-.5.8-2.3-.2-4.8 0 0-1.5-.5-4.9 1.9-1.4-.4-3-.5-4.5-.5s-3.1.1-4.5.5c-3.4-2.3-4.9-1.9-4.9-1.9-1 2.5-.4 4.3-.2 4.8-1.2 1.3-1.9 2.9-1.9 4.8 0 7.4 4.8 9.1 11.5 9.1s11.5-1.7 11.5-9.1c0-1.9-.7-3.5-1.9-4.8zm-9.6 12.5c-4.7 0-8.6-.2-8.6-4.8 0-1.1.5-2.1 1.5-3 1.5-1.4 4.2-.7 7.1-.7 3 0 5.6-.7 7.1.7.9.8 1.5 1.9 1.5 3 0 4.6-3.9 4.8-8.6 4.8zm-3.6-7.2c-1 0-1.7 1.1-1.7 2.6s.8 2.6 1.7 2.6c1 0 1.7-1.1 1.7-2.6s-.8-2.6-1.7-2.6zm7.2 0c-1 0-1.7 1.1-1.7 2.6s.8 2.6 1.7 2.6 1.7-1.1 1.7-2.6-.7-2.6-1.7-2.6zM306.4 135c.3-.6 1.1-3.2-.3-6.6 0 0-2.1-.7-6.8 2.6-2-.5-4.1-.6-6.2-.6-2.1 0-4.2.1-6.2.6-4.7-3.2-6.8-2.6-6.8-2.6-1.4 3.4-.5 6-.3 6.6-1.6 1.7-2.6 3.9-2.6 6.7 0 10.2 6.6 12.5 15.9 12.5 9.2 0 15.9-2.3 15.9-12.5 0-2.8-1-5-2.6-6.7zm-13.3 17.2c-6.6 0-11.9-.3-11.9-6.7 0-1.5.7-2.9 2-4.1 2.1-2 5.8-.9 9.9-.9 4.1 0 7.7-1 9.9.9 1.3 1.2 2 2.6 2 4.1 0 6.4-5.3 6.7-11.9 6.7zm-5-10c-1.3 0-2.4 1.6-2.4 3.5 0 2 1.1 3.5 2.4 3.5 1.3 0 2.4-1.6 2.4-3.5s-1.1-3.5-2.4-3.5zm10 0c-1.3 0-2.4 1.6-2.4 3.5 0 2 1.1 3.5 2.4 3.5s2.4-1.6 2.4-3.5-1.1-3.5-2.4-3.5zM172.3 466.1c.2-.5.8-2.3-.2-4.8 0 0-1.5-.5-4.9 1.9-1.4-.4-3-.5-4.5-.5s-3.1.1-4.5.5c-3.4-2.3-4.9-1.9-4.9-1.9-1 2.5-.4 4.3-.2 4.8-1.2 1.3-1.9 2.9-1.9 4.8 0 7.4 4.8 9.1 11.5 9.1s11.5-1.7 11.5-9.1c0-1.9-.7-3.5-1.9-4.8zm-9.6 12.5c-4.7 0-8.6-.2-8.6-4.8 0-1.1.5-2.1 1.5-3 1.5-1.4 4.2-.7 7.1-.7 3 0 5.6-.7 7.1.7.9.8 1.5 1.9 1.5 3 0 4.6-3.9 4.8-8.6 4.8zm-3.6-7.2c-1 0-1.7 1.1-1.7 2.6 0 1.4.8 2.6 1.7 2.6 1 0 1.7-1.1 1.7-2.6s-.8-2.6-1.7-2.6zm7.2 0c-1 0-1.7 1.1-1.7 2.6s.8 2.6 1.7 2.6 1.7-1.1 1.7-2.6-.7-2.6-1.7-2.6zm223-215.3c.2-.5.8-2.3-.2-4.8 0 0-1.5-.5-4.9 1.9-1.4-.4-3-.5-4.5-.5s-3.1.1-4.5.5c-3.4-2.3-4.9-1.9-4.9-1.9-1 2.5-.4 4.3-.2 4.8-1.2 1.3-1.9 2.9-1.9 4.8 0 7.4 4.8 9.1 11.5 9.1s11.5-1.7 11.5-9.1c0-1.9-.7-3.5-1.9-4.8zm-9.6 12.5c-4.7 0-8.6-.2-8.6-4.8 0-1.1.5-2.1 1.5-3 1.5-1.4 4.2-.7 7.1-.7 3 0 5.6-.7 7.1.7.9.8 1.5 1.9 1.5 3 0 4.6-3.9 4.8-8.6 4.8zm-3.6-7.2c-1 0-1.7 1.1-1.7 2.6 0 1.4.8 2.6 1.7 2.6 1 0 1.7-1.1 1.7-2.6s-.8-2.6-1.7-2.6zm7.2 0c-1 0-1.7 1.1-1.7 2.6s.8 2.6 1.7 2.6 1.7-1.1 1.7-2.6-.7-2.6-1.7-2.6z"/><g class="st1"><path class="st2" d="M246.1 16.9l1 1c.7.7 1.2 1.6 1.5 2.6.3 1 .3 2 0 3s-.8 1.9-1.5 2.6l-4.1 4.1c-.6.6-1.2 1-1.9 1.3s-1.4.4-2.2.4-1.5-.1-2.2-.4-1.3-.7-1.9-1.3l-1-1c-.7-.7-1.2-1.6-1.5-2.6-.3-1-.3-2 0-3s.8-1.9 1.5-2.6l2.3-2.3c0 1.2.2 2.4.7 3.4l-.9.9c-.6.6-.8 1.2-.8 2.1 0 .8.3 1.5.8 2.1l1 1c.6.6 1.3.8 2.1.8s1.5-.3 2.1-.8l4.1-4.1c.6-.6.8-1.2.8-2.1 0-.8-.3-1.5-.8-2.1l-1-1c-.2-.2-.4-.3-.6-.4l2-2c.2.1.4.2.5.4zm2.1-7.8c1.6 0 3 .6 4.1 1.7l1 1c1.1 1.1 1.7 2.5 1.7 4.1s-.6 3-1.7 4.1l-2.3 2.3c0-1.2-.2-2.4-.6-3.5l.9-.9c.6-.6.8-1.2.8-2.1s-.3-1.5-.8-2.1l-1-1c-.6-.6-1.3-.8-2-.8-.8 0-1.5.3-2.1.8l-4.1 4.1c-.6.6-.8 1.2-.8 2.1 0 .8.3 1.5.8 2.1l1 1c.1.1.3.3.6.4v.1l-2 2c-.4-.3-.5-.5-.6-.5l-1-1c-1.1-1.1-1.7-2.5-1.7-4.1 0-1.6.6-3 1.7-4.1l4.1-4.1c.6-.6 1.2-1 1.9-1.3.6-.2 1.3-.3 2.1-.3z"/></g><g class="st1"><path class="st2" d="M281.9 34.7l2.6 2.2c.2.2.3.4.4.7 0 .3 0 .5-.1.7l-1.8 3.1c-.1.2-.3.4-.6.5-.3.1-.5.1-.7 0l-3.2-1.1c-1.1.9-2.3 1.6-3.6 2.1l-.6 3.3c0 .2-.2.5-.4.6s-.4.3-.7.3h-3.6c-.3 0-.5-.1-.7-.3s-.3-.4-.4-.6l-.6-3.3c-1.4-.5-2.6-1.2-3.6-2.1l-3.2 1.1c-.2.1-.5.1-.7 0-.3-.1-.4-.3-.6-.5l-1.8-3.1c-.1-.2-.2-.5-.1-.7s.2-.5.3-.6l2.6-2.2c-.1-.7-.2-1.4-.2-2.1 0-.7.1-1.4.2-2.1l-2.6-2.2c-.2-.2-.3-.4-.3-.6 0-.3 0-.5.1-.7l1.8-3.1c.1-.2.3-.4.6-.5s.5-.1.7 0l3.2 1.1c1.1-.9 2.3-1.6 3.6-2.1l.6-3.3c0-.2.2-.5.4-.6.2-.2.4-.3.7-.3h3.6c.2 0 .5.1.7.3.2.2.3.4.4.6l.6 3.3c1.4.5 2.6 1.2 3.6 2.1l3.2-1.1c.2-.1.5-.1.7 0s.4.3.6.5l1.8 3.1c.1.2.2.4.1.7s-.2.5-.4.7l-2.6 2.2c.1.8.2 1.5.2 2.1 0 .4-.1 1.1-.2 1.9zM271.2 38c1.5 0 2.8-.5 3.8-1.6 1.1-1.1 1.6-2.3 1.6-3.8s-.5-2.8-1.6-3.8-2.3-1.6-3.8-1.6-2.8.5-3.9 1.6-1.6 2.3-1.6 3.8.5 2.8 1.6 3.8c1.1 1.1 2.4 1.6 3.9 1.6z"/></g><g class="st1"><path class="st2" d="M112.3 87.4c1.2 0 2.2-.3 3.3-.8 1-.5 1.9-1.2 2.5-2.1h5c-.9 2.2-2.3 3.9-4.3 5.3-2 1.3-4.1 2-6.6 2-2.7 0-5.1-.9-7.3-2.6l-2.2 2.2c-.3.3-.6.4-.9.4-.3 0-.6-.1-.9-.4-.3-.3-.4-.6-.4-.9v-7.7c0-.3.1-.6.4-.9.3-.3.6-.4.9-.4h7.7c.3 0 .6.1.9.4.3.3.4.6.4.9 0 .4-.1.7-.4.9l-2.3 2.3c1.3.9 2.7 1.4 4.2 1.4zm10.4-19c.3 0 .6.1.9.4.3.3.4.6.4.9v7.7c0 .3-.1.6-.4.9-.3.3-.6.4-.9.4H115c-.3 0-.6-.1-.9-.4-.3-.3-.4-.6-.4-.9 0-.4.1-.7.4-.9l2.3-2.3c-1.3-.9-2.6-1.3-4.2-1.3-1.2 0-2.2.3-3.3.8-1 .5-1.9 1.2-2.5 2.1h-5c.9-2.2 2.3-3.9 4.3-5.3 2-1.3 4.1-2 6.6-2 2.7 0 5.1.9 7.3 2.6l2.2-2.2c.3-.4.6-.5.9-.5z"/></g><g class="st1"><path class="st2" d="M284.3 89.4c1.2 0 2.2-.3 3.3-.8 1-.5 1.9-1.2 2.5-2.1h5c-.9 2.2-2.3 3.9-4.3 5.3-2 1.3-4.1 2-6.6 2-2.7 0-5.1-.9-7.3-2.6l-2.2 2.2c-.3.3-.6.4-.9.4s-.6-.1-.9-.4c-.3-.3-.4-.6-.4-.9v-7.7c0-.3.1-.6.4-.9.3-.3.6-.4.9-.4h7.7c.3 0 .6.1.9.4.3.3.4.6.4.9 0 .4-.1.7-.4.9l-2.3 2.3c1.3.9 2.7 1.4 4.2 1.4zm10.4-19c.3 0 .6.1.9.4.3.3.4.6.4.9v7.7c0 .3-.1.6-.4.9-.3.3-.6.4-.9.4H287c-.3 0-.6-.1-.9-.4-.3-.3-.4-.6-.4-.9 0-.4.1-.7.4-.9l2.3-2.3c-1.3-.9-2.6-1.3-4.2-1.3-1.2 0-2.2.3-3.3.8-1 .5-1.9 1.2-2.5 2.1h-5c.9-2.2 2.3-3.9 4.3-5.3s4.1-2 6.6-2c2.7 0 5.1.9 7.3 2.6l2.2-2.2c.3-.4.6-.5.9-.5z"/></g><g class="st1"><path class="st2" d="M263.3 379.4c1.2 0 2.2-.3 3.3-.8 1-.5 1.9-1.2 2.5-2.1h5c-.9 2.2-2.3 3.9-4.3 5.3-2 1.3-4.1 2-6.6 2-2.7 0-5.1-.9-7.3-2.6l-2.2 2.2c-.3.3-.6.4-.9.4s-.6-.1-.9-.4c-.3-.3-.4-.6-.4-.9v-7.7c0-.3.1-.6.4-.9.3-.3.6-.4.9-.4h7.7c.3 0 .6.1.9.4.3.3.4.6.4.9 0 .4-.1.7-.4.9l-2.3 2.3c1.3.9 2.7 1.4 4.2 1.4zm10.4-19c.3 0 .6.1.9.4s.4.6.4.9v7.7c0 .3-.1.6-.4.9s-.6.4-.9.4H266c-.3 0-.6-.1-.9-.4s-.4-.6-.4-.9c0-.4.1-.7.4-.9l2.3-2.3c-1.3-.9-2.6-1.3-4.2-1.3-1.2 0-2.2.3-3.3.8-1 .5-1.9 1.2-2.5 2.1h-5c.9-2.2 2.3-3.9 4.3-5.3 2-1.3 4.1-2 6.6-2 2.7 0 5.1.9 7.3 2.6l2.2-2.2c.3-.4.6-.5.9-.5z"/></g><g class="st1"><path class="st2" d="M370.3 434.4c1.2 0 2.2-.3 3.3-.8 1-.5 1.9-1.2 2.5-2.1h5c-.9 2.2-2.3 3.9-4.3 5.3-2 1.3-4.1 2-6.6 2-2.7 0-5.1-.9-7.3-2.6l-2.2 2.2c-.3.3-.6.4-.9.4s-.6-.1-.9-.4-.4-.6-.4-.9v-7.7c0-.3.1-.6.4-.9.3-.3.6-.4.9-.4h7.7c.3 0 .6.1.9.4.3.3.4.6.4.9 0 .4-.1.7-.4.9l-2.3 2.3c1.3.9 2.7 1.4 4.2 1.4zm10.4-19c.3 0 .6.1.9.4s.4.6.4.9v7.7c0 .3-.1.6-.4.9s-.6.4-.9.4H373c-.3 0-.6-.1-.9-.4s-.4-.6-.4-.9c0-.4.1-.7.4-.9l2.3-2.3c-1.3-.9-2.6-1.3-4.2-1.3-1.2 0-2.2.3-3.3.8-1 .5-1.9 1.2-2.5 2.1h-5c.9-2.2 2.3-3.9 4.3-5.3 2-1.3 4.1-2 6.6-2 2.7 0 5.1.9 7.3 2.6l2.2-2.2c.3-.4.6-.5.9-.5z"/></g><g class="st1"><path class="st2" d="M60.9 229.4v-2.9h2.9v5.7H45.2v-18.5h5.7v2.9H48v12.8h12.9zm6.6-19.4c.3.3.5.7.5 1.2l-1.1 10.1c0 .5-.2.9-.5 1.2-.3.3-.7.5-1.2.5-.3 0-.6-.1-.9-.3-.3-.2-.5-.5-.7-.9l-.9-3.9-6.6 6.6c-.4.4-1 .7-1.6.7s-1.1-.2-1.6-.7c-.4-.4-.7-1-.7-1.6s.2-1.1.7-1.6l6.6-6.6-3.9-.9c-.4-.1-.7-.4-.9-.7-.2-.3-.3-.6-.3-.9 0-.5.2-.9.5-1.2.3-.3.7-.5 1.2-.5l10.1-1.1c.6.1 1 .2 1.3.6z"/></g><g class="st1"><path class="st2" d="M76.9 345.4v-2.9h2.9v5.7H61.2v-18.5h5.7v2.9H64v12.8h12.9zm6.6-19.4c.3.3.5.7.5 1.2l-1.1 10.1c0 .5-.2.9-.5 1.2-.3.3-.7.5-1.2.5-.3 0-.6-.1-.9-.3-.3-.2-.5-.5-.7-.9l-.9-3.9-6.6 6.6c-.4.4-1 .7-1.6.7-.6 0-1.1-.2-1.6-.7-.4-.4-.7-1-.7-1.6 0-.6.2-1.1.7-1.6l6.6-6.6-3.9-.9c-.4-.1-.7-.4-.9-.7-.2-.3-.3-.6-.3-.9 0-.5.2-.9.5-1.2s.7-.5 1.2-.5l10.1-1.1c.6.1 1 .2 1.3.6z"/></g><g class="st1"><path class="st2" d="M250.2 205.9v-3.6h3.6v7.2h-23.5V186h7.2v3.6h-3.6v16.3h16.3zm8.4-24.6c.4.4.6.9.6 1.5l-1.4 12.8c0 .6-.2 1.1-.6 1.5-.4.4-.9.6-1.5.6-.3 0-.7-.1-1.1-.4-.4-.3-.7-.6-.8-1.1l-1.1-4.9-8.4 8.4c-.6.6-1.2.8-2 .8s-1.5-.3-2-.8c-.6-.6-.8-1.2-.8-2s.3-1.5.8-2l8.4-8.4-4.9-1.1c-.5-.2-.9-.4-1.1-.8-.3-.4-.4-.8-.4-1.1 0-.6.2-1.1.6-1.5.4-.4.9-.6 1.5-.6l12.7-1.4c.6-.2 1.1 0 1.5.5z"/></g><g class="st1"><path class="st2" d="M346.9 345.4v-2.9h2.9v5.7h-18.5v-18.5h5.7v2.9h-3v12.8h12.9zm6.6-19.4c.3.3.5.7.5 1.2l-1.1 10.1c0 .5-.2.9-.5 1.2-.3.3-.7.5-1.2.5-.3 0-.6-.1-.9-.3-.3-.2-.5-.5-.7-.9l-.9-3.9-6.6 6.6c-.4.4-1 .7-1.6.7-.6 0-1.1-.2-1.6-.7s-.7-1-.7-1.6c0-.6.2-1.1.7-1.6l6.6-6.6-3.9-.9c-.4-.1-.7-.4-.9-.7-.2-.3-.3-.6-.3-.9 0-.5.2-.9.5-1.2s.7-.5 1.2-.5l10.1-1.1c.6.1 1 .2 1.3.6z"/></g><g class="st1"><path class="st2" d="M273.2 449.6v-2.3h2.3v4.6h-14.9V437h4.6v2.3h-2.3v10.3h10.3zm5.3-15.6c.3.3.4.6.4 1l-.9 8c0 .4-.1.7-.4 1-.3.3-.6.4-1 .4-.2 0-.5-.1-.7-.2-.2-.2-.4-.4-.5-.7l-.7-3.1-5.3 5.3c-.4.4-.8.5-1.3.5s-.9-.2-1.3-.5c-.4-.4-.5-.8-.5-1.3s.2-.9.5-1.3l5.3-5.3-3.1-.7c-.3-.1-.5-.3-.7-.5s-.2-.5-.2-.7c0-.4.1-.7.4-1 .3-.3.6-.4 1-.4l8.1-.9c.3 0 .6.1.9.4z"/></g><g class="st1"><path class="st2" d="M79 219.4c1-.4 2-.6 3.1-.6s2.1.2 3.1.6c1 .4 1.8 1 2.5 1.7s1.3 1.5 1.7 2.5.6 2 .6 3.1-.2 2.1-.6 3.1c-.4 1-1 1.8-1.7 2.5s-1.5 1.3-2.5 1.7c-1 .4-2 .6-3.1.6-.6 0-1.3-.1-1.9-.2l-1.2 1.2c-.1.1-.3.3-.6.4-.2.1-.5.1-.7.1h-1.4c-.2 0-.4.1-.5.2-.1.1-.2.3-.2.5v1.4c0 .2-.1.4-.2.5-.1.1-.3.2-.5.2h-1.4c-.2 0-.4.1-.5.2-.1.1-.2.3-.2.5v1.4c0 .2-.1.4-.2.5-.1.1-.3.2-.5.2H67v-4.9c0-.2.1-.4.2-.7.1-.2.2-.4.4-.6l6.9-6.9c-.2-.7-.3-1.3-.3-2 0-1.1.2-2.1.6-3.1s1-1.8 1.7-2.5c.7-.6 1.6-1.2 2.5-1.6zm3 7.3c.4.4.9.6 1.5.6s1.1-.2 1.5-.6c.4-.4.6-.9.6-1.5s-.2-1.1-.6-1.5c-.4-.4-.9-.6-1.5-.6s-1.1.2-1.5.6c-.4.4-.6.9-.6 1.5s.2 1.1.6 1.5z"/></g><g class="st1"><path class="st2" d="M21.2 250.1c.8 0 1.4.3 2 .8s.8 1.2.8 2v8.4c0 .8-.3 1.4-.8 2s-1.2.8-2 .8H7.1c-.8 0-1.4-.3-2-.8s-.8-1.2-.8-2v-8.4c0-.8.3-1.4.8-2s1.2-.8 2-.8h1.4v-2.8c0-1.6.5-2.9 1.6-4s2.4-1.6 4-1.6 2.9.5 4 1.6 1.6 2.4 1.6 4v2.8h1.5zm-4.2 0v-2.8c0-.8-.3-1.4-.8-2s-1.2-.8-2-.8-1.4.3-2 .8-.8 1.2-.8 2v2.8H17zm-.9 11.2l-.8-3.8c.4-.2.7-.5.9-.9s.4-.8.4-1.3c0-.7-.2-1.3-.7-1.7s-1.1-.7-1.7-.7c-.7 0-1.3.2-1.7.7s-.7 1.1-.7 1.7c0 .5.1.9.4 1.3.2.4.5.7.9.9l-.8 3.8h3.8z"/></g><path class="st0" d="M311.5 91.2c-5.2 0-9.5-1.4-9.5-3.2v-3.2c0-.3.1-.5.3-.8 1.1 1.4 4.7 2.4 9.2 2.4s8.1-1 9.2-2.4c.2.3.3.5.3.8V88c0 1.7-4.3 3.2-9.5 3.2zm0-6.4c-5.2 0-9.5-1.4-9.5-3.2v-3.2c0-.2.1-.3.1-.5 0-.1.1-.2.2-.3 1.1 1.4 4.7 2.4 9.2 2.4s8.1-1 9.2-2.4c.1.1.1.2.2.3.1.2.1.3.1.5v3.2c0 1.8-4.3 3.2-9.5 3.2zm0-6.3c-5.2 0-9.5-1.4-9.5-3.2v-3.2c0-1.7 4.3-3.2 9.5-3.2s9.5 1.4 9.5 3.2v3.2c0 1.8-4.3 3.2-9.5 3.2zm0-7.9c-3.5 0-6.3.7-6.3 1.6s2.8 1.6 6.3 1.6 6.3-.7 6.3-1.6-2.8-1.6-6.3-1.6zm32 407.8c-9.2 0-16.6-2.5-16.6-5.5v-5.5c0-.5.2-.9.6-1.4 1.8 2.4 8.3 4.1 16 4.1 7.7 0 14.2-1.8 16-4.1.3.4.6.9.6 1.4v5.5c0 3-7.4 5.5-16.6 5.5zm0-11.1c-9.2 0-16.6-2.5-16.6-5.5v-5.5c0-.3.1-.6.3-.9.1-.2.2-.4.3-.5 1.8 2.4 8.3 4.1 16 4.1 7.7 0 14.2-1.8 16-4.1.1.2.2.3.3.5.1.3.3.6.3.9v5.5c0 3.1-7.4 5.5-16.6 5.5zm0-11c-9.2 0-16.6-2.5-16.6-5.5v-5.6c0-3.1 7.4-5.5 16.6-5.5 9.2 0 16.6 2.5 16.6 5.5v5.6c0 3-7.4 5.5-16.6 5.5zm0-13.9c-6.1 0-11.1 1.2-11.1 2.8 0 1.5 5 2.8 11.1 2.8s11.1-1.2 11.1-2.8c0-1.5-4.9-2.8-11.1-2.8zm-41.7-108.3c.3-.7 1.2-3.4-.3-7.1 0 0-2.2-.7-7.3 2.8-2.1-.6-4.4-.7-6.7-.7s-4.6.1-6.7.7c-5.1-3.5-7.3-2.8-7.3-2.8-1.5 3.7-.6 6.4-.3 7.1-1.7 1.9-2.8 4.2-2.8 7.2 0 11 7.1 13.5 17 13.5s17.1-2.5 17.1-13.5c.1-3-.9-5.4-2.7-7.2zm-14.3 18.5c-7.1 0-12.8-.3-12.8-7.2 0-1.6.8-3.2 2.2-4.4 2.3-2.1 6.2-1 10.6-1 4.4 0 8.3-1.1 10.6 1 1.4 1.3 2.2 2.8 2.2 4.4 0 6.9-5.7 7.2-12.8 7.2zm-5.3-10.7c-1.4 0-2.6 1.7-2.6 3.8s1.1 3.8 2.6 3.8c1.4 0 2.6-1.7 2.6-3.8s-1.2-3.8-2.6-3.8zm10.7 0c-1.4 0-2.6 1.7-2.6 3.8s1.2 3.8 2.6 3.8 2.6-1.7 2.6-3.8c0-2.1-1.2-3.8-2.6-3.8z"/><g class="st1"><path class="st2" d="M297.2 367.1c.8 0 1.4.3 2 .8s.8 1.2.8 2v8.4c0 .8-.3 1.4-.8 2s-1.2.8-2 .8h-14.1c-.8 0-1.4-.3-2-.8s-.8-1.2-.8-2v-8.4c0-.8.3-1.4.8-2s1.2-.8 2-.8h1.4v-2.8c0-1.6.5-2.9 1.6-4s2.4-1.6 4-1.6 2.9.5 4 1.6 1.6 2.4 1.6 4v2.8h1.5zm-4.2 0v-2.8c0-.8-.3-1.4-.8-2s-1.2-.8-2-.8-1.4.3-2 .8-.8 1.2-.8 2v2.8h5.6zm-.9 11.2l-.8-3.8c.4-.2.7-.5.9-.9s.4-.8.4-1.3c0-.7-.2-1.3-.7-1.7s-1.1-.7-1.7-.7c-.7 0-1.3.2-1.7.7s-.7 1.1-.7 1.7c0 .5.1.9.4 1.3s.5.7.9.9l-.8 3.8h3.8z"/></g><g class="st1"><path class="st2" d="M59.7 296.3c1.8-.8 3.6-1.1 5.6-1.1s3.8.4 5.6 1.1c1.8.8 3.3 1.8 4.6 3 1.3 1.3 2.3 2.8 3 4.6.8 1.8 1.1 3.6 1.1 5.6s-.4 3.8-1.1 5.6c-.8 1.8-1.8 3.3-3 4.6-1.3 1.3-2.8 2.3-4.6 3-1.8.8-3.6 1.1-5.6 1.1-1.2 0-2.3-.1-3.5-.4l-2.1 2.1c-.2.3-.6.5-1 .7-.4.2-.8.3-1.2.3h-2.6c-.4 0-.7.1-.9.4-.3.3-.4.6-.4.9v2.6c0 .4-.1.7-.4.9-.3.3-.6.4-.9.4h-2.6c-.4 0-.7.1-.9.4-.3.3-.4.6-.4.9v2.6c0 .4-.1.7-.4.9-.3.3-.6.4-.9.4H38V328c0-.4.1-.8.3-1.2.2-.4.4-.8.7-1l12.6-12.6c-.3-1.2-.5-2.4-.5-3.6 0-1.9.4-3.8 1.1-5.6.8-1.8 1.8-3.3 3-4.6 1.2-1.3 2.7-2.3 4.5-3.1zm5.4 13.4c.8.8 1.7 1.1 2.8 1.1 1.1 0 2-.4 2.8-1.1.8-.8 1.1-1.7 1.1-2.8 0-1.1-.4-2-1.1-2.8-.8-.8-1.7-1.1-2.8-1.1-1.1 0-2 .4-2.8 1.1-.8.8-1.1 1.7-1.1 2.8 0 1.1.3 2 1.1 2.8z"/></g><g class="st1"><path class="st2" d="M99.7 262.2c1.9 0 3.6-.4 5.3-1.3 1.6-.8 3-2 4.1-3.4h8.1c-1.4 3.5-3.7 6.3-6.9 8.5s-6.7 3.2-10.6 3.2c-4.4 0-8.3-1.4-11.7-4.2l-3.6 3.6c-.4.4-.9.6-1.5.6s-1-.2-1.5-.6-.6-.9-.6-1.5v-12.3c0-.6.2-1 .6-1.5.4-.4.9-.6 1.5-.6h12.3c.6 0 1 .2 1.5.6.4.4.6.9.6 1.5s-.2 1.1-.6 1.5l-3.8 3.8c2.1 1.4 4.3 2.1 6.8 2.1zm16.7-30.6c.6 0 1 .2 1.5.6.4.4.6.9.6 1.5V246c0 .6-.2 1-.6 1.5-.4.4-.9.6-1.5.6h-12.3c-.6 0-1-.2-1.5-.6-.4-.4-.6-.9-.6-1.5s.2-1.1.6-1.5l3.8-3.8c-2-1.4-4.3-2.1-6.7-2.1-1.9 0-3.6.4-5.3 1.3-1.6.8-3 2-4.1 3.4h-8.1c1.4-3.5 3.7-6.3 6.9-8.5s6.7-3.2 10.6-3.2c4.4 0 8.3 1.4 11.7 4.2l3.6-3.6c.4-.4.8-.6 1.4-.6z"/></g><path class="st0" d="M123.8 134.8c1.9 0 3.7.5 5.6 1.3 1.9.8 2.9 2.1 4 3.7s1.6 3.5 1.6 5.3c0 .5-.3.8-.5 1.3s-.8.3-1.3.3h-18.4c-.5 0-1.1-.3-1.3-.5-.3-.3-.5-.8-.5-1.3 0-1.9.5-3.5 1.6-5.1s2.1-2.7 4-3.7c1.8-1 3.4-1.3 5.2-1.3zm3.8-3.4c-1.1 1.1-2.4 1.6-3.7 1.6s-2.7-.5-3.5-1.6-1.3-2.1-1.3-3.5v-3.5c0-1.3.5-2.7 1.6-3.5 1.1-.8 2.1-1.6 3.5-1.6s2.7.5 3.5 1.6c.8 1.1 1.6 2.1 1.6 3.5v3.2c-.4 1.6-.9 2.7-1.7 3.8zm6.4-1.4c1.6 0 2.9.3 4.3.8 1.3.5 2.4 1.3 3.5 2.1s1.9 2.1 2.4 3.2.8 2.7.8 4c0 .5-.3.8-.5 1.1-.3.3-.8.3-1.3.3h-6.4c-.5-1.6-1.6-3.5-3.2-4.8-1.6-1.3-3.2-2.7-5.3-3.2.8-.8 1.6-1.6 2.1-2.7 1.2-.5 2.2-.8 3.6-.8zm-3-2.9v-2.7c0-1.9-.5-3.5-1.9-4.8 0-1.3.5-2.4 1.6-3.5s1.9-1.3 3.2-1.3c1.3 0 2.7.5 3.5 1.6.8 1.1 1.6 2.1 1.6 3.5v3.2c0 1.3-.5 2.7-1.6 3.5s-2.1 1.6-3.5 1.6c-1 0-2.1-.3-2.9-1.1z"/><g class="st1"><path class="st2" d="M108.4 123.6c-1.6-.7-3.2-1-5-1-1.8 0-3.4.3-5 1s-3 1.6-4.2 2.8l-2.4-2.4c1.5-1.5 3.3-2.7 5.2-3.5 2-.8 4.1-1.3 6.3-1.3s4.3.4 6.3 1.3c2 .8 3.7 2 5.2 3.5l-2.4 2.4c-1-1.2-2.4-2.1-4-2.8zm-8.9 2.5c1.2-.5 2.6-.8 3.9-.8 1.4 0 2.7.3 3.9.8 1.2.5 2.3 1.3 3.3 2.2l-2.4 2.4c-.6-.6-1.4-1.1-2.2-1.5-.8-.4-1.7-.5-2.6-.5-.9 0-1.8.2-2.6.5s-1.6.8-2.2 1.5l-2.4-2.4c1-.9 2.1-1.6 3.3-2.2zm3.9 5.4c1.1 0 2.1.4 2.9 1.2l-1.9 1.9c-.3.3-.6.4-1 .4s-.7-.1-1-.4l-1.9-1.9c.9-.8 1.8-1.2 2.9-1.2z"/></g><path class="st0" d="M107.6 166l16.7 17.5-8-17.5h-8.7zm10.9 0l7.6 17.4 7.6-17.4h-15.2zm25.6 0H136l-8 17.5 16.1-17.5zm-24.7-2h13.7l-6.9-7.2-6.8 7.2zm18.7-7.8h-10l6.8 7.1 3.2-7.1zm-23.9 0l3.2 7.4 7.1-7.4h-10.3zm29.9 7.8l-4.4-6.6-2.9 6.6h7.3zm-35.9 0h7.2l-2.8-6.4-4.4 6.4zm4-9h27.9l6.9 10.4-21 22.4-21-22.2 7.2-10.6z"/><g class="st1"><path class="st2" d="M106.9 145.6c1.1.1 2.1.6 2.9 1.5.8.9 1.2 1.9 1.2 3 0 1.3-.4 2.3-1.3 3.2-.9.9-2 1.3-3.2 1.3h-3.7l2.2-2.8c.4-.5.5-.9.3-1.3s-.6-.5-1.2-.5H103v-2.3c0-.3-.1-.6-.3-.8-.2-.2-.5-.3-.8-.3-.3 0-.6.1-.8.3-.2.2-.3.5-.3.8v2.3h-1.1c-.6 0-1 .2-1.2.5-.2.4-.1.8.3 1.3l2.2 2.8h-3.7c-1.3 0-2.3-.4-3.2-1.3-.9-.9-1.3-2-1.3-3.2 0-1.2.4-2.2 1.2-3 .8-.9 1.7-1.4 2.9-1.5.1-1.3.7-2.4 1.7-3.3 1-.9 2.1-1.3 3.4-1.3s2.5.4 3.4 1.3c.8.9 1.3 2 1.5 3.3z"/></g><g class="st1"><path class="st2" d="M309 104c2.5.3 4.6 1.4 6.3 3.3 1.7 1.9 2.6 4.1 2.6 6.7 0 2.8-1 5.1-2.9 7.1s-4.3 2.9-7.1 2.9h-8l4.9-6.1c.9-1.1 1.1-2 .7-2.8-.4-.8-1.2-1.2-2.6-1.2h-2.5v-5c0-.7-.2-1.3-.7-1.8-.5-.5-1.1-.7-1.8-.7s-1.3.2-1.8.7c-.5.5-.7 1.1-.7 1.8v5h-2.5c-1.4 0-2.3.4-2.6 1.2-.4.8-.1 1.7.7 2.8l4.9 6.1h-8c-2.8 0-5.1-1-7.1-2.9-2-2-2.9-4.3-2.9-7.1 0-2.6.9-4.8 2.6-6.7 1.7-1.9 3.8-3 6.3-3.3.3-2.9 1.5-5.3 3.6-7.2 2.1-1.9 4.6-2.9 7.5-2.9s5.4 1 7.5 2.9c2.1 1.9 3.3 4.3 3.6 7.2z"/></g><g class="st1"><path class="st2" d="M100.2 291.7c1.5.2 2.8.8 3.8 1.9 1 1.1 1.5 2.4 1.5 4s-.6 3-1.7 4.2c-1.2 1.2-2.6 1.7-4.2 1.7h-4.8l2.9-3.6c.5-.6.7-1.2.4-1.6-.2-.5-.7-.7-1.6-.7H95v-3c0-.4-.1-.8-.4-1.1-.3-.3-.6-.4-1.1-.4s-.8.1-1.1.4c-.3.3-.4.6-.4 1.1v3h-1.5c-.8 0-1.3.2-1.6.7-.2.5-.1 1 .4 1.6l2.9 3.6h-4.8c-1.6 0-3-.6-4.2-1.7-1.2-1.2-1.7-2.6-1.7-4.2 0-1.5.5-2.8 1.5-4 1-1.1 2.3-1.8 3.8-1.9.2-1.7.9-3.1 2.2-4.3s2.8-1.7 4.5-1.7 3.2.6 4.5 1.7 2 2.6 2.2 4.3z"/></g><g class="st1"><path class="st2" d="M219.2 452.7c1.5.2 2.8.8 3.8 1.9s1.5 2.4 1.5 4-.6 3-1.7 4.2c-1.2 1.2-2.6 1.7-4.2 1.7h-4.8l2.9-3.6c.5-.6.7-1.2.4-1.6-.2-.5-.7-.7-1.6-.7H214v-3c0-.4-.1-.8-.4-1.1-.3-.3-.6-.4-1.1-.4-.4 0-.8.1-1.1.4-.3.3-.4.6-.4 1.1v3h-1.5c-.8 0-1.3.2-1.6.7-.2.5-.1 1 .4 1.6l2.9 3.6h-4.8c-1.6 0-3-.6-4.2-1.7-1.2-1.2-1.7-2.6-1.7-4.2 0-1.5.5-2.8 1.5-4 1-1.1 2.3-1.8 3.8-1.9.2-1.7.9-3.1 2.2-4.3 1.3-1.2 2.8-1.7 4.5-1.7s3.2.6 4.5 1.7c1.3 1.2 2 2.6 2.2 4.3z"/></g><g class="st1"><path class="st2" d="M21.2 273.7c1.5.2 2.8.8 3.8 1.9 1 1.1 1.5 2.4 1.5 4s-.6 3-1.7 4.2c-1.2 1.2-2.6 1.7-4.2 1.7h-4.8l2.9-3.6c.5-.6.7-1.2.4-1.6-.2-.5-.7-.7-1.6-.7H16v-3c0-.4-.1-.8-.4-1.1-.3-.3-.6-.4-1.1-.4s-.8.1-1.1.4c-.3.3-.4.6-.4 1.1v3h-1.5c-.8 0-1.3.2-1.6.7-.2.5-.1 1 .4 1.6l2.9 3.6H8.6c-1.6 0-3-.6-4.2-1.7-1.2-1.2-1.7-2.6-1.7-4.2 0-1.5.5-2.8 1.5-4s2.3-1.8 3.8-1.9c.2-1.7.9-3.1 2.2-4.3s2.8-1.7 4.5-1.7 3.2.6 4.5 1.7 1.8 2.6 2 4.3z"/></g><g class="st1"><path class="st2" d="M287.2 274.7c1.5.2 2.8.8 3.8 1.9 1 1.1 1.5 2.4 1.5 4s-.6 3-1.7 4.2c-1.2 1.2-2.6 1.7-4.2 1.7h-4.8l2.9-3.6c.5-.6.7-1.2.4-1.6-.2-.5-.7-.7-1.6-.7H282v-3c0-.4-.1-.8-.4-1.1-.3-.3-.6-.4-1.1-.4s-.8.1-1.1.4c-.3.3-.4.6-.4 1.1v3h-1.5c-.8 0-1.3.2-1.6.7-.2.5-.1 1 .4 1.6l2.9 3.6h-4.8c-1.6 0-3-.6-4.2-1.7-1.2-1.2-1.7-2.6-1.7-4.2 0-1.5.5-2.8 1.5-4 1-1.1 2.3-1.8 3.8-1.9.2-1.7.9-3.1 2.2-4.3 1.3-1.2 2.8-1.7 4.5-1.7s3.2.6 4.5 1.7 2 2.6 2.2 4.3z"/></g><g class="st1"><path class="st2" d="M314.4 182.7c2.3 0 4.2.8 5.8 2.4s2.4 3.6 2.4 5.8v24.7c0 2.3-.8 4.2-2.4 5.8s-3.6 2.4-5.8 2.4h-41.2c-2.3 0-4.2-.8-5.8-2.4-1.6-1.6-2.4-3.6-2.4-5.8V191c0-2.3.8-4.2 2.4-5.8 1.6-1.6 3.6-2.4 5.8-2.4h4.1v-8.2c0-4.6 1.6-8.4 4.8-11.7 3.2-3.2 7.1-4.8 11.7-4.8s8.4 1.6 11.7 4.8c3.2 3.2 4.8 7.1 4.8 11.7v8.2h4.1zm-12.4 0v-8.2c0-2.3-.8-4.2-2.4-5.8-1.6-1.6-3.6-2.4-5.8-2.4-2.3 0-4.2.8-5.8 2.4-1.6 1.6-2.4 3.6-2.4 5.8v8.2H302zm-2.4 33l-2.4-11.2c1.1-.6 2.1-1.5 2.7-2.6.7-1.1 1-2.4 1-3.7 0-2-.7-3.7-2.1-5.1-1.4-1.4-3.1-2.1-5.1-2.1-2 0-3.7.7-5.1 2.1-1.4 1.4-2.1 3.1-2.1 5.1 0 1.3.3 2.6 1 3.7s1.6 2 2.7 2.6l-2.3 11.2h11.7z"/></g><g class="st1"><path class="st2" d="M324.3 123.9l.9.9c.6.6 1.1 1.4 1.3 2.3.2.9.2 1.7 0 2.6-.2.9-.7 1.6-1.3 2.3l-3.6 3.6c-.5.5-1 .8-1.6 1.1-.6.2-1.3.4-1.9.4-.7 0-1.3-.1-1.9-.4-.6-.2-1.2-.6-1.6-1.1l-.9-.9c-.6-.6-1.1-1.4-1.3-2.3-.2-.9-.2-1.7 0-2.6.2-.9.7-1.6 1.3-2.3l2-2c0 1.1.2 2.1.6 3l-.8.8c-.5.5-.7 1.1-.7 1.8s.2 1.3.7 1.8l.9.9c.5.5 1.1.7 1.8.7s1.3-.2 1.8-.7l3.6-3.6c.5-.5.7-1.1.7-1.8s-.2-1.3-.7-1.8l-.9-.9c-.1-.1-.3-.3-.5-.4l1.7-1.7c.1 0 .2.1.4.3zm1.8-6.8c1.4 0 2.6.5 3.6 1.5l.9.9c1 1 1.5 2.2 1.5 3.6s-.5 2.6-1.5 3.6l-2 2c0-1.1-.1-2.1-.6-3l.8-.8c.5-.5.7-1.1.7-1.8s-.2-1.3-.7-1.8l-.9-.9c-.5-.5-1.1-.7-1.8-.7s-1.3.2-1.8.7l-3.6 3.6c-.5.5-.7 1.1-.7 1.8s.2 1.3.7 1.8l.9.9c.1.1.3.2.5.4l-1.7 1.7c-.3-.3-.5-.4-.5-.4l-.9-.9c-1-1-1.5-2.2-1.5-3.6s.5-2.6 1.5-3.6l3.6-3.6c.5-.5 1-.8 1.6-1.1.6-.2 1.2-.3 1.9-.3z"/></g><g class="st1"><path class="st2" d="M328.5 100.3l1.3 1.1c.1.1.2.2.2.3 0 .1 0 .3-.1.4l-.9 1.6c-.1.1-.2.2-.3.2h-.4l-1.6-.6c-.5.5-1.1.8-1.8 1l-.3 1.7c0 .1-.1.2-.2.3-.1.1-.2.1-.3.1h-1.8c-.1 0-.2 0-.4-.1-.1-.1-.2-.2-.2-.3l-.3-1.7c-.7-.2-1.3-.6-1.8-1l-1.6.6h-.4c-.1 0-.2-.1-.3-.2l-.9-1.6c-.1-.1-.1-.2-.1-.4 0-.1.1-.2.2-.3l1.3-1.1c-.1-.4-.1-.7-.1-1.1s0-.7.1-1.1l-1.3-1.1c-.1-.1-.2-.2-.2-.3 0-.1 0-.3.1-.4l.9-1.6c.1-.1.2-.2.3-.2h.4l1.6.6c.5-.5 1.1-.8 1.8-1l.3-1.7c0-.1.1-.2.2-.3.1-.1.2-.1.4-.1h1.8c.1 0 .2 0 .3.1.1.1.2.2.2.3l.3 1.7c.7.2 1.3.6 1.8 1l1.6-.6h.4c.1 0 .2.1.3.2l.9 1.6c.1.1.1.2.1.4 0 .1-.1.2-.2.3l-1.3 1.1c.1.4.1.7.1 1.1s0 .7-.1 1.1zm-5.3 1.7c.8 0 1.4-.3 1.9-.8s.8-1.2.8-1.9a2.732 2.732 0 00-2.7-2.7c-.8 0-1.4.3-1.9.8s-.8 1.2-.8 1.9.3 1.4.8 1.9 1.1.8 1.9.8z"/></g><path class="st0" d="M313.6 170l7.4 7.8-3.5-7.8h-3.9zm4.8 0l3.4 7.7 3.4-7.7h-6.8zm11.3 0h-3.6l-3.5 7.8 7.1-7.8zm-10.9-.9h6.1l-3-3.2-3.1 3.2zm8.3-3.5h-4.4l3 3.2 1.4-3.2zm-10.6 0l1.4 3.3 3.1-3.3h-4.5zm13.2 3.5l-1.9-2.9-1.3 2.9h3.2zm-15.9 0h3.2l-1.3-2.8-1.9 2.8zm1.8-4h12.3l3.1 4.6-9.3 9.9-9.3-9.8 3.2-4.7z"/><g class="st1"><path class="st2" d="M259.3 214.9c1 .1 1.8.5 2.5 1.3.7.7 1 1.6 1 2.6 0 1.1-.4 2-1.1 2.8-.8.8-1.7 1.1-2.8 1.1H256v-1.9h1c.5 0 .9-.1 1-.4.1-.3 0-.7-.3-1.1l-2.1-2.6c-.2-.2-.4-.3-.6-.3-.2 0-.4.1-.6.3l-2.1 2.6c-.3.4-.4.8-.3 1.1.1.3.5.4 1 .4h1v1.9h-2.9c-1.1 0-2-.4-2.8-1.1-.8-.8-1.1-1.7-1.1-2.8 0-1 .3-1.9 1-2.6.7-.7 1.5-1.2 2.5-1.3.1-1.1.6-2.1 1.4-2.8.8-.8 1.8-1.1 2.9-1.1 1.1 0 2.1.4 2.9 1.1.9.8 1.3 1.7 1.4 2.8z"/></g><path class="st0" d="M226.4 184.3c.1-.2.4-1.1-.1-2.3 0 0-.7-.2-2.4.9-.7-.2-1.4-.2-2.2-.2-.7 0-1.5 0-2.2.2-1.6-1.1-2.4-.9-2.4-.9-.5 1.2-.2 2.1-.1 2.3-.6.6-.9 1.4-.9 2.3 0 3.6 2.3 4.4 5.5 4.4s5.6-.8 5.6-4.4c.1-.9-.3-1.7-.8-2.3zm-4.7 6c-2.3 0-4.1-.1-4.1-2.3 0-.5.3-1 .7-1.4.7-.7 2-.3 3.4-.3s2.7-.4 3.4.3c.4.4.7.9.7 1.4.1 2.2-1.8 2.3-4.1 2.3zm-1.7-3.4c-.5 0-.8.6-.8 1.2 0 .7.4 1.2.8 1.2.5 0 .8-.6.8-1.2 0-.7-.3-1.2-.8-1.2zm3.5 0c-.5 0-.8.6-.8 1.2s.4 1.2.8 1.2c.5 0 .8-.6.8-1.2 0-.7-.4-1.2-.8-1.2z"/><g class="st1"><path class="st2" d="M187.4 203.6c-.4-.4-.6-.9-.6-1.5s.2-1.1.6-1.5l5.1-5.1c-.9-1.5-1.4-3.2-1.4-5 0-1.3.2-2.5.7-3.7.5-1.2 1.2-2.2 2-3 .8-.8 1.8-1.5 3-2s2.4-.7 3.7-.7c1.3 0 2.5.2 3.7.7 1.2.5 2.2 1.2 3 2 .8.8 1.5 1.8 2 3s.7 2.4.7 3.7c0 1.3-.2 2.5-.7 3.7-.5 1.2-1.2 2.2-2 3-.8.8-1.8 1.5-3 2s-2.4.7-3.7.7c-1.8 0-3.4-.5-5-1.4l-5.1 5.1c-.4.4-1 .6-1.5.6-.6 0-1.1-.2-1.5-.6zm8.1-16.1c-.5.9-.8 1.9-.8 2.9 0 1.1.3 2 .8 2.9s1.2 1.6 2.1 2.1c.9.5 1.9.8 2.9.8.8 0 1.5-.2 2.3-.5.7-.3 1.3-.7 1.9-1.2s.9-1.1 1.2-1.9c.3-.7.5-1.5.5-2.3 0-.8-.2-1.5-.5-2.3-.3-.7-.7-1.3-1.2-1.9s-1.1-.9-1.9-1.2c-.7-.3-1.5-.5-2.3-.5-1.1 0-2 .3-2.9.8-.9.7-1.6 1.4-2.1 2.3z"/></g><g class="st1"><path class="st2" d="M202.5 213.9l1.7 1.4c.1.1.2.2.2.4s0 .3-.1.5l-1.2 2.1c-.1.1-.2.2-.4.3s-.3.1-.5 0l-2.1-.7c-.7.6-1.5 1.1-2.4 1.4l-.4 2.2c0 .2-.1.3-.2.4s-.3.2-.4.2h-2.4c-.2 0-.3-.1-.5-.2s-.2-.3-.2-.4l-.4-2.2c-.9-.3-1.7-.8-2.4-1.4l-2.1.7c-.2.1-.3.1-.5 0s-.3-.2-.4-.3l-1.2-2.1c-.1-.1-.1-.3-.1-.5s.1-.3.2-.4l1.7-1.4c-.1-.5-.1-.9-.1-1.4s0-.9.1-1.4l-1.7-1.4c-.1-.1-.2-.2-.2-.4s0-.3.1-.5l1.2-2.1c.1-.1.2-.2.4-.3s.3-.1.5 0l2.1.7c.7-.6 1.5-1.1 2.4-1.4l.4-2.2c0-.2.1-.3.2-.4s.3-.2.5-.2h2.4c.2 0 .3.1.4.2s.2.3.2.4l.4 2.2c.9.3 1.7.8 2.4 1.4l2.1-.7c.2-.1.3-.1.5 0s.3.2.4.3l1.2 2.1c.1.1.1.3.1.5s-.1.3-.2.4l-1.7 1.4c.1.5.1 1 .1 1.4s0 .9-.1 1.4zm-7 2.2c1 0 1.8-.3 2.5-1s1-1.5 1-2.5-.3-1.8-1-2.5-1.5-1-2.5-1-1.8.3-2.5 1-1 1.5-1 2.5.3 1.8 1 2.5c.7.6 1.5 1 2.5 1z"/></g><g class="st1"><path class="st2" d="M178.5 189.3c-2.5-1.1-5.2-1.6-8-1.6s-5.5.5-8 1.6-4.7 2.6-6.7 4.5l-3.9-3.9c2.4-2.4 5.2-4.3 8.4-5.7 3.2-1.4 6.6-2 10.1-2s6.9.7 10.1 2c3.2 1.4 6 3.2 8.4 5.7l-3.9 3.9c-1.8-2-4-3.4-6.5-4.5zm-14.4 4c2-.8 4.1-1.3 6.3-1.3s4.3.4 6.3 1.3c2 .8 3.8 2 5.3 3.5l-3.9 3.9c-1-1-2.2-1.8-3.5-2.4-1.3-.6-2.7-.8-4.2-.8s-2.9.3-4.2.8c-1.3.6-2.5 1.3-3.5 2.4l-3.9-3.9c1.6-1.5 3.3-2.6 5.3-3.5zm6.3 8.6c1.8 0 3.4.6 4.6 1.9l-3.1 3.1c-.4.4-.9.6-1.5.6s-1.1-.2-1.5-.6l-3.1-3.1c1.3-1.3 2.9-1.9 4.6-1.9z"/></g><g class="st1"><path class="st2" d="M142.2 186.9l.9.9c.6.6 1.1 1.4 1.3 2.3.2.9.2 1.7 0 2.6s-.7 1.6-1.3 2.3l-3.6 3.6c-.5.5-1 .8-1.7 1.1-.6.3-1.3.4-1.9.4s-1.3-.1-1.9-.4c-.6-.3-1.2-.6-1.7-1.1l-.9-.9c-.6-.6-1.1-1.4-1.3-2.3-.2-.9-.2-1.7 0-2.6.2-.9.7-1.6 1.3-2.3l2-2c0 1.1.2 2.1.6 3l-.8.8c-.5.5-.7 1.1-.7 1.8s.2 1.3.7 1.8l.9.9c.5.5 1.1.7 1.8.7s1.3-.2 1.8-.7l3.6-3.6c.5-.5.7-1.1.7-1.8s-.2-1.3-.7-1.8l-.9-.9c-.1-.1-.3-.3-.5-.4l1.8-1.7c.2 0 .4.2.5.3zm1.8-6.8c1.4 0 2.6.5 3.6 1.5l.9.9c1 1 1.5 2.2 1.5 3.6s-.5 2.6-1.5 3.6l-2 2c0-1.1-.1-2.1-.6-3l.8-.8c.5-.5.7-1.1.7-1.8s-.2-1.3-.7-1.8l-.9-.9c-.5-.5-1.1-.7-1.8-.7s-1.3.2-1.8.7l-3.6 3.6c-.5.5-.7 1.1-.7 1.8s.2 1.3.7 1.8l.9.9c.1.1.3.2.5.4l-1.7 1.7c-.3-.3-.5-.4-.5-.4l-.9-.9c-1-1-1.5-2.2-1.5-3.6s.5-2.6 1.5-3.6l3.6-3.6c.5-.5 1-.8 1.7-1.1.5-.2 1.2-.3 1.8-.3z"/></g><g class="st1"><path class="st2" d="M132.7 203.5c1.4.2 2.6.8 3.6 1.8 1 1.1 1.4 2.3 1.4 3.7 0 1.6-.6 2.9-1.7 4s-2.4 1.7-4 1.7h-4.2v-2.8h1.4c.8 0 1.3-.2 1.5-.6.2-.4.1-1-.4-1.6l-3-3.7c-.2-.3-.5-.5-.9-.5-.3 0-.6.2-.9.5l-3 3.7c-.5.6-.6 1.1-.4 1.6.2.4.7.6 1.5.6h1.4v2.8h-4.2c-1.6 0-2.9-.6-4-1.7s-1.7-2.4-1.7-4c0-1.4.5-2.7 1.4-3.7 1-1.1 2.1-1.7 3.6-1.8.2-1.6.8-3 2-4.1 1.2-1.1 2.6-1.6 4.2-1.6s3 .5 4.2 1.6c1.4 1.1 2.1 2.5 2.2 4.1z"/></g><g class="st1"><path class="st2" d="M343.5 211.3c1.8 0 3.4-.4 5-1.2s2.8-1.9 3.9-3.2h7.6c-1.3 3.3-3.5 6-6.5 8-3 2.1-6.3 3.1-10 3.1-4.1 0-7.8-1.3-11.1-3.9l-3.4 3.4c-.4.4-.8.6-1.4.6s-1-.2-1.4-.6c-.4-.4-.6-.8-.6-1.4v-11.7c0-.5.2-1 .6-1.4.4-.4.8-.6 1.4-.6h11.7c.5 0 1 .2 1.4.6.4.4.6.8.6 1.4 0 .6-.2 1-.6 1.4l-3.6 3.6c1.9 1.3 4 1.9 6.4 1.9zm15.8-28.9c.5 0 1 .2 1.4.6.4.4.6.8.6 1.4V196c0 .5-.2 1-.6 1.4-.4.4-.8.6-1.4.6h-11.7c-.5 0-1-.2-1.4-.6-.4-.4-.6-.8-.6-1.4 0-.6.2-1 .6-1.4l3.6-3.6c-1.9-1.3-4-2-6.4-2-1.8 0-3.4.4-5 1.2s-2.8 1.9-3.9 3.2H327c1.3-3.3 3.5-6 6.5-8 3-2.1 6.3-3.1 10-3.1 4.1 0 7.8 1.3 11.1 3.9l3.4-3.4c.3-.2.8-.4 1.3-.4z"/></g><g class="st1"><path class="st2" d="M99.7 313.5c1.4.2 2.6.8 3.6 1.8 1 1.1 1.4 2.3 1.4 3.7 0 1.6-.6 2.9-1.7 4s-2.4 1.7-4 1.7h-4.2v-2.8h1.4c.8 0 1.3-.2 1.5-.6.2-.4.1-1-.4-1.6l-3-3.7c-.2-.3-.5-.5-.9-.5-.3 0-.6.2-.9.5l-3 3.7c-.5.6-.6 1.1-.4 1.6.2.4.7.6 1.5.6H92v2.8h-4.2c-1.6 0-2.9-.6-4-1.7s-1.7-2.4-1.7-4c0-1.4.5-2.7 1.4-3.7 1-1.1 2.1-1.7 3.6-1.8.2-1.6.8-3 2-4.1 1.2-1.1 2.6-1.6 4.2-1.6s3 .5 4.2 1.6c1.4 1.1 2.1 2.5 2.2 4.1z"/></g><g class="st1"><path class="st2" d="M140.9 457.2c1.1 0 2.1.4 2.9 1.2.8.8 1.2 1.8 1.2 2.9v12.5c0 1.1-.4 2.1-1.2 2.9-.8.8-1.8 1.2-2.9 1.2h-20.8c-1.1 0-2.1-.4-2.9-1.2-.8-.8-1.2-1.8-1.2-2.9v-12.5c0-1.1.4-2.1 1.2-2.9.8-.8 1.8-1.2 2.9-1.2h2.1V453c0-2.3.8-4.2 2.4-5.9 1.6-1.6 3.6-2.4 5.9-2.4 2.3 0 4.2.8 5.9 2.4 1.6 1.6 2.4 3.6 2.4 5.9h-4.2c0-1.1-.4-2.1-1.2-2.9-.8-.8-1.8-1.2-2.9-1.2s-2.1.4-2.9 1.2c-.8.8-1.2 1.8-1.2 2.9v4.2h14.5zm-7.5 16.6l-1.2-5.6c.6-.3 1-.8 1.4-1.3s.5-1.2.5-1.9c0-1-.4-1.9-1.1-2.6-.7-.7-1.6-1.1-2.6-1.1s-1.8.4-2.6 1.1c-.7.7-1.1 1.6-1.1 2.6 0 .7.2 1.3.5 1.9.3.6.8 1 1.4 1.3l-1.2 5.6h6z"/></g><path class="st0" d="M96.8 329.6c-7.5 0-13.6 6.1-13.6 13.6s6.1 13.6 13.6 13.6c.6 0 1.2 0 1.8-.1 6.1-.8 10.9-5.6 11.7-11.6.1-.6.1-1.2.1-1.8 0-7.6-6.1-13.7-13.6-13.7zm-12.2 13.6c0-1.8.4-3.5 1.1-5l5.8 16c-4.1-2-6.9-6.2-6.9-11zm13.8 12.1c-.5.1-1 .1-1.6.1-1.2 0-2.4-.2-3.4-.5l1.3-3.9 2.3-6.8 3.8 10.3c0 .1.1.1.1.2-.8.3-1.6.5-2.5.6zm.1-17.9c.7 0 1.4-.1 1.4-.1.7-.1.6-1-.1-1 0 0-2 .2-3.3.2-1.2 0-3.2-.2-3.2-.2-.7 0-.7 1-.1 1 0 0 .6.1 1.3.1l1.9 5.2-2.7 8-4.5-13.2c.7 0 1.4-.1 1.4-.1.7-.1.6-1-.1-1 0 0-2 .2-3.3.2h-.8c2.2-3.3 5.9-5.5 10.2-5.5 3.2 0 6.1 1.2 8.3 3.2h-.2c-1.2 0-2.1 1-2.1 2.2 0 1 .6 1.9 1.2 2.9.5.8 1 1.9 1 3.4 0 1-.3 2.4-.9 3.9l-1.2 4.1-4.2-13.3zm4.5 16.3l1-2.8 2.8-8c.7-1.7.9-3.1.9-4.4 0-.4 0-.9-.1-1.3 1 1.7 1.5 3.7 1.5 5.9 0 .6 0 1.1-.1 1.7-.6 3.8-2.8 7.1-6 8.9zM6.2 315L23 332.6 15 315H6.2zm10.9 0l7.7 17.4 7.7-17.4H17.1zm25.8 0h-8.2l-8 17.6L42.9 315zm-24.8-2h13.8l-6.9-7.2-6.9 7.2zm18.7-7.8h-10l6.9 7.2 3.1-7.2zm-24 0l3.3 7.4 7.1-7.4H12.8zm30.1 7.8l-4.4-6.6-2.9 6.6h7.3zm-36.1 0H14l-2.8-6.5-4.4 6.5zm4-9h28l6.9 10.4-21.1 22.5-21-22.2 7.2-10.7z"/><g class="st1"><path class="st2" d="M14.5 296.3l1.3 1.1c.1.1.2.2.2.3s0 .3-.1.4l-.9 1.6c-.1.1-.2.2-.3.2h-.4l-1.6-.6c-.5.5-1.1.8-1.8 1l-.3 1.7c0 .1-.1.2-.2.3-.1.1-.2.1-.3.1H8.2c-.1 0-.2 0-.4-.1s-.2-.2-.2-.3l-.3-1.7c-.7-.2-1.3-.6-1.8-1l-1.5.6h-.4c-.1 0-.2-.1-.3-.2l-.9-1.6c-.1-.1-.1-.2-.1-.4 0-.1.1-.2.2-.3l1.3-1.1c-.1-.4-.1-.7-.1-1.1 0-.3 0-.7.1-1.1L2.5 293c-.1-.1-.2-.2-.2-.3 0-.1 0-.3.1-.4l.9-1.6c.1-.1.2-.2.3-.2H4l1.6.6c.5-.5 1.1-.8 1.8-1l.3-1.7c0-.1.1-.2.2-.3s.2-.1.4-.1h1.8c.1 0 .2 0 .3.1.1.1.2.2.2.3l.3 1.7c.7.2 1.3.6 1.8 1l1.6-.6h.4c.1 0 .2.1.3.2l.9 1.6c.1.1.1.2.1.4 0 .1-.1.2-.2.3l-1.3 1.1c.1.4.1.7.1 1.1 0 .4 0 .7-.1 1.1zM9.2 298c.8 0 1.4-.3 1.9-.8s.8-1.2.8-1.9c0-.8-.3-1.4-.8-1.9s-1.2-.8-1.9-.8c-.8 0-1.4.3-1.9.8s-.8 1.2-.8 1.9c0 .8.3 1.4.8 1.9s1.1.8 1.9.8z"/></g><path class="st0" d="M53.9 251c-3.8 0-6.9-1-6.9-2.3v-2.3c0-.2.1-.4.2-.6.8 1 3.4 1.7 6.6 1.7s5.9-.7 6.6-1.7c.1.2.2.4.2.6v2.3c.1 1.3-3 2.3-6.7 2.3zm0-4.6c-3.8 0-6.9-1-6.9-2.3v-2.3c0-.1 0-.2.1-.4 0-.1.1-.1.1-.2.8 1 3.4 1.7 6.6 1.7s5.9-.7 6.6-1.7c.1.1.1.1.1.2.1.1.1.2.1.4v2.3c.1 1.3-3 2.3-6.7 2.3zm0-4.5c-3.8 0-6.9-1-6.9-2.3v-2.2c0-1.3 3.1-2.3 6.9-2.3 3.8 0 6.9 1 6.9 2.3v2.2c-.1 1.2-3.2 2.3-6.9 2.3zm0-5.8c-2.5 0-4.6.5-4.6 1.1 0 .6 2 1.1 4.6 1.1 2.5 0 4.6-.5 4.6-1.1-.1-.5-2.1-1.1-4.6-1.1z"/><g class="st1"><path class="st2" d="M31 297c.7 0 1.4-.2 2.1-.5.6-.3 1.2-.8 1.6-1.3h3.2c-.6 1.4-1.5 2.5-2.7 3.3-1.2.8-2.6 1.3-4.1 1.3-1.7 0-3.2-.5-4.6-1.6l-1.4 1.4c-.2.2-.3.2-.6.2s-.4-.1-.6-.2-.2-.3-.2-.6v-4.8c0-.2.1-.4.2-.6s.3-.2.6-.2h4.8c.2 0 .4.1.6.2s.2.3.2.6c0 .2-.1.4-.2.6l-1.5 1.5c.8.4 1.7.7 2.6.7zm6.6-12c.2 0 .4.1.6.2s.2.3.2.6v4.8c0 .2-.1.4-.2.6s-.3.2-.6.2h-4.8c-.2 0-.4-.1-.6-.2-.2-.2-.2-.3-.2-.6 0-.2.1-.4.2-.6l1.5-1.5c-.8-.6-1.7-.8-2.6-.8-.7 0-1.4.2-2.1.5s-1.2.8-1.6 1.3h-3.2c.6-1.4 1.5-2.5 2.7-3.3 1.2-.8 2.6-1.3 4.1-1.3 1.7 0 3.2.5 4.6 1.6l1.4-1.4c.2 0 .4-.1.6-.1z"/></g><g class="st1"><path class="st2" d="M109.4 303.6c-.4-.4-.6-.9-.6-1.5s.2-1.1.6-1.5l5.1-5.1c-.9-1.5-1.4-3.2-1.4-5 0-1.3.2-2.5.7-3.7.5-1.2 1.2-2.2 2-3 .8-.8 1.8-1.5 3-2s2.4-.7 3.7-.7c1.3 0 2.5.2 3.7.7 1.2.5 2.2 1.2 3 2 .8.8 1.5 1.8 2 3s.7 2.4.7 3.7-.2 2.5-.7 3.7c-.5 1.2-1.2 2.2-2 3-.8.8-1.8 1.5-3 2s-2.4.7-3.7.7c-1.8 0-3.4-.5-5-1.4l-5.1 5.1c-.4.4-1 .6-1.5.6s-1.1-.2-1.5-.6zm8.1-16.1c-.5.9-.8 1.9-.8 2.9s.3 2 .8 2.9c.5.9 1.2 1.6 2.1 2.1.9.5 1.9.8 2.9.8.8 0 1.5-.2 2.3-.5.7-.3 1.3-.7 1.9-1.2.5-.5.9-1.1 1.2-1.9.3-.7.5-1.5.5-2.3 0-.8-.2-1.5-.5-2.3-.3-.7-.7-1.3-1.2-1.9-.5-.5-1.1-.9-1.9-1.2s-1.5-.5-2.3-.5c-1.1 0-2 .3-2.9.8-.9.7-1.6 1.4-2.1 2.3z"/></g><g class="st1"><path class="st2" d="M109.4 276.6c-1.6-.7-3.2-1-5-1-1.8 0-3.4.3-5 1s-3 1.6-4.2 2.8l-2.4-2.4c1.5-1.5 3.3-2.7 5.2-3.5 2-.8 4.1-1.3 6.3-1.3s4.3.4 6.3 1.3c2 .8 3.7 2 5.2 3.5l-2.4 2.4c-1-1.2-2.4-2.1-4-2.8zm-8.9 2.5c1.2-.5 2.6-.8 3.9-.8 1.4 0 2.7.3 3.9.8s2.3 1.3 3.3 2.2l-2.4 2.4c-.6-.6-1.4-1.1-2.2-1.5-.8-.4-1.7-.5-2.6-.5-.9 0-1.8.2-2.6.5s-1.6.8-2.2 1.5l-2.4-2.4c1-.9 2.1-1.6 3.3-2.2zm3.9 5.4c1.1 0 2.1.4 2.9 1.2l-1.9 1.9c-.3.3-.6.4-1 .4s-.7-.1-1-.4l-1.9-1.9c.9-.8 1.8-1.2 2.9-1.2z"/></g><g class="st1"><path class="st2" d="M141 230.5l2.1 1.8c.2.1.2.3.3.5 0 .2 0 .4-.1.6l-1.5 2.5c-.1.2-.3.3-.5.4-.2.1-.4.1-.6 0l-2.6-.9c-.9.8-1.9 1.3-3 1.7l-.5 2.7c0 .2-.1.4-.3.5-.2.1-.4.2-.6.2h-2.9c-.2 0-.4-.1-.6-.2-.2-.1-.3-.3-.3-.5l-.5-2.7c-1.1-.4-2.1-.9-3-1.7l-2.6.9c-.2.1-.4.1-.6 0-.2-.1-.4-.2-.5-.4l-1.5-2.5c-.1-.2-.1-.4-.1-.6 0-.2.1-.4.3-.5l2.1-1.8c-.1-.6-.2-1.1-.2-1.7s.1-1.1.2-1.7l-2.1-1.8c-.2-.1-.2-.3-.3-.5 0-.2 0-.4.1-.6l1.5-2.5c.1-.2.3-.3.5-.4.2-.1.4-.1.6 0l2.6.9c.9-.8 1.9-1.3 3-1.7l.5-2.7c0-.2.1-.4.3-.5.2-.1.4-.2.6-.2h2.9c.2 0 .4.1.6.2.2.1.3.3.3.5l.5 2.7c1.1.4 2.1.9 3 1.7l2.6-.9c.2-.1.4-.1.6 0 .2.1.4.2.5.4l1.5 2.5c.1.2.1.4.1.6 0 .2-.1.4-.3.5L141 227c.1.6.2 1.2.2 1.7 0 .6-.1 1.2-.2 1.8zm-8.6 2.7c1.2 0 2.3-.4 3.1-1.3.9-.9 1.3-1.9 1.3-3.1 0-1.2-.4-2.3-1.3-3.1-.9-.9-1.9-1.3-3.1-1.3-1.2 0-2.3.4-3.1 1.3s-1.3 1.9-1.3 3.1c0 1.2.4 2.3 1.3 3.1s1.8 1.3 3.1 1.3z"/></g><path class="st0" d="M182.2 234.5c1.3 0 2.6.4 3.9.9 1.3.6 2.1 1.5 2.8 2.6.7 1.1 1.1 2.4 1.1 3.7 0 .4-.2.6-.4.9s-.6.2-.9.2h-12.9c-.4 0-.7-.2-.9-.4-.2-.2-.4-.6-.4-.9 0-1.3.4-2.4 1.1-3.6.7-1.1 1.5-1.9 2.8-2.6 1.4-.6 2.5-.8 3.8-.8zm2.7-2.4c-.7.7-1.7 1.1-2.6 1.1-.9 0-1.9-.4-2.4-1.1-.6-.7-.9-1.5-.9-2.4v-2.4c0-.9.4-1.9 1.1-2.4.7-.6 1.5-1.1 2.4-1.1.9 0 1.9.4 2.4 1.1.6.7 1.1 1.5 1.1 2.4v2.2c-.2 1.1-.6 1.9-1.1 2.6zm4.4-.9c1.1 0 2.1.2 3 .6.9.4 1.7.9 2.4 1.5s1.3 1.5 1.7 2.2c.4.7.6 1.9.6 2.8 0 .4-.2.6-.4.7s-.6.2-.9.2h-4.5c-.4-1.1-1.1-2.4-2.2-3.4-1.1-.9-2.2-1.9-3.7-2.2.6-.6 1.1-1.1 1.5-1.9.9-.3 1.6-.5 2.5-.5zm-2-2.1v-1.9c0-1.3-.4-2.4-1.3-3.4 0-.9.4-1.7 1.1-2.4.7-.7 1.3-.9 2.2-.9.9 0 1.9.4 2.4 1.1.6.7 1.1 1.5 1.1 2.4v2.2c0 .9-.4 1.9-1.1 2.4s-1.5 1.1-2.4 1.1c-.7.2-1.5 0-2-.6zm-37.8-8.9c-5.2 0-9.5-1.4-9.5-3.2v-3.2c0-.3.1-.5.3-.8 1.1 1.4 4.7 2.4 9.2 2.4s8.1-1 9.2-2.4c.2.3.3.5.3.8v3.2c0 1.7-4.3 3.2-9.5 3.2zm0-6.4c-5.2 0-9.5-1.4-9.5-3.2v-3.2c0-.2.1-.3.1-.5 0-.1.1-.2.2-.3 1.1 1.4 4.7 2.4 9.2 2.4s8.1-1 9.2-2.4c.1.1.1.2.2.3.1.2.1.3.1.5v3.2c0 1.8-4.3 3.2-9.5 3.2zm0-6.3c-5.2 0-9.5-1.4-9.5-3.2v-3.2c0-1.7 4.3-3.2 9.5-3.2s9.5 1.4 9.5 3.2v3.2c0 1.8-4.3 3.2-9.5 3.2zm0-7.9c-3.5 0-6.3.7-6.3 1.6s2.8 1.6 6.3 1.6 6.3-.7 6.3-1.6-2.8-1.6-6.3-1.6z"/><g class="st1"><path class="st2" d="M153.9 224.6c1.4-.6 2.8-.9 4.3-.9s2.9.3 4.3.9 2.6 1.4 3.5 2.4c1 1 1.8 2.2 2.4 3.5.6 1.4.9 2.8.9 4.3s-.3 2.9-.9 4.3c-.6 1.4-1.4 2.6-2.4 3.5s-2.2 1.8-3.5 2.4-2.8.9-4.3.9c-.9 0-1.8-.1-2.7-.3l-1.7 1.7c-.2.2-.5.4-.8.5-.3.1-.6.2-.9.2h-2c-.3 0-.5.1-.7.3-.2.2-.3.4-.3.7v2c0 .3-.1.5-.3.7-.2.2-.4.3-.7.3h-2c-.3 0-.5.1-.7.3-.2.2-.3.4-.3.7v2c0 .3-.1.5-.3.7-.2.2-.4.3-.7.3h-7v-6.8c0-.3.1-.6.2-.9.1-.3.3-.6.5-.8l9.7-9.7c-.3-1-.4-1.9-.4-2.8 0-1.5.3-2.9.9-4.3.6-1.4 1.4-2.6 2.4-3.5 1-1.2 2.1-2 3.5-2.6zm4.2 10.4c.6.6 1.3.9 2.1.9s1.6-.3 2.1-.9.9-1.3.9-2.1-.3-1.6-.9-2.1-1.3-.9-2.1-.9-1.6.3-2.1.9-.9 1.3-.9 2.1.3 1.5.9 2.1z"/></g><path class="st0" d="M170.8 210.3c-4.4.1-7.9 3.8-7.7 8.2.1 4.4 3.8 7.9 8.2 7.7.4 0 .7 0 1-.1 3.5-.6 6.3-3.4 6.7-7 0-.4.1-.7 0-1.1-.1-4.3-3.8-7.8-8.2-7.7zm-6.9 8.2c0-1 .2-2 .5-2.9l3.7 9.3c-2.4-1.2-4.1-3.6-4.2-6.4zm8.3 6.9c-.3 0-.6.1-.9.1-.7 0-1.4-.1-2-.2l.7-2.3 1.2-4 2.4 6s0 .1.1.1c-.5 0-1 .2-1.5.3zm-.2-10.5c.4 0 .8-.1.8-.1.4-.1.3-.6-.1-.6 0 0-1.2.1-1.9.1h-1.9c-.4 0-.4.6 0 .6h.8l1.2 3-1.4 4.7-2.8-7.7c.4 0 .8-.1.8-.1.4-.1.3-.6-.1-.6 0 0-1.2.1-1.9.1h-.5c1.2-2 3.4-3.3 5.9-3.4 1.9 0 3.6.6 4.9 1.7h-.1c-.7 0-1.2.6-1.2 1.3 0 .6.4 1.1.7 1.7.3.5.6 1.1.6 2 0 .6-.1 1.4-.5 2.3l-.7 2.4-2.6-7.4zm2.8 9.5l.5-1.7 1.5-4.7c.4-1 .5-1.8.5-2.6 0-.3 0-.5-.1-.7.6 1 .9 2.2 1 3.4v1c-.3 2.2-1.6 4.1-3.4 5.3zM156.6 253l7.4 7.8-3.5-7.8h-3.9zm4.8 0l3.4 7.7 3.4-7.7h-6.8zm11.3 0h-3.6l-3.5 7.8 7.1-7.8zm-10.9-.9h6.1l-3-3.2-3.1 3.2zm8.3-3.5h-4.4l3 3.2 1.4-3.2zm-10.6 0l1.4 3.3 3.1-3.3h-4.5zm13.2 3.5l-1.9-2.9-1.3 2.9h3.2zm-15.9 0h3.2l-1.3-2.8-1.9 2.8zm1.8-4h12.3l3.1 4.6-9.3 9.9-9.3-9.8 3.2-4.7zm-22.1 17.1c.2-.4.7-2.1-.2-4.4 0 0-1.4-.4-4.6 1.7-1.3-.4-2.7-.4-4.1-.4-1.4 0-2.8.1-4.1.4-3.2-2.2-4.5-1.7-4.5-1.7-.9 2.3-.3 4-.2 4.4-1.1 1.2-1.7 2.6-1.7 4.4 0 6.8 4.4 8.4 10.6 8.4 6.2 0 10.6-1.5 10.6-8.4-.1-1.8-.8-3.2-1.8-4.4zm-8.9 11.5c-4.4 0-7.9-.2-7.9-4.4 0-1 .5-2 1.4-2.7 1.4-1.3 3.8-.6 6.6-.6 2.7 0 5.1-.7 6.6.6.9.8 1.4 1.7 1.4 2.7-.2 4.2-3.7 4.4-8.1 4.4zm-3.3-6.6c-.9 0-1.6 1.1-1.6 2.4s.7 2.4 1.6 2.4c.9 0 1.6-1.1 1.6-2.4s-.8-2.4-1.6-2.4zm6.6 0c-.9 0-1.6 1.1-1.6 2.4 0 1.3.7 2.4 1.6 2.4s1.6-1.1 1.6-2.4c0-1.4-.7-2.4-1.6-2.4zm224.6-.1c-14.6 0-26.5 11.9-26.5 26.5s11.9 26.5 26.5 26.5c1.2 0 2.3-.1 3.4-.2 11.8-1.5 21.2-10.9 22.8-22.6.2-1.2.3-2.4.3-3.6 0-14.7-11.9-26.6-26.5-26.6zm-23.8 26.5c0-3.5.7-6.7 2.1-9.7l11.4 31.1c-8-3.8-13.5-12-13.5-21.4zm26.9 23.6c-1 .1-2 .2-3.1.2-2.3 0-4.6-.3-6.7-1l2.6-7.6 4.5-13.2 7.3 20.1c.1.1.1.2.2.3-1.5.6-3.2 1-4.8 1.2zm.2-34.8c1.4-.1 2.7-.2 2.7-.2 1.3-.1 1.1-2-.2-2 0 0-3.9.3-6.3.3-2.3 0-6.3-.3-6.3-.3-1.3-.1-1.4 1.9-.1 2 0 0 1.2.2 2.5.2l3.7 10.2-5.2 15.6-8.7-25.8c1.4-.1 2.7-.2 2.7-.2 1.3-.1 1.1-2-.2-2 0 0-3.9.3-6.3.3h-1.5c4.3-6.5 11.6-10.7 19.9-10.7 6.2 0 11.9 2.4 16.1 6.2h-.3c-2.3 0-4 2-4 4.2 0 2 1.1 3.6 2.3 5.6.9 1.6 2 3.6 2 6.6 0 2-.6 4.6-1.8 7.7l-2.4 7.9-8.6-25.6zm8.7 31.8l1.9-5.5 5.4-15.6c1.4-3.4 1.8-6.1 1.8-8.5 0-.9-.1-1.7-.2-2.5 1.9 3.4 2.9 7.3 2.9 11.4 0 1.1-.1 2.2-.2 3.2-1 7.6-5.4 13.9-11.6 17.5z"/><g class="st1"><path class="st2" d="M44.9 354.2c1.4 0 2.6.5 3.6 1.5s1.5 2.2 1.5 3.6v15.5c0 1.4-.5 2.6-1.5 3.6s-2.2 1.5-3.6 1.5H19.1c-1.4 0-2.6-.5-3.6-1.5s-1.5-2.2-1.5-3.6v-15.5c0-1.4.5-2.6 1.5-3.6s2.2-1.5 3.6-1.5h2.6V349c0-2.8 1-5.3 3-7.3s4.4-3 7.3-3 5.3 1 7.3 3 3 4.4 3 7.3h-5.2c0-1.4-.5-2.6-1.5-3.6s-2.2-1.5-3.6-1.5-2.6.5-3.6 1.5-1.5 2.2-1.5 3.6v5.2h18zm-9.2 20.6l-1.5-7c.7-.4 1.3-.9 1.7-1.6.4-.7.6-1.5.6-2.3 0-1.2-.4-2.3-1.3-3.2-.9-.9-1.9-1.3-3.2-1.3-1.2 0-2.3.4-3.2 1.3-.9.9-1.3 1.9-1.3 3.2 0 .8.2 1.6.6 2.3s1 1.3 1.7 1.6l-1.4 7h7.3z"/></g><g class="st1"><path class="st2" d="M40.2 432.7c.9 0 1.7-.2 2.5-.6s1.4-.9 1.9-1.6h3.8c-.7 1.6-1.7 3-3.2 4s-3.2 1.5-5 1.5c-2 0-3.9-.6-5.5-1.9l-1.7 1.7c-.2.2-.4.3-.7.3-.3 0-.5-.1-.7-.3s-.3-.4-.3-.7v-5.8c0-.3.1-.5.3-.7s.4-.3.7-.3h5.8c.3 0 .5.1.7.3s.3.4.3.7c0 .3-.1.5-.3.7l-1.8 1.8c1 .6 2.1.9 3.2.9zm7.8-14.3c.3 0 .5.1.7.3s.3.4.3.7v5.8c0 .3-.1.5-.3.7s-.4.3-.7.3h-5.8c-.3 0-.5-.1-.7-.3s-.3-.4-.3-.7c0-.3.1-.5.3-.7l1.8-1.8c-.9-.7-2-1-3.1-1-.9 0-1.7.2-2.5.6s-1.4.9-1.9 1.6H32c.7-1.6 1.7-3 3.2-4 1.5-1 3.1-1.5 4.9-1.5 2 0 3.9.6 5.5 1.9l1.7-1.7c.2-.1.5-.2.7-.2z"/></g><g class="st1"><path class="st2" d="M297.9 309.9l3.2 2.8c.2.2.4.5.4.8.1.3 0 .6-.2.9l-2.3 4c-.2.3-.4.5-.7.6-.3.1-.6.1-.9 0l-4-1.4c-1.4 1.2-2.9 2.1-4.6 2.6l-.8 4.2c0 .3-.2.6-.5.8-.3.2-.6.3-.9.3H282c-.3 0-.6-.1-.9-.3-.3-.2-.4-.5-.5-.8l-.8-4.2c-1.7-.6-3.2-1.4-4.6-2.6l-4 1.4c-.3.1-.6.1-.9 0-.3-.1-.6-.3-.7-.6l-2.3-4c-.2-.3-.2-.6-.2-.9.1-.3.2-.6.4-.8l3.2-2.8c-.2-.9-.2-1.8-.2-2.7s.1-1.8.2-2.7l-3.2-2.8c-.2-.2-.4-.5-.4-.8-.1-.3 0-.6.2-.9l2.3-4c.2-.3.4-.5.7-.6.3-.1.6-.1.9 0l4 1.4c1.4-1.2 2.9-2.1 4.6-2.6l.8-4.2c0-.3.2-.6.5-.8.3-.2.6-.3.9-.3h4.6c.3 0 .6.1.9.3.3.2.4.5.5.8l.8 4.2c1.7.6 3.2 1.4 4.6 2.6l4-1.4c.3-.1.6-.1.9 0 .3.1.6.3.7.6l2.3 4c.2.3.2.6.2.9-.1.3-.2.6-.4.8l-3.2 2.8c.2 1 .3 1.8.3 2.7 0 .9-.1 1.8-.3 2.7zm-13.4 4.2c1.9 0 3.5-.7 4.8-2 1.3-1.3 2-3 2-4.8 0-1.9-.7-3.5-2-4.8-1.3-1.3-3-2-4.8-2-1.9 0-3.5.7-4.8 2s-2 3-2 4.8c0 1.9.7 3.5 2 4.8 1.3 1.3 2.9 2 4.8 2z"/></g><g class="st1"><path class="st2" d="M264.8 323.1c.5-.2 1-.3 1.5-.3s1 .1 1.5.3.9.5 1.2.8.6.7.8 1.2c.2.5.3 1 .3 1.5s-.1 1-.3 1.5c-.2.5-.5.9-.8 1.2s-.7.6-1.2.8-1 .3-1.5.3c-.3 0-.6 0-.9-.1l-.6.6c-.1.1-.2.1-.3.2-.1 0-.2.1-.3.1h-.7c-.1 0-.2 0-.2.1-.1.1-.1.1-.1.2v.7c0 .1 0 .2-.1.2-.1.1-.1.1-.2.1h-.7c-.1 0-.2 0-.2.1-.1.1-.1.1-.1.2v.7c0 .1 0 .2-.1.2s-.1.1-.2.1h-2.3v-2.4c0-.1 0-.2.1-.3 0-.1.1-.2.2-.3l3.3-3.3c-.1-.3-.1-.6-.1-1 0-.5.1-1 .3-1.5.2-.5.5-.9.8-1.2s.4-.5.9-.7zm1.4 3.5c.2.2.4.3.7.3.3 0 .5-.1.7-.3s.3-.4.3-.7c0-.3-.1-.5-.3-.7s-.4-.3-.7-.3c-.3 0-.5.1-.7.3s-.3.4-.3.7c0 .2.1.5.3.7z"/></g><g class="st1"><path class="st2" d="M119.3 325.4c1.2 0 2.2-.3 3.3-.8 1-.5 1.9-1.2 2.5-2.1h5c-.9 2.2-2.3 3.9-4.3 5.3-2 1.3-4.1 2-6.6 2-2.7 0-5.1-.9-7.3-2.6l-2.2 2.2c-.3.3-.6.4-.9.4-.3 0-.6-.1-.9-.4-.3-.3-.4-.6-.4-.9v-7.7c0-.3.1-.6.4-.9.3-.3.6-.4.9-.4h7.7c.3 0 .6.1.9.4.3.3.4.6.4.9 0 .4-.1.7-.4.9l-2.3 2.3c1.3.9 2.7 1.4 4.2 1.4zm10.4-19c.3 0 .6.1.9.4.3.3.4.6.4.9v7.7c0 .3-.1.6-.4.9-.3.3-.6.4-.9.4H122c-.3 0-.6-.1-.9-.4-.3-.3-.4-.6-.4-.9 0-.4.1-.7.4-.9l2.3-2.3c-1.3-.9-2.6-1.3-4.2-1.3-1.2 0-2.2.3-3.3.8-1 .5-1.9 1.2-2.5 2.1h-5c.9-2.2 2.3-3.9 4.3-5.3 2-1.3 4.1-2 6.6-2 2.7 0 5.1.9 7.3 2.6l2.2-2.2c.3-.4.6-.5.9-.5z"/></g><g class="st1"><path class="st2" d="M104.5 393.3c2.1 0 4.1-.5 6-1.4s3.4-2.3 4.7-3.9h9.2c-1.6 4-4.2 7.2-7.8 9.7s-7.6 3.7-12.1 3.7c-5 0-9.4-1.6-13.4-4.8l-4.1 4.1c-.5.5-1 .7-1.7.7s-1.2-.2-1.7-.7-.7-1-.7-1.7v-14c0-.6.2-1.2.7-1.7s1-.7 1.7-.7h14.1c.6 0 1.2.2 1.7.7s.7 1 .7 1.7-.2 1.2-.7 1.7l-4.3 4.3c2.3 1.5 4.9 2.3 7.7 2.3zm19.1-34.9c.6 0 1.2.2 1.7.7s.7 1 .7 1.7v14.1c0 .6-.2 1.2-.7 1.7s-1 .7-1.7.7h-14.1c-.6 0-1.2-.2-1.7-.7s-.7-1-.7-1.7.2-1.2.7-1.7l4.3-4.3c-2.3-1.6-4.9-2.4-7.7-2.4-2.1 0-4.1.5-6 1.4s-3.4 2.3-4.7 3.9h-9.2c1.6-4 4.2-7.2 7.8-9.7s7.6-3.7 12.1-3.7c5 0 9.4 1.6 13.4 4.8l4.1-4.1c.6-.5 1.1-.7 1.7-.7z"/></g><g class="st1"><path class="st2" d="M112.4 353.6c-.4-.4-.6-.9-.6-1.5s.2-1.1.6-1.5l5.1-5.1c-.9-1.5-1.4-3.2-1.4-5 0-1.3.2-2.5.7-3.7.5-1.2 1.2-2.2 2-3 .8-.8 1.8-1.5 3-2s2.4-.7 3.7-.7c1.3 0 2.5.2 3.7.7 1.2.5 2.2 1.2 3 2 .8.8 1.5 1.8 2 3s.7 2.4.7 3.7-.2 2.5-.7 3.7c-.5 1.2-1.2 2.2-2 3-.8.8-1.8 1.5-3 2s-2.4.7-3.7.7c-1.8 0-3.4-.5-5-1.4l-5.1 5.1c-.4.4-1 .6-1.5.6s-1.1-.2-1.5-.6zm8.1-16.1c-.5.9-.8 1.9-.8 2.9s.3 2 .8 2.9c.5.9 1.2 1.6 2.1 2.1.9.5 1.9.8 2.9.8.8 0 1.5-.2 2.3-.5.7-.3 1.3-.7 1.9-1.2.5-.5.9-1.1 1.2-1.9.3-.7.5-1.5.5-2.3 0-.8-.2-1.5-.5-2.3-.3-.7-.7-1.3-1.2-1.9s-1.1-.9-1.9-1.2c-.7-.3-1.5-.5-2.3-.5-1.1 0-2 .3-2.9.8-.9.7-1.6 1.4-2.1 2.3z"/></g><path class="st0" d="M49.1 444.1l29.2 30.7-13.9-30.7H49.1zm19.1 0l13.4 30.4L95 444.1H68.2zm44.8 0H98.7l-13.9 30.7 28.2-30.7zm-43.2-3.5h23.9l-12-12.5-11.9 12.5zm32.6-13.6H85l11.9 12.5 5.5-12.5zm-41.7 0l5.7 12.9L78.7 427h-18zm52.3 13.6l-7.7-11.5-5.1 11.5H113zm-62.8 0h12.6l-4.9-11.3-7.7 11.3zm7-15.6H106l12.1 18.1-36.7 39.2-36.7-38.7L57.2 425z"/><g class="st1"><path class="st2" d="M312.8 457.4c2.8.3 5.2 1.5 7.1 3.6 1.9 2.1 2.9 4.6 2.9 7.5 0 3.1-1.1 5.7-3.3 7.9-2.2 2.2-4.8 3.3-7.9 3.3h-8.4v-5.6h2.8c1.6 0 2.5-.4 2.9-1.3.4-.9.1-1.9-.8-3.1l-6-7.5c-.5-.6-1.1-.9-1.8-.9s-1.3.3-1.8.9l-6 7.5c-1 1.2-1.2 2.2-.8 3.1.4.9 1.4 1.3 2.9 1.3h2.8v5.6H289c-3.1 0-5.7-1.1-7.9-3.3-2.2-2.2-3.3-4.8-3.3-7.9 0-2.9 1-5.4 2.9-7.5 1.9-2.1 4.3-3.3 7.1-3.6.3-3.2 1.7-5.9 4.1-8.1 2.4-2.2 5.2-3.3 8.4-3.3s6.1 1.1 8.4 3.3c2.4 2.2 3.8 4.9 4.1 8.1z"/></g><g class="st1"><path class="st2" d="M58 476.5v-1.8h1.8v3.6H48.2v-11.6h3.6v1.8H50v8h8zm4.2-12.2c.2.2.3.4.3.7l-.7 6.3c0 .3-.1.5-.3.8-.2.2-.5.3-.8.3-.2 0-.4-.1-.5-.2-.2-.1-.3-.3-.4-.6l-.6-2.4-4.2 4.2c-.3.3-.6.4-1 .4s-.7-.1-1-.4c-.3-.3-.4-.6-.4-1s.1-.7.4-1l4.2-4.2-2.4-.6c-.2-.1-.4-.2-.6-.4-.1-.2-.2-.4-.2-.5 0-.3.1-.5.3-.8s.5-.3.8-.3l6.3-.7c.3.1.6.2.8.4z"/></g><g class="st1"><path class="st2" d="M73.2 359.7c1.5.2 2.8.8 3.8 1.9 1 1.1 1.5 2.4 1.5 4s-.6 3-1.7 4.2c-1.2 1.2-2.6 1.7-4.2 1.7h-4.8l2.9-3.6c.5-.6.7-1.2.4-1.6-.2-.5-.7-.7-1.6-.7H68v-3c0-.4-.1-.8-.4-1.1-.3-.3-.6-.4-1.1-.4s-.8.1-1.1.4c-.3.3-.4.6-.4 1.1v3h-1.5c-.8 0-1.3.2-1.6.7-.2.5-.1 1 .4 1.6l2.9 3.6h-4.8c-1.6 0-3-.6-4.2-1.7-1.2-1.2-1.7-2.6-1.7-4.2 0-1.5.5-2.8 1.5-4s2.3-1.8 3.8-1.9c.2-1.7.9-3.1 2.2-4.3 1.3-1.2 2.8-1.7 4.5-1.7s3.2.6 4.5 1.7 2 2.6 2.2 4.3z"/></g><path class="st0" d="M114.3 409.1c.2-.5.8-2.3-.2-4.8 0 0-1.5-.5-4.9 1.9-1.4-.4-3-.5-4.5-.5s-3.1.1-4.5.5c-3.4-2.3-4.9-1.9-4.9-1.9-1 2.5-.4 4.3-.2 4.8-1.2 1.3-1.9 2.9-1.9 4.8 0 7.4 4.8 9.1 11.5 9.1s11.5-1.7 11.5-9.1c0-1.9-.7-3.5-1.9-4.8zm-9.6 12.5c-4.7 0-8.6-.2-8.6-4.8 0-1.1.5-2.1 1.5-3 1.5-1.4 4.2-.7 7.1-.7 3 0 5.6-.7 7.1.7.9.8 1.5 1.9 1.5 3 0 4.6-3.9 4.8-8.6 4.8zm-3.6-7.2c-1 0-1.7 1.1-1.7 2.6 0 1.4.8 2.6 1.7 2.6 1 0 1.7-1.1 1.7-2.6s-.8-2.6-1.7-2.6zm7.2 0c-1 0-1.7 1.1-1.7 2.6s.8 2.6 1.7 2.6 1.7-1.1 1.7-2.6-.7-2.6-1.7-2.6z"/><g class="st1"><path class="st2" d="M141 403.5l2.1 1.8c.2.1.2.3.3.5 0 .2 0 .4-.1.6l-1.5 2.5c-.1.2-.3.3-.5.4-.2.1-.4.1-.6 0l-2.6-.9c-.9.8-1.9 1.3-3 1.7l-.5 2.7c0 .2-.1.4-.3.5s-.4.2-.6.2h-2.9c-.2 0-.4-.1-.6-.2-.2-.1-.3-.3-.3-.5l-.5-2.7c-1.1-.4-2.1-.9-3-1.7l-2.6.9c-.2.1-.4.1-.6 0-.2-.1-.4-.2-.5-.4l-1.5-2.5c-.1-.2-.1-.4-.1-.6s.1-.4.3-.5l2.1-1.8c-.1-.6-.2-1.1-.2-1.7 0-.6.1-1.1.2-1.7l-2.1-1.8c-.2-.1-.2-.3-.3-.5 0-.2 0-.4.1-.6l1.5-2.5c.1-.2.3-.3.5-.4.2-.1.4-.1.6 0l2.6.9c.9-.8 1.9-1.3 3-1.7l.5-2.7c0-.2.1-.4.3-.5.2-.1.4-.2.6-.2h2.9c.2 0 .4.1.6.2s.3.3.3.5l.5 2.7c1.1.4 2.1.9 3 1.7l2.6-.9c.2-.1.4-.1.6 0 .2.1.4.2.5.4l1.5 2.5c.1.2.1.4.1.6 0 .2-.1.4-.3.5L141 400c.1.6.2 1.2.2 1.7 0 .6-.1 1.2-.2 1.8zm-8.6 2.7c1.2 0 2.3-.4 3.1-1.3.9-.9 1.3-1.9 1.3-3.1 0-1.2-.4-2.3-1.3-3.1-.9-.9-1.9-1.3-3.1-1.3-1.2 0-2.3.4-3.1 1.3s-1.3 1.9-1.3 3.1c0 1.2.4 2.3 1.3 3.1.8.8 1.8 1.3 3.1 1.3z"/></g><g class="st1"><path class="st2" d="M322.7 433.5c1.4.2 2.6.8 3.6 1.8 1 1.1 1.4 2.3 1.4 3.7 0 1.6-.6 2.9-1.7 4s-2.4 1.7-4 1.7h-4.2v-2.8h1.4c.8 0 1.3-.2 1.5-.6.2-.4.1-1-.4-1.6l-3-3.7c-.2-.3-.5-.5-.9-.5s-.6.2-.9.5l-3 3.7c-.5.6-.6 1.1-.4 1.6.2.4.7.6 1.5.6h1.4v2.8h-4.2c-1.6 0-2.9-.6-4-1.7s-1.7-2.4-1.7-4c0-1.4.5-2.7 1.4-3.7 1-1.1 2.1-1.7 3.6-1.8.2-1.6.8-3 2-4.1 1.2-1.1 2.6-1.6 4.2-1.6s3 .5 4.2 1.6c1.4 1.1 2.1 2.5 2.2 4.1z"/></g><g class="st1"><path class="st2" d="M255.3 434.5c-.4-.4-.6-.9-.6-1.5s.2-1.1.6-1.5l5.2-5.1c-.9-1.5-1.4-3.2-1.4-5 0-1.3.3-2.5.8-3.7.5-1.2 1.2-2.2 2-3 .8-.8 1.9-1.5 3-2 1.2-.5 2.4-.7 3.7-.7 1.3 0 2.5.3 3.7.8 1.2.5 2.2 1.2 3 2 .8.8 1.5 1.9 2 3 .5 1.2.7 2.4.7 3.7 0 1.3-.3 2.5-.8 3.7-.5 1.2-1.2 2.2-2 3-.8.8-1.9 1.5-3 2-1.2.5-2.4.7-3.7.7-1.8 0-3.4-.5-4.9-1.4l-5.2 5.1c-.4.4-1 .6-1.5.6s-1.1-.2-1.6-.7zm8.2-16c-.5.9-.8 1.9-.8 2.9 0 1.1.2 2 .8 2.9.5.9 1.2 1.6 2.1 2.1s1.9.8 2.9.8c.8 0 1.5-.1 2.3-.4s1.3-.7 1.9-1.2.9-1.1 1.3-1.8c.3-.7.5-1.5.5-2.3 0-.8-.1-1.5-.4-2.3-.3-.7-.7-1.3-1.2-1.9s-1.1-.9-1.8-1.3c-.7-.3-1.5-.5-2.3-.5-1.1 0-2 .2-2.9.8-1.1.6-1.8 1.3-2.4 2.2z"/></g><g class="st1"><path class="st2" d="M274.4 394.5c.8 0 1.5.3 2.1.9.6.6.9 1.3.9 2.1v8.7c0 .8-.3 1.5-.9 2.1-.6.6-1.3.9-2.1.9h-14.5c-.8 0-1.5-.3-2.1-.9-.6-.6-.9-1.3-.9-2.1v-8.7c0-.8.3-1.5.9-2.1.6-.6 1.3-.9 2.1-.9h1.5v-2.9c0-1.6.6-3 1.7-4.1 1.1-1.1 2.5-1.7 4.1-1.7 1.6 0 3 .6 4.1 1.7 1.1 1.1 1.7 2.5 1.7 4.1h-2.9c0-.8-.3-1.5-.9-2.1-.6-.6-1.3-.9-2.1-.9s-1.5.3-2.1.9c-.6.6-.9 1.3-.9 2.1v2.9h10.3zm-5.2 11.6l-.8-3.9c.4-.2.7-.5 1-.9s.4-.8.4-1.3c0-.7-.2-1.3-.7-1.8-.5-.5-1.1-.7-1.8-.7s-1.3.2-1.8.7c-.5.5-.7 1.1-.7 1.8 0 .5.1.9.4 1.3s.6.7 1 .9l-.8 3.9h3.8z"/></g><path class="st0" d="M291.3 403c2 0 4 .6 6 1.4 2 .9 3.2 2.3 4.3 4 1.1 1.7 1.7 3.7 1.7 5.7 0 .6-.3.9-.6 1.4-.3.6-.9.3-1.4.3h-19.8c-.6 0-1.1-.3-1.4-.6-.3-.3-.6-.9-.6-1.4 0-2 .6-3.7 1.7-5.5 1.1-1.7 2.3-2.9 4.3-4s3.8-1.3 5.8-1.3zm4.1-3.7c-1.1 1.1-2.6 1.7-4 1.7s-2.9-.6-3.7-1.7c-.9-1.1-1.4-2.3-1.4-3.7v-3.7c0-1.4.6-2.9 1.7-3.7 1.1-.9 2.3-1.7 3.7-1.7 1.4 0 2.9.6 3.7 1.7.9 1.1 1.7 2.3 1.7 3.7v3.4c-.3 1.7-.9 2.8-1.7 4zm6.8-1.4c1.7 0 3.2.3 4.6.9 1.4.6 2.6 1.4 3.7 2.3s2 2.3 2.6 3.4c.6 1.1.9 2.9.9 4.3 0 .6-.3.9-.6 1.1-.3.3-.9.3-1.4.3h-6.9c-.6-1.7-1.7-3.7-3.4-5.2-1.7-1.4-3.4-2.9-5.7-3.4.9-.9 1.7-1.7 2.3-2.9 1.4-.6 2.5-.8 3.9-.8zm-3.1-3.2v-2.9c0-2-.6-3.7-2-5.2 0-1.4.6-2.6 1.7-3.7s2-1.4 3.4-1.4 2.9.6 3.7 1.7 1.7 2.3 1.7 3.7v3.4c0 1.4-.6 2.9-1.7 3.7s-2.3 1.7-3.7 1.7c-1.1.1-2.3-.1-3.1-1z"/><g class="st1"><path class="st2" d="M414.1 363.9l6 5.1c.4.4.7.9.8 1.5.1.6 0 1.2-.3 1.7l-4.2 7.4c-.3.5-.7.9-1.3 1.1-.6.2-1.2.2-1.7 0l-7.5-2.6c-2.5 2.2-5.4 3.8-8.5 4.9l-1.5 7.8c-.1.6-.4 1.1-.9 1.5-.5.4-1 .6-1.6.6h-8.5c-.6 0-1.1-.2-1.6-.6-.5-.4-.8-.9-.9-1.5L381 383c-3.2-1.1-6-2.7-8.5-4.9l-7.5 2.6c-.6.2-1.1.2-1.7 0-.6-.2-1-.6-1.3-1.1l-4.2-7.4c-.3-.5-.4-1.1-.3-1.7.1-.6.4-1.1.8-1.5l6-5.1c-.3-1.7-.5-3.3-.5-4.9 0-1.6.2-3.3.5-4.9l-6-5.1c-.4-.4-.7-.9-.8-1.5-.1-.6 0-1.2.3-1.7l4.2-7.4c.3-.5.7-.9 1.3-1.1.6-.2 1.2-.2 1.7 0l7.5 2.6c2.5-2.2 5.4-3.8 8.5-4.9l1.5-7.8c.1-.6.4-1.1.9-1.5.5-.4 1-.6 1.6-.6h8.5c.6 0 1.1.2 1.6.6.5.4.8.9.9 1.5l1.5 7.8c3.2 1.1 6 2.7 8.5 4.9l7.5-2.6c.6-.2 1.1-.2 1.7 0 .6.2 1 .6 1.3 1.1l4.2 7.4c.3.5.4 1 .3 1.7-.1.6-.4 1.1-.8 1.5l-6 5.1c.3 1.8.5 3.4.5 4.9s-.2 3.1-.6 4.9zm-24.9 7.8c3.5 0 6.5-1.2 9-3.7s3.7-5.5 3.7-9-1.2-6.5-3.7-9-5.5-3.7-9-3.7-6.5 1.2-9 3.7-3.7 5.5-3.7 9 1.2 6.5 3.7 9 5.4 3.7 9 3.7z"/></g><g class="st1"><path class="st2" d="M412.4 413.6v-3.4h3.4v6.9h-22.4v-22.4h6.9v3.4h-3.4v15.5h15.5zm8-23.5c.4.4.6.9.6 1.4l-1.4 12.1c0 .6-.2 1-.6 1.4-.4.4-.9.6-1.4.6-.3 0-.7-.1-1-.4-.4-.2-.6-.6-.8-1.1l-1.1-4.7-8 8c-.5.5-1.2.8-1.9.8a2.732 2.732 0 01-2.7-2.7c0-.7.3-1.4.8-1.9l8-8-4.7-1.1c-.5-.2-.8-.4-1.1-.8-.2-.4-.4-.7-.4-1 0-.6.2-1 .6-1.4.4-.4.9-.6 1.5-.6l12.1-1.4c.6.2 1.1.4 1.5.8z"/></g><path class="st0" d="M218.4 435.3l12.7 13.4-6.1-13.4h-6.6zm8.3 0l5.8 13.2 5.8-13.2h-11.6zm19.5 0H240l-6.1 13.4 12.3-13.4zm-18.8-1.5h10.4l-5.2-5.5-5.2 5.5zm14.2-5.9H234l5.2 5.4 2.4-5.4zm-18.2 0l2.5 5.6 5.4-5.6h-7.9zm22.9 5.9l-3.3-5-2.2 5h5.5zm-27.4 0h5.5l-2.2-4.9-3.3 4.9zm3-6.8h21.3l5.3 7.9-16 17.1-16-16.9 5.4-8.1z"/><g class="st1"><path class="st2" d="M271 472.5l2.1 1.8c.2.1.2.3.3.5s0 .4-.1.6l-1.5 2.5c-.1.2-.3.3-.5.4-.2.1-.4.1-.6 0l-2.6-.9c-.9.8-1.9 1.3-3 1.7l-.5 2.7c0 .2-.1.4-.3.5s-.4.2-.6.2h-2.9c-.2 0-.4-.1-.6-.2s-.3-.3-.3-.5l-.5-2.7c-1.1-.4-2.1-.9-3-1.7l-2.6.9c-.2.1-.4.1-.6 0-.2-.1-.4-.2-.5-.4l-1.5-2.5c-.1-.2-.1-.4-.1-.6s.1-.4.3-.5l2.1-1.8c-.1-.6-.2-1.1-.2-1.7 0-.6.1-1.1.2-1.7l-2.1-1.8c-.2-.1-.2-.3-.3-.5 0-.2 0-.4.1-.6l1.5-2.5c.1-.2.3-.3.5-.4.2-.1.4-.1.6 0l2.6.9c.9-.8 1.9-1.3 3-1.7l.5-2.7c0-.2.1-.4.3-.5s.4-.2.6-.2h2.9c.2 0 .4.1.6.2s.3.3.3.5l.5 2.7c1.1.4 2.1.9 3 1.7l2.6-.9c.2-.1.4-.1.6 0 .2.1.4.2.5.4l1.5 2.5c.1.2.1.4.1.6 0 .2-.1.4-.3.5L271 469c.1.6.2 1.2.2 1.7 0 .6-.1 1.2-.2 1.8zm-8.6 2.7c1.2 0 2.3-.4 3.1-1.3.9-.9 1.3-1.9 1.3-3.1 0-1.2-.4-2.3-1.3-3.1s-1.9-1.3-3.1-1.3c-1.2 0-2.3.4-3.1 1.3s-1.3 1.9-1.3 3.1c0 1.2.4 2.3 1.3 3.1.8.8 1.8 1.3 3.1 1.3z"/></g><g class="st1"><path class="st2" d="M243.2 456.4l1.5 1.5c1.1 1.1 1.8 2.3 2.2 3.7.4 1.4.4 2.9 0 4.3s-1.1 2.7-2.2 3.7l-5.9 5.9c-.8.8-1.7 1.4-2.7 1.8-1 .4-2.1.6-3.2.6s-2.2-.2-3.2-.6c-1-.4-1.9-1-2.7-1.8l-1.5-1.5c-1.1-1.1-1.8-2.3-2.2-3.7-.4-1.4-.4-2.9 0-4.3s1.1-2.7 2.2-3.7l3.3-3.3c-.1 1.7.3 3.4.9 5l-1.4 1.4c-.8.8-1.2 1.8-1.2 3s.4 2.1 1.2 3l1.5 1.5c.8.8 1.8 1.2 3 1.2s2.1-.4 3-1.2l5.9-5.9c.8-.8 1.2-1.8 1.2-3s-.4-2.1-1.2-3l-1.5-1.5c-.2-.2-.5-.5-.9-.6v-.2l2.9-2.9c.5.1.8.3 1 .6zm3-11.3c2.3 0 4.3.8 5.9 2.4l1.5 1.5c1.6 1.6 2.4 3.6 2.4 5.9 0 2.3-.8 4.3-2.4 5.9l-3.4 3.4c.1-1.7-.2-3.4-.9-5l1.3-1.4c.8-.8 1.2-1.8 1.2-3s-.4-2.1-1.2-3l-1.5-1.5c-.8-.8-1.8-1.2-2.9-1.2-1.1 0-2.1.4-3 1.2l-5.9 5.9c-.8.8-1.2 1.8-1.2 3s.4 2.1 1.2 3l1.5 1.5c.2.2.5.4.9.6v.1s0 .1-.1.1l-2.9 2.9c-.5-.4-.8-.7-.8-.7l-1.5-1.5c-1.6-1.6-2.4-3.6-2.4-5.9s.8-4.3 2.4-5.9l5.9-5.9c.8-.8 1.7-1.4 2.7-1.8s2.1-.6 3.2-.6z"/></g><g class="st1"><path class="st2" d="M213 480c.7 0 1.4-.2 2.1-.5.6-.3 1.2-.8 1.6-1.3h3.2c-.6 1.4-1.5 2.5-2.7 3.3-1.2.8-2.6 1.3-4.1 1.3-1.7 0-3.2-.5-4.6-1.6l-1.4 1.4c-.2.2-.3.2-.6.2s-.4-.1-.6-.2-.2-.3-.2-.6v-4.8c0-.2.1-.4.2-.6s.3-.2.6-.2h4.8c.2 0 .4.1.6.2s.2.3.2.6c0 .2-.1.4-.2.6l-1.5 1.5c.8.4 1.7.7 2.6.7zm6.6-12c.2 0 .4.1.6.2s.2.3.2.6v4.8c0 .2-.1.4-.2.6s-.3.2-.6.2h-4.8c-.2 0-.4-.1-.6-.2s-.2-.3-.2-.6c0-.2.1-.4.2-.6l1.5-1.5c-.8-.6-1.7-.8-2.6-.8-.7 0-1.4.2-2.1.5-.6.3-1.2.8-1.6 1.3h-3.2c.6-1.4 1.5-2.5 2.7-3.3s2.6-1.3 4.1-1.3c1.7 0 3.2.5 4.6 1.6l1.4-1.4c.2 0 .4-.1.6-.1z"/></g><path class="st0" d="M188 480.2c-6.1 0-11-1.6-11-3.7v-3.7c0-.3.2-.6.4-.9 1.2 1.6 5.5 2.8 10.6 2.8s9.4-1.2 10.6-2.8c.2.3.4.6.4.9v3.7c0 2-4.9 3.7-11 3.7zm0-7.4c-6.1 0-11-1.6-11-3.7v-3.7c0-.2.1-.4.2-.6.1-.1.1-.2.2-.3 1.2 1.6 5.5 2.8 10.6 2.8s9.4-1.2 10.6-2.8c.1.1.2.2.2.3.1.2.2.4.2.6v3.7c0 2.1-4.9 3.7-11 3.7zm0-7.3c-6.1 0-11-1.6-11-3.7v-3.6c0-2 4.9-3.7 11-3.7s11 1.6 11 3.7v3.6c0 2.1-4.9 3.7-11 3.7zm0-9.2c-4 0-7.3.8-7.3 1.8s3.3 1.8 7.3 1.8 7.3-.8 7.3-1.8c0-.9-3.3-1.8-7.3-1.8z"/><g class="st1"><path class="st2" d="M109.1 470.9c.5 0 1 .2 1.3.5.4.4.5.8.5 1.3v5.6c0 .5-.2 1-.5 1.3-.4.4-.8.5-1.3.5h-9.3c-.5 0-1-.2-1.3-.5-.4-.4-.5-.8-.5-1.3v-5.6c0-.5.2-1 .5-1.3.4-.4.8-.5 1.3-.5h.9V469c0-1 .4-1.9 1.1-2.6.7-.7 1.6-1.1 2.6-1.1s1.9.4 2.6 1.1c.7.7 1.1 1.6 1.1 2.6v1.9h1zm-2.7 0V469c0-.5-.2-1-.5-1.3-.4-.4-.8-.5-1.3-.5s-1 .2-1.3.5c-.4.4-.5.8-.5 1.3v1.9h3.6zm-.6 7.4l-.5-2.5c.3-.1.5-.3.6-.6s.2-.5.2-.8c0-.4-.2-.8-.5-1.1s-.7-.5-1.1-.5c-.4 0-.8.2-1.1.5-.3.3-.5.7-.5 1.1 0 .3.1.6.2.8s.4.5.6.6l-.5 2.5h2.6z"/></g><path class="st0" d="M76.3 382.1c.2-.5.8-2.3-.2-4.8 0 0-1.5-.5-4.9 1.9-1.4-.4-3-.5-4.5-.5s-3.1.1-4.5.5c-3.4-2.3-4.9-1.9-4.9-1.9-1 2.5-.4 4.3-.2 4.8-1.2 1.3-1.9 2.9-1.9 4.8 0 7.4 4.8 9.1 11.5 9.1s11.5-1.7 11.5-9.1c0-1.9-.7-3.5-1.9-4.8zm-9.6 12.5c-4.7 0-8.6-.2-8.6-4.8 0-1.1.5-2.1 1.5-3 1.5-1.4 4.2-.7 7.1-.7 3 0 5.6-.7 7.1.7.9.8 1.5 1.9 1.5 3 0 4.6-3.9 4.8-8.6 4.8zm-3.6-7.2c-1 0-1.7 1.1-1.7 2.6 0 1.4.8 2.6 1.7 2.6 1 0 1.7-1.1 1.7-2.6s-.8-2.6-1.7-2.6zm7.2 0c-1 0-1.7 1.1-1.7 2.6s.8 2.6 1.7 2.6 1.7-1.1 1.7-2.6-.7-2.6-1.7-2.6z"/><g class="st1"><path class="st2" d="M82.8 409c1.4.2 2.6.8 3.6 1.9 1 1.1 1.5 2.3 1.5 3.8 0 1.6-.6 2.9-1.7 4.1-1.1 1.1-2.5 1.7-4.1 1.7h-4.6l2.8-3.5c.5-.6.6-1.1.4-1.6-.2-.4-.7-.7-1.5-.7h-1.4v-2.9c0-.4-.1-.7-.4-1-.3-.3-.6-.4-1-.4s-.7.1-1 .4c-.3.3-.4.6-.4 1v2.9h-1.4c-.8 0-1.3.2-1.5.7-.2.4-.1 1 .4 1.6l2.8 3.5h-4.6c-1.6 0-2.9-.6-4.1-1.7s-1.7-2.5-1.7-4.1c0-1.5.5-2.7 1.5-3.8 1-1.1 2.2-1.7 3.6-1.9.2-1.6.9-3 2.1-4.1 1.2-1.1 2.6-1.7 4.3-1.7s3.1.6 4.3 1.7c1.3 1.1 2 2.5 2.1 4.1z"/></g><g class="st1"><path class="st2" d="M45.1 398.9l1 1c.7.7 1.2 1.6 1.5 2.6.3 1 .3 2 0 3s-.8 1.9-1.5 2.6l-4.1 4.1c-.6.6-1.2 1-1.9 1.3-.7.3-1.4.4-2.2.4s-1.5-.1-2.2-.4c-.7-.3-1.3-.7-1.9-1.3l-1-1c-.7-.7-1.2-1.6-1.5-2.6s-.3-2 0-3 .8-1.9 1.5-2.6l2.3-2.3c0 1.2.2 2.4.7 3.4l-.9.9c-.6.6-.8 1.2-.8 2.1s.3 1.5.8 2.1l1 1c.6.6 1.3.8 2.1.8s1.5-.3 2.1-.8l4.1-4.1c.6-.6.8-1.2.8-2.1 0-.8-.3-1.5-.8-2.1l-1-1c-.2-.2-.4-.3-.6-.4l2-2c.2.1.4.2.5.4zm2.1-7.8c1.6 0 3 .6 4.1 1.7l1 1c1.1 1.1 1.7 2.5 1.7 4.1s-.6 3-1.7 4.1l-2.3 2.3c0-1.2-.2-2.4-.6-3.5l.9-.9c.6-.6.8-1.2.8-2.1 0-.8-.3-1.5-.8-2.1l-1-1c-.6-.6-1.3-.8-2-.8-.8 0-1.5.3-2.1.8l-4.1 4.1c-.6.6-.8 1.2-.8 2.1s.3 1.5.8 2.1l1 1c.1.1.3.3.6.4v.1l-2 2c-.4-.3-.5-.5-.6-.5l-1-1c-1.1-1.1-1.7-2.5-1.7-4.1s.6-3 1.7-4.1l4.1-4.1c.6-.6 1.2-1 1.9-1.3s1.3-.3 2.1-.3z"/></g><g class="st1"><path class="st2" d="M61.8 404.5l.7.7c.5.5.9 1.1 1 1.8.2.7.2 1.4 0 2.1-.2.7-.5 1.3-1 1.8l-2.9 2.9c-.4.4-.8.7-1.3.9s-1 .3-1.5.3-1-.1-1.5-.3-.9-.5-1.3-.9l-.7-.7c-.5-.5-.9-1.1-1-1.8-.2-.7-.2-1.4 0-2.1.2-.7.5-1.3 1-1.8l1.6-1.6c0 .8.1 1.6.5 2.4l-.7.7c-.4.4-.6.9-.6 1.4s.2 1 .6 1.4l.7.7c.4.4.9.6 1.4.6.6 0 1-.2 1.4-.6l2.8-2.9c.4-.4.6-.9.6-1.4 0-.6-.2-1-.6-1.4l-.7-.7c-.1-.1-.3-.2-.4-.3l1.4-1.4c.3 0 .4.1.5.2zm1.5-5.4c1.1 0 2.1.4 2.8 1.2l.7.7c.8.8 1.2 1.7 1.2 2.8 0 1.1-.4 2.1-1.2 2.8l-1.6 1.6c0-.8-.1-1.6-.5-2.4l.6-.7c.4-.4.6-.9.6-1.4s-.2-1-.6-1.4l-.7-.7c-.4-.4-.9-.6-1.4-.6-.6 0-1 .2-1.4.6l-2.9 2.9c-.4.4-.6.9-.6 1.4s.2 1 .6 1.4l.7.7c.1.1.2.2.4.3l-1.4 1.4c-.2-.2-.4-.3-.4-.3l-.7-.7c-.8-.8-1.2-1.7-1.2-2.8s.4-2.1 1.2-2.8l2.8-2.9c.4-.4.8-.7 1.3-.9s1.1-.2 1.7-.2z"/></g><g class="st1"><path class="st2" d="M19.2 382.6c1.3-.6 2.7-.8 4.1-.8s2.8.3 4.1.8 2.5 1.3 3.4 2.3 1.7 2.1 2.3 3.4.8 2.7.8 4.1-.3 2.8-.8 4.1-1.3 2.5-2.3 3.4-2.1 1.7-3.4 2.3-2.7.8-4.1.8c-.9 0-1.7-.1-2.6-.3l-1.6 1.6c-.2.2-.4.4-.8.5s-.6.2-.9.2h-1.9c-.3 0-.5.1-.7.3s-.3.4-.3.7v1.9c0 .3-.1.5-.3.7s-.4.3-.7.3h-1.9c-.3 0-.5.1-.7.3s-.3.4-.3.7v1.9c0 .3-.1.5-.3.7s-.4.3-.7.3H3v-6.6c0-.3.1-.6.2-.9s.3-.6.5-.8l9.4-9.4c-.2-.9-.4-1.8-.4-2.7 0-1.4.3-2.8.8-4.1s1.3-2.5 2.3-3.4 2.1-1.7 3.4-2.3zm4 9.9c.6.6 1.3.8 2.1.8s1.5-.3 2.1-.8.8-1.3.8-2.1-.3-1.5-.8-2.1-1.3-.8-2.1-.8-1.5.3-2.1.8-.8 1.3-.8 2.1.3 1.6.8 2.1z"/></g><g class="st1"><path class="st2" d="M306.8 237.9c-3.4-1.4-7-2.2-10.8-2.2-3.8 0-7.4.7-10.8 2.2-3.4 1.4-6.4 3.5-9 6.1l-5.2-5.2c3.3-3.3 7-5.8 11.4-7.6 4.3-1.8 8.9-2.7 13.7-2.7s9.4.9 13.7 2.7c4.3 1.8 8.1 4.4 11.4 7.6L316 244c-2.8-2.6-5.8-4.7-9.2-6.1zm-19.4 5.4c2.7-1.1 5.5-1.7 8.6-1.7 3 0 5.9.6 8.5 1.7 2.7 1.1 5.1 2.7 7.1 4.8l-5.2 5.2c-1.4-1.4-3-2.4-4.7-3.2-1.8-.8-3.7-1.1-5.7-1.1s-3.9.4-5.7 1.1c-1.8.8-3.4 1.8-4.7 3.2l-5.2-5.2c1.9-2 4.3-3.6 7-4.8zm8.5 11.6c2.4 0 4.5.9 6.3 2.6l-4.2 4.2c-.6.6-1.3.9-2.1.9s-1.5-.3-2.1-.9l-4.2-4.2c1.8-1.7 3.9-2.6 6.3-2.6z"/></g><g class="st1"><path class="st2" d="M317.2 259.6l1.3 1.3c.9.9 1.5 2 1.8 3.2s.3 2.4 0 3.7-.9 2.3-1.8 3.2l-5 5c-.7.7-1.4 1.2-2.3 1.5s-1.8.5-2.7.5-1.8-.2-2.7-.5-1.6-.9-2.3-1.5l-1.3-1.3c-.9-.9-1.5-2-1.8-3.2s-.3-2.4 0-3.7.9-2.3 1.8-3.2l2.8-2.8c0 1.5.2 2.9.8 4.2l-1.1 1.1c-.7.7-1 1.5-1 2.5s.3 1.8 1 2.5l1.3 1.3c.7.7 1.5 1 2.5 1s1.8-.3 2.5-1l5-5c.7-.7 1-1.5 1-2.5s-.3-1.8-1-2.5l-1.3-1.3c-.2-.2-.4-.4-.7-.5v-.2l2.5-2.4c.3.2.5.4.7.6zm2.5-9.6c2 0 3.6.7 5 2.1l1.3 1.3c1.4 1.4 2.1 3.1 2.1 5s-.7 3.6-2.1 5l-2.9 2.9c.1-1.5-.2-2.9-.8-4.2l1.1-1.1c.7-.7 1-1.5 1-2.5s-.3-1.8-1-2.5l-1.3-1.3c-.7-.7-1.5-1-2.5-1s-1.8.3-2.5 1l-5 5c-.7.7-1 1.5-1 2.5s.3 1.8 1 2.5l1.3 1.3c.1.1.4.3.7.5s0 0 0 .1l-2.4 2.4c-.4-.4-.7-.6-.7-.6l-1.3-1.3c-1.4-1.4-2.1-3-2.1-5s.7-3.6 2.1-5l5-5c.7-.7 1.4-1.2 2.3-1.5s1.8-.6 2.7-.6z"/></g><path class="st0" d="M348.5 266.4c-9.2 0-16.6-2.5-16.6-5.5v-5.5c0-.5.2-.9.6-1.4 1.8 2.4 8.3 4.1 16 4.1 7.7 0 14.2-1.8 16-4.1.3.4.6.9.6 1.4v5.5c0 3-7.4 5.5-16.6 5.5zm0-11.1c-9.2 0-16.6-2.5-16.6-5.5v-5.5c0-.3.1-.6.3-.9.1-.2.2-.4.3-.5 1.8 2.4 8.3 4.1 16 4.1 7.7 0 14.2-1.8 16-4.1.1.2.2.3.3.5.1.3.3.6.3.9v5.5c0 3.1-7.4 5.5-16.6 5.5zm0-11c-9.2 0-16.6-2.5-16.6-5.5v-5.6c0-3.1 7.4-5.5 16.6-5.5 9.2 0 16.6 2.5 16.6 5.5v5.6c0 3-7.4 5.5-16.6 5.5zm0-13.9c-6.1 0-11.1 1.2-11.1 2.8s5 2.8 11.1 2.8 11.1-1.2 11.1-2.8-4.9-2.8-11.1-2.8z"/><g class="st1"><path class="st2" d="M416.9 287.2c1.4 0 2.6.5 3.6 1.5s1.5 2.2 1.5 3.6v15.5c0 1.4-.5 2.6-1.5 3.6s-2.2 1.5-3.6 1.5h-25.8c-1.4 0-2.6-.5-3.6-1.5s-1.5-2.2-1.5-3.6v-15.5c0-1.4.5-2.6 1.5-3.6s2.2-1.5 3.6-1.5h2.6V282c0-2.8 1-5.3 3-7.3s4.4-3 7.3-3c2.8 0 5.3 1 7.3 3s3 4.4 3 7.3h-5.2c0-1.4-.5-2.6-1.5-3.6s-2.2-1.5-3.6-1.5-2.6.5-3.6 1.5-1.5 2.2-1.5 3.6v5.2h18zm-9.2 20.6l-1.5-7c.7-.4 1.3-.9 1.7-1.6s.6-1.5.6-2.3c0-1.2-.4-2.3-1.3-3.2-.9-.9-1.9-1.3-3.2-1.3-1.2 0-2.3.4-3.2 1.3-.9.9-1.3 1.9-1.3 3.2 0 .8.2 1.6.6 2.3s1 1.3 1.7 1.6l-1.4 7h7.3z"/></g><g class="st1"><path class="st2" d="M412.6 315.3c.9-.4 1.8-.5 2.7-.5.9 0 1.8.2 2.7.5.9.4 1.6.9 2.2 1.5s1.1 1.4 1.5 2.2c.4.9.5 1.8.5 2.7 0 .9-.2 1.8-.5 2.7-.4.9-.9 1.6-1.5 2.2s-1.4 1.1-2.2 1.5c-.9.4-1.8.5-2.7.5-.6 0-1.1-.1-1.7-.2l-1 1c-.1.1-.3.2-.5.3-.2.1-.4.1-.6.1h-1.3c-.2 0-.3.1-.4.2s-.2.3-.2.4v1.3c0 .2-.1.3-.2.4s-.3.2-.4.2h-1.3c-.2 0-.3.1-.4.2s-.2.3-.2.4v1.3c0 .2-.1.3-.2.4s-.3.2-.4.2H402v-4.3c0-.2 0-.4.1-.6.1-.2.2-.4.3-.5l6.1-6.1c-.2-.6-.2-1.2-.2-1.8 0-.9.2-1.8.5-2.7.4-.9.9-1.6 1.5-2.2s1.4-.9 2.3-1.3zm2.6 6.5c.4.4.8.6 1.3.6s1-.2 1.3-.6c.4-.4.6-.8.6-1.3s-.2-1-.6-1.3c-.4-.4-.8-.6-1.3-.6s-1 .2-1.3.6c-.4.4-.6.8-.6 1.3.1.5.3.9.6 1.3z"/></g><g class="st1"><path class="st2" d="M151.1 23.2l.8.8c.6.6 1 1.3 1.2 2s.2 1.6 0 2.3-.6 1.5-1.2 2l-3.2 3.2c-.4.4-.9.8-1.5 1-.6.2-1.1.3-1.7.3-.6 0-1.2-.1-1.7-.3-.6-.2-1.1-.6-1.5-1l-.8-.8c-.6-.6-1-1.3-1.2-2-.2-.8-.2-1.6 0-2.3.2-.8.6-1.5 1.2-2l1.8-1.8c0 1 .1 1.9.5 2.7l-.8.7c-.4.4-.7 1-.7 1.6s.2 1.2.7 1.6l.8.8c.4.4 1 .7 1.6.7.6 0 1.2-.2 1.6-.7l3.2-3.2c.4-.4.7-1 .7-1.6s-.2-1.2-.7-1.6l-.8-.8c-.1-.1-.3-.2-.5-.4l1.6-1.6c.3.1.5.2.6.4zm1.6-6.2c1.3 0 2.3.4 3.2 1.3l.8.8c.9.9 1.3 2 1.3 3.2s-.4 2.3-1.3 3.2l-1.8 1.8c0-1-.1-1.9-.5-2.7l.7-.7c.4-.4.7-1 .7-1.6s-.2-1.2-.7-1.6l-.8-.8c-.4-.4-1-.7-1.6-.7-.6 0-1.2.2-1.6.7l-3.2 3.2c-.4.4-.7 1-.7 1.6s.2 1.2.7 1.6l.8.8c.1.1.3.2.5.4l-1.6 1.6c-.3-.2-.4-.4-.5-.4l-.8-.8c-.9-.9-1.3-2-1.3-3.2 0-1.3.4-2.3 1.3-3.2l3.2-3.2c.4-.4.9-.8 1.5-1 .5-.2 1.1-.3 1.7-.3z"/></g><g class="st1"><path class="st2" d="M149.6 53.4c.6.1 1.1.3 1.5.8.4.4.6 1 .6 1.6 0 .7-.2 1.2-.7 1.7-.5.5-1 .7-1.7.7h-1.8V57h.6c.3 0 .5-.1.6-.3.1-.2 0-.4-.2-.7l-1.3-1.6c-.1-.1-.2-.2-.4-.2-.1 0-.3.1-.4.2l-1.3 1.6c-.2.3-.3.5-.2.7.1.2.3.3.6.3h.6v1.2h-1.8c-.7 0-1.2-.2-1.7-.7-.5-.5-.7-1-.7-1.7 0-.6.2-1.1.6-1.6.4-.4.9-.7 1.5-.8.1-.7.4-1.3.9-1.7.5-.5 1.1-.7 1.8-.7s1.3.2 1.8.7c.8.4 1.1 1 1.1 1.7z"/></g></svg>