<svg xmlns="http://www.w3.org/2000/svg" viewBox="0 0 933.9 821.7"><path d="M419.3 244.5c-11.8-22.1-39.2-30.4-61.3-18.6-22.1 11.8-30.4 39.2-18.6 61.3l64.1 119.9 79.9-42.7-64.1-119.9zM305 511.1L369 631l79.9-42.7L513 708.2c35.2 65.9 118 91 183.9 55.8l40-21.4 42.7 79.9 79.9-42.7-42.7-79.9 40-21.4c65.9-35.2 91-118 55.8-183.9l-64.1-119.9 79.9-42.7-64.1-119.9-559.3 299zm354.1-394.7c-11.8-22.1-39.2-30.4-61.3-18.6-22.1 11.8-30.4 39.2-18.6 61.3L643.3 279l79.9-42.7-64.1-119.9z" fill="#006998" opacity=".09"/></svg>