<svg id="Layer_1" xmlns="http://www.w3.org/2000/svg" viewBox="0 0 933.9 821.7"><style>.st0{opacity:.15}.st1{fill:#006998}</style><g id="Page-1" class="st0"><g id="Symbolicons-Junior" transform="translate(-698 -1286)"><path id="info" class="st1" d="M1265.5 2018.2c-151 0-273.8-122.8-273.8-273.8s122.8-273.8 273.8-273.8 273.8 122.8 273.8 273.8-122.9 273.8-273.8 273.8m0-638.8c-201.6 0-365 163.4-365 365s163.4 365 365 365 365-163.4 365-365-163.4-365-365-365m0 148.3c-31.6 0-57 25.6-57 57s25.5 57 57 57 57-25.6 57-57-25.5-57-57-57m22.8 171.1h-45.6c-12.6 0-22.8 10.3-22.8 22.8v182.5c0 12.5 10.2 22.8 22.8 22.8h45.6c12.5 0 22.8-10.3 22.8-22.8v-182.5c0-12.5-10.3-22.8-22.8-22.8"/></g></g></svg>