<svg version="1.1" id="Layer_1" xmlns="http://www.w3.org/2000/svg" x="0" y="0" viewBox="0 0 279.2 70.8" xml:space="preserve"><style>.st0{fill:#fff}.st1{enable-background:new}</style><path class="st0" d="M13.4 47.6L0 39.9v15.4l13.4 7.8 13.4 7.7V55.3zM13.4 15.6L0 23.3v15.5l13.4 7.7V31l13.4-7.7V7.9zM41.2 47.6l-13.3 7.7v15.5l13.3-7.7 13.4-7.8V39.9zM41.5 0v46.3l13.4-7.7V7.7z"/><g class="st1"><path class="st0" d="M94.6 53.2c-1 .3-2.3.6-3.9.9-1.6.3-3.2.4-5 .4-1.8 0-3.4-.3-4.8-.8s-2.6-1.3-3.6-2.4c-1-1-1.8-2.3-2.3-3.7-.5-1.5-.8-3.1-.8-4.9 0-1.8.2-3.4.7-4.9.4-1.5 1.1-2.7 2-3.7s1.9-1.8 3.2-2.4c1.2-.6 2.7-.8 4.3-.8 1.1 0 2.1.1 2.9.4.8.3 1.6.5 2.2.9v-11l5.2-.9v32.9zm-15-10.6c0 2.3.5 4.1 1.6 5.4 1.1 1.3 2.6 2 4.5 2 .8 0 1.5 0 2.1-.1.6-.1 1.1-.2 1.4-.2v-13c-.5-.3-1.1-.6-1.8-.9-.8-.3-1.6-.4-2.4-.4-1.9 0-3.3.6-4.2 1.9-.8 1.3-1.2 3-1.2 5.3zM109.4 38.2l4.8-6.9h5.5l-7.6 10.8c1.6 2 3.1 4 4.6 6 1.5 2 2.7 4 3.6 5.7h-5.7c-.3-.5-.6-1.1-1-1.7-.4-.6-.9-1.3-1.3-2-.5-.7-1-1.4-1.5-2-.5-.7-1-1.3-1.5-1.9-1 1.2-2 2.5-3 3.9s-1.8 2.7-2.4 3.8h-5.3c.4-.9 1-1.8 1.6-2.7.6-1 1.3-1.9 2-2.9s1.4-2 2.2-3c.8-1 1.5-2 2.2-2.9l-7.7-11.1h5.8l4.7 6.9z"/></g><g class="st1"><path class="st0" d="M137.7 39.7c-.7 2.5-1.4 5-2.1 7.4-.8 2.4-1.5 4.7-2.3 6.8H129c-.6-1.3-1.2-2.8-1.8-4.5-.6-1.7-1.3-3.5-1.9-5.5-.6-1.9-1.3-4-1.9-6.1-.6-2.1-1.3-4.3-1.9-6.5h5.5c.3 1.2.6 2.5.9 3.9.3 1.4.7 2.8 1.1 4.3.4 1.5.8 2.9 1.2 4.3.4 1.4.8 2.7 1.2 3.8.4-1.3.9-2.7 1.3-4.1l1.2-4.2c.4-1.4.7-2.8 1.1-4.1.3-1.3.6-2.6.9-3.8h4c.3 1.2.5 2.4.9 3.8.3 1.3.7 2.7 1 4.1s.7 2.8 1.2 4.2.8 2.8 1.3 4.1c.4-1.2.8-2.4 1.2-3.8.4-1.4.8-2.8 1.2-4.3s.8-2.9 1.1-4.3c.3-1.4.7-2.7.9-3.9h5.4c-.6 2.2-1.2 4.4-1.9 6.5-.6 2.1-1.3 4.2-1.9 6.1-.6 1.9-1.3 3.8-1.9 5.5-.6 1.7-1.3 3.2-1.9 4.5h-4.3c-.7-2.1-1.5-4.4-2.3-6.8-.9-2.4-1.6-4.9-2.2-7.4z"/></g><g class="st1"><path class="st0" d="M180.4 53.2c-.8.3-1.9.6-3.2.8s-2.9.4-4.9.4c-1.6 0-3.1-.3-4.5-.8-1.3-.5-2.5-1.3-3.5-2.3-1-1-1.7-2.2-2.2-3.7-.5-1.4-.8-3.1-.8-4.9 0-1.7.2-3.3.7-4.7s1.1-2.7 2-3.7 1.9-1.8 3.2-2.4c1.3-.6 2.7-.9 4.3-.9 1.5 0 2.7.2 3.8.6 1.1.4 1.9.8 2.4 1.2v-12l2.8-.5v32.9zm-2.8-17.6c-.3-.2-.6-.4-1-.6-.4-.2-.8-.4-1.4-.6-.5-.2-1.1-.4-1.7-.5-.6-.1-1.2-.2-1.9-.2-1.4 0-2.5.2-3.5.7-.9.5-1.7 1.1-2.3 2-.6.8-1 1.8-1.3 2.9s-.4 2.3-.4 3.5c0 2.9.7 5.2 2.2 6.8 1.5 1.6 3.4 2.4 5.8 2.4 1.4 0 2.5-.1 3.4-.2.9-.1 1.5-.3 1.9-.4V35.6zM191.3 24.8c0 .7-.2 1.2-.6 1.6-.4.4-.9.6-1.5.6s-1.1-.2-1.5-.6c-.4-.4-.6-.9-.6-1.6 0-.7.2-1.2.6-1.6.4-.4.9-.6 1.5-.6s1.1.2 1.5.6c.4.4.6 1 .6 1.6zm-.7 29.1h-2.8V31.6h2.8v22.3zM212.7 51.3c-.2.1-.4.3-.8.5s-.8.4-1.3.6-1.1.4-1.7.5c-.6.1-1.4.2-2.2.2-1.3 0-2.6-.2-3.8-.6-1.2-.4-2.3-1-3.2-1.9-.9-.9-1.6-2-2.2-3.4-.5-1.4-.8-3-.8-5 0-1.6.2-3.1.7-4.4.5-1.4 1.2-2.5 2.1-3.5s2-1.8 3.3-2.3 2.8-.8 4.4-.8c2.1 0 3.7.1 5 .4 1.3.3 2.3.5 3.1.8v20.4c0 3.3-.9 5.7-2.6 7.2s-4.3 2.1-7.8 2.1c-1.4 0-2.7-.1-3.9-.3-1.2-.2-2.2-.5-3-.8l.6-2.6c.7.3 1.6.6 2.8.8 1.2.2 2.4.3 3.6.3 2.7 0 4.6-.5 5.8-1.5 1.2-1 1.8-2.8 1.8-5.3v-1.4zm-.1-17c-.5-.1-1.1-.3-1.9-.4s-1.9-.2-3.3-.2c-1.2 0-2.3.2-3.2.6-.9.4-1.7 1-2.4 1.8s-1.2 1.7-1.5 2.7c-.3 1.1-.5 2.2-.5 3.5 0 1.5.2 2.7.6 3.8s.9 1.9 1.6 2.6c.6.7 1.4 1.1 2.2 1.4.8.3 1.7.5 2.6.5 1.3 0 2.4-.2 3.5-.6s1.9-.8 2.4-1.3V34.3zM226.3 24.8c0 .7-.2 1.2-.6 1.6-.4.4-.9.6-1.5.6s-1.1-.2-1.5-.6-.6-.9-.6-1.6c0-.7.2-1.2.6-1.6.4-.4.9-.6 1.5-.6s1.1.2 1.5.6c.4.4.6 1 .6 1.6zm-.6 29.1h-2.8V31.6h2.8v22.3zM235.8 31.6h8.9V34h-8.9v11.9c0 1.3.1 2.3.3 3.1.2.8.5 1.4.9 1.8.4.4.9.7 1.5.9.6.1 1.2.2 1.9.2 1.2 0 2.1-.1 2.9-.4.7-.3 1.3-.5 1.7-.8l.7 2.3c-.4.3-1.1.6-2.1.9s-2.1.5-3.3.5c-1.4 0-2.5-.2-3.5-.5-.9-.4-1.7-.9-2.2-1.6s-1-1.7-1.2-2.7c-.2-1.1-.3-2.4-.3-3.9V25l2.8-.5v7.1zM256.6 31.1c1.5 0 2.7.2 3.7.6s1.9 1 2.5 1.7c.6.7 1.1 1.6 1.4 2.6.3 1 .4 2.1.4 3.3v14.1c-.3.1-.7.2-1.3.3-.5.1-1.2.2-1.9.3-.7.1-1.5.2-2.4.3-.9.1-1.8.1-2.7.1-1.2 0-2.3-.1-3.3-.4-1-.3-1.9-.7-2.6-1.2-.7-.6-1.3-1.3-1.7-2.2-.4-.9-.6-2-.6-3.2 0-1.2.2-2.2.7-3.1.5-.9 1.1-1.6 1.9-2.1.8-.6 1.8-1 3-1.2s2.4-.4 3.8-.4c.4 0 .8 0 1.3.1.4 0 .9.1 1.3.2s.8.1 1.1.2.5.1.6.2v-1.4c0-.8-.1-1.5-.2-2.3s-.4-1.4-.8-2c-.4-.6-.9-1.1-1.6-1.4-.7-.4-1.6-.5-2.8-.5-1.6 0-2.9.1-3.7.3-.8.2-1.4.4-1.8.6l-.4-2.5c.5-.2 1.2-.4 2.3-.6 1.2-.3 2.4-.4 3.8-.4zm.3 20.8c1.1 0 2.1 0 2.9-.1.8-.1 1.5-.2 2.1-.3v-7.9c-.3-.1-.8-.3-1.5-.5s-1.6-.2-2.9-.2c-.7 0-1.4.1-2.2.2-.8.1-1.4.3-2.1.6-.6.3-1.2.8-1.6 1.4-.4.6-.6 1.3-.6 2.3 0 .8.1 1.5.4 2.1.3.6.7 1 1.2 1.4.5.3 1.1.6 1.8.8.8.1 1.6.2 2.5.2zM277.5 54.3c-1 0-1.8-.2-2.5-.4s-1.3-.5-1.8-1c-.5-.4-.8-1-1.1-1.7-.2-.7-.4-1.6-.4-2.7V20.9l2.8-.5v28.1c0 .7.1 1.2.2 1.7s.3.8.6 1 .6.4 1 .5c.4.1.9.2 1.5.3l-.3 2.3z"/></g></svg>