<svg id="Layer_1" xmlns="http://www.w3.org/2000/svg" viewBox="0 0 933.9 821.7"><style>.st0{opacity:.09}.st1{fill:#006998}</style><g id="Page-1_1_" class="st0"><g id="Symbolicons-Junior_1_" transform="translate(-1020 -646)"><path id="plug" class="st1" d="M1439.3 890.5c-11.8-22.1-39.2-30.4-61.3-18.6-22.1 11.8-30.4 39.2-18.6 61.3l64.1 119.9 79.9-42.7-64.1-119.9zM1325 1157.1l64 119.9 79.9-42.7 64.1 119.9c35.2 65.9 118 91 183.9 55.8l40-21.4 42.7 79.9 79.9-42.7-42.7-79.9 40-21.4c65.9-35.2 91-118 55.8-183.9l-64.1-119.9 79.9-42.7-64.1-119.9-559.3 299zm354.1-394.7c-11.8-22.1-39.2-30.4-61.3-18.6-22.1 11.8-30.4 39.2-18.6 61.3l64.1 119.9 79.9-42.7-64.1-119.9z"/></g></g></svg>
