<?xml version="1.0" encoding="utf-8"?>
<!-- Generator: Adobe Illustrator 22.0.1, SVG Export Plug-In . SVG Version: 6.00 Build 0)  -->
<svg version="1.1" id="Layer_1" xmlns="http://www.w3.org/2000/svg" xmlns:xlink="http://www.w3.org/1999/xlink" x="0px" y="0px"
	 viewBox="0 0 279.2 70.8" style="enable-background:new 0 0 279.2 70.8;" xml:space="preserve">
<style type="text/css">
	.st0{fill:#FFFFFF;}
	.st1{enable-background:new    ;}
</style>
<title>Artboard 1</title>
<polygon class="st0" points="13.4,47.6 13.4,47.6 13.4,47.6 0,39.9 0,55.3 13.4,63.1 13.4,63.1 26.8,70.8 26.8,55.3 "/>
<polygon class="st0" points="13.4,15.6 0,23.3 0,38.8 0,38.8 13.4,46.5 13.4,31 26.8,23.3 26.8,7.9 "/>
<polygon class="st0" points="41.2,47.6 27.9,55.3 27.9,70.8 41.2,63.1 41.2,63.1 54.6,55.3 54.6,55.3 54.6,39.9 "/>
<polygon class="st0" points="41.5,0 41.5,15.4 41.5,30.9 41.5,46.3 54.9,38.6 54.9,23.2 54.9,23.2 54.9,7.7 54.9,7.7 "/>
<g class="st1">
	<path class="st0" d="M94.6,53.2c-1,0.3-2.3,0.6-3.9,0.9c-1.6,0.3-3.2,0.4-5,0.4c-1.8,0-3.4-0.3-4.8-0.8c-1.4-0.5-2.6-1.3-3.6-2.4
		c-1-1-1.8-2.3-2.3-3.7c-0.5-1.5-0.8-3.1-0.8-4.9c0-1.8,0.2-3.4,0.7-4.9c0.4-1.5,1.1-2.7,2-3.7s1.9-1.8,3.2-2.4
		c1.2-0.6,2.7-0.8,4.3-0.8c1.1,0,2.1,0.1,2.9,0.4c0.8,0.3,1.6,0.5,2.2,0.9V21.2l5.2-0.9V53.2z M79.6,42.6c0,2.3,0.5,4.1,1.6,5.4
		c1.1,1.3,2.6,2,4.5,2c0.8,0,1.5,0,2.1-0.1c0.6-0.1,1.1-0.2,1.4-0.2v-13c-0.5-0.3-1.1-0.6-1.8-0.9c-0.8-0.3-1.6-0.4-2.4-0.4
		c-1.9,0-3.3,0.6-4.2,1.9C80,38.6,79.6,40.3,79.6,42.6z"/>
	<path class="st0" d="M109.4,38.2l4.8-6.9h5.5l-7.6,10.8c1.6,2,3.1,4,4.6,6c1.5,2,2.7,4,3.6,5.7h-5.7c-0.3-0.5-0.6-1.1-1-1.7
		c-0.4-0.6-0.9-1.3-1.3-2c-0.5-0.7-1-1.4-1.5-2c-0.5-0.7-1-1.3-1.5-1.9c-1,1.2-2,2.5-3,3.9c-1,1.4-1.8,2.7-2.4,3.8h-5.3
		c0.4-0.9,1-1.8,1.6-2.7c0.6-1,1.3-1.9,2-2.9c0.7-1,1.4-2,2.2-3c0.8-1,1.5-2,2.2-2.9l-7.7-11.1h5.8L109.4,38.2z"/>
</g>
<g class="st1">
	<path class="st0" d="M137.7,39.7c-0.7,2.5-1.4,5-2.1,7.4c-0.8,2.4-1.5,4.7-2.3,6.8H129c-0.6-1.3-1.2-2.8-1.8-4.5
		c-0.6-1.7-1.3-3.5-1.9-5.5c-0.6-1.9-1.3-4-1.9-6.1c-0.6-2.1-1.3-4.3-1.9-6.5h5.5c0.3,1.2,0.6,2.5,0.9,3.9c0.3,1.4,0.7,2.8,1.1,4.3
		c0.4,1.5,0.8,2.9,1.2,4.3c0.4,1.4,0.8,2.7,1.2,3.8c0.4-1.3,0.9-2.7,1.3-4.1s0.8-2.8,1.2-4.2s0.7-2.8,1.1-4.1
		c0.3-1.3,0.6-2.6,0.9-3.8h4c0.3,1.2,0.5,2.4,0.9,3.8c0.3,1.3,0.7,2.7,1,4.1s0.7,2.8,1.2,4.2s0.8,2.8,1.3,4.1
		c0.4-1.2,0.8-2.4,1.2-3.8c0.4-1.4,0.8-2.8,1.2-4.3s0.8-2.9,1.1-4.3c0.3-1.4,0.7-2.7,0.9-3.9h5.4c-0.6,2.2-1.2,4.4-1.9,6.5
		c-0.6,2.1-1.3,4.2-1.9,6.1c-0.6,1.9-1.3,3.8-1.9,5.5c-0.6,1.7-1.3,3.2-1.9,4.5h-4.3c-0.7-2.1-1.5-4.4-2.3-6.8
		C139,44.7,138.3,42.2,137.7,39.7z"/>
</g>
<g class="st1">
	<path class="st0" d="M180.4,53.2c-0.8,0.3-1.9,0.6-3.2,0.8s-2.9,0.4-4.9,0.4c-1.6,0-3.1-0.3-4.5-0.8c-1.3-0.5-2.5-1.3-3.5-2.3
		c-1-1-1.7-2.2-2.2-3.7c-0.5-1.4-0.8-3.1-0.8-4.9c0-1.7,0.2-3.3,0.7-4.7s1.1-2.7,2-3.7s1.9-1.8,3.2-2.4c1.3-0.6,2.7-0.9,4.3-0.9
		c1.5,0,2.7,0.2,3.8,0.6c1.1,0.4,1.9,0.8,2.4,1.2v-12l2.8-0.5V53.2z M177.6,35.6c-0.3-0.2-0.6-0.4-1-0.6c-0.4-0.2-0.8-0.4-1.4-0.6
		c-0.5-0.2-1.1-0.4-1.7-0.5c-0.6-0.1-1.2-0.2-1.9-0.2c-1.4,0-2.5,0.2-3.5,0.7c-0.9,0.5-1.7,1.1-2.3,2c-0.6,0.8-1,1.8-1.3,2.9
		s-0.4,2.3-0.4,3.5c0,2.9,0.7,5.2,2.2,6.8c1.5,1.6,3.4,2.4,5.8,2.4c1.4,0,2.5-0.1,3.4-0.2c0.9-0.1,1.5-0.3,1.9-0.4V35.6z"/>
	<path class="st0" d="M191.3,24.8c0,0.7-0.2,1.2-0.6,1.6c-0.4,0.4-0.9,0.6-1.5,0.6c-0.6,0-1.1-0.2-1.5-0.6c-0.4-0.4-0.6-0.9-0.6-1.6
		c0-0.7,0.2-1.2,0.6-1.6c0.4-0.4,0.9-0.6,1.5-0.6c0.6,0,1.1,0.2,1.5,0.6C191.1,23.6,191.3,24.2,191.3,24.8z M190.6,53.9h-2.8V31.6
		h2.8V53.9z"/>
	<path class="st0" d="M212.7,51.3c-0.2,0.1-0.4,0.3-0.8,0.5s-0.8,0.4-1.3,0.6s-1.1,0.4-1.7,0.5c-0.6,0.1-1.4,0.2-2.2,0.2
		c-1.3,0-2.6-0.2-3.8-0.6c-1.2-0.4-2.3-1-3.2-1.9c-0.9-0.9-1.6-2-2.2-3.4c-0.5-1.4-0.8-3-0.8-5c0-1.6,0.2-3.1,0.7-4.4
		c0.5-1.4,1.2-2.5,2.1-3.5s2-1.8,3.3-2.3s2.8-0.8,4.4-0.8c2.1,0,3.7,0.1,5,0.4c1.3,0.3,2.3,0.5,3.1,0.8v20.4c0,3.3-0.9,5.7-2.6,7.2
		s-4.3,2.1-7.8,2.1c-1.4,0-2.7-0.1-3.9-0.3c-1.2-0.2-2.2-0.5-3-0.8l0.6-2.6c0.7,0.3,1.6,0.6,2.8,0.8c1.2,0.2,2.4,0.3,3.6,0.3
		c2.7,0,4.6-0.5,5.8-1.5c1.2-1,1.8-2.8,1.8-5.3V51.3z M212.6,34.3c-0.5-0.1-1.1-0.3-1.9-0.4s-1.9-0.2-3.3-0.2
		c-1.2,0-2.3,0.2-3.2,0.6c-0.9,0.4-1.7,1-2.4,1.8c-0.7,0.8-1.2,1.7-1.5,2.7c-0.3,1.1-0.5,2.2-0.5,3.5c0,1.5,0.2,2.7,0.6,3.8
		s0.9,1.9,1.6,2.6c0.6,0.7,1.4,1.1,2.2,1.4c0.8,0.3,1.7,0.5,2.6,0.5c1.3,0,2.4-0.2,3.5-0.6s1.9-0.8,2.4-1.3V34.3z"/>
	<path class="st0" d="M226.3,24.8c0,0.7-0.2,1.2-0.6,1.6c-0.4,0.4-0.9,0.6-1.5,0.6s-1.1-0.2-1.5-0.6s-0.6-0.9-0.6-1.6
		c0-0.7,0.2-1.2,0.6-1.6c0.4-0.4,0.9-0.6,1.5-0.6s1.1,0.2,1.5,0.6C226.1,23.6,226.3,24.2,226.3,24.8z M225.7,53.9h-2.8V31.6h2.8
		V53.9z"/>
	<path class="st0" d="M235.8,31.6h8.9V34h-8.9v11.9c0,1.3,0.1,2.3,0.3,3.1c0.2,0.8,0.5,1.4,0.9,1.8c0.4,0.4,0.9,0.7,1.5,0.9
		c0.6,0.1,1.2,0.2,1.9,0.2c1.2,0,2.1-0.1,2.9-0.4c0.7-0.3,1.3-0.5,1.7-0.8l0.7,2.3c-0.4,0.3-1.1,0.6-2.1,0.9s-2.1,0.5-3.3,0.5
		c-1.4,0-2.5-0.2-3.5-0.5c-0.9-0.4-1.7-0.9-2.2-1.6s-1-1.7-1.2-2.7c-0.2-1.1-0.3-2.4-0.3-3.9V25l2.8-0.5V31.6z"/>
	<path class="st0" d="M256.6,31.1c1.5,0,2.7,0.2,3.7,0.6s1.9,1,2.5,1.7c0.6,0.7,1.1,1.6,1.4,2.6c0.3,1,0.4,2.1,0.4,3.3v14.1
		c-0.3,0.1-0.7,0.2-1.3,0.3c-0.5,0.1-1.2,0.2-1.9,0.3c-0.7,0.1-1.5,0.2-2.4,0.3c-0.9,0.1-1.8,0.1-2.7,0.1c-1.2,0-2.3-0.1-3.3-0.4
		c-1-0.3-1.9-0.7-2.6-1.2c-0.7-0.6-1.3-1.3-1.7-2.2c-0.4-0.9-0.6-2-0.6-3.2c0-1.2,0.2-2.2,0.7-3.1c0.5-0.9,1.1-1.6,1.9-2.1
		c0.8-0.6,1.8-1,3-1.2s2.4-0.4,3.8-0.4c0.4,0,0.8,0,1.3,0.1c0.4,0,0.9,0.1,1.3,0.2c0.4,0.1,0.8,0.1,1.1,0.2s0.5,0.1,0.6,0.2v-1.4
		c0-0.8-0.1-1.5-0.2-2.3s-0.4-1.4-0.8-2c-0.4-0.6-0.9-1.1-1.6-1.4c-0.7-0.4-1.6-0.5-2.8-0.5c-1.6,0-2.9,0.1-3.7,0.3
		c-0.8,0.2-1.4,0.4-1.8,0.6l-0.4-2.5c0.5-0.2,1.2-0.4,2.3-0.6C254,31.2,255.2,31.1,256.6,31.1z M256.9,51.9c1.1,0,2.1,0,2.9-0.1
		c0.8-0.1,1.5-0.2,2.1-0.3v-7.9c-0.3-0.1-0.8-0.3-1.5-0.5c-0.7-0.2-1.6-0.2-2.9-0.2c-0.7,0-1.4,0.1-2.2,0.2
		c-0.8,0.1-1.4,0.3-2.1,0.6c-0.6,0.3-1.2,0.8-1.6,1.4c-0.4,0.6-0.6,1.3-0.6,2.3c0,0.8,0.1,1.5,0.4,2.1c0.3,0.6,0.7,1,1.2,1.4
		c0.5,0.3,1.1,0.6,1.8,0.8C255.2,51.8,256,51.9,256.9,51.9z"/>
	<path class="st0" d="M277.5,54.3c-1,0-1.8-0.2-2.5-0.4c-0.7-0.2-1.3-0.5-1.8-1c-0.5-0.4-0.8-1-1.1-1.7c-0.2-0.7-0.4-1.6-0.4-2.7
		V20.9l2.8-0.5v28.1c0,0.7,0.1,1.2,0.2,1.7s0.3,0.8,0.6,1s0.6,0.4,1,0.5c0.4,0.1,0.9,0.2,1.5,0.3L277.5,54.3z"/>
</g>
</svg>
