<svg id="Layer_1" data-name="Layer 1" xmlns="http://www.w3.org/2000/svg" viewBox="0 0 349.17 72.39"><defs><style>.cls-1{fill:#1aa3dd;}.cls-2{fill:#006a97;}.cls-3{font-size:43.26px;fill:#0c6e99;font-family:Ubuntu-Medium, Ubuntu;}.cls-4{letter-spacing:0.1em;}.cls-5{fill:#10a5de;font-family:Ubuntu-Light, Ubuntu;}</style></defs><title>Artboard 1</title><polygon class="cls-1" points="13.93 48.26 13.93 48.26 13.93 48.26 0 40.22 0 56.3 13.93 64.34 13.93 64.34 27.86 72.39 27.86 56.3 13.93 48.26"/><polygon class="cls-2" points="13.93 16.09 0 24.13 0 40.21 0 40.22 13.93 48.26 13.93 32.17 27.86 24.13 27.86 8.04 13.93 16.09"/><polygon class="cls-2" points="41.79 48.26 27.86 56.3 27.86 72.39 41.79 64.34 41.79 64.34 55.72 56.3 55.73 56.3 55.73 40.22 41.79 48.26"/><polygon class="cls-1" points="41.79 0 41.79 16.09 41.79 32.17 41.79 48.26 55.73 40.22 55.73 24.13 55.73 24.13 55.73 8.04 55.73 8.04 41.79 0"/><text class="cls-3" transform="translate(72.7 54.9)">dx<tspan class="cls-4" x="48.67" y="0">w</tspan><tspan class="cls-5" x="86.74" y="0">advisories</tspan></text></svg>