<svg id="Layer_1" xmlns="http://www.w3.org/2000/svg" viewBox="0 0 352 209"><style>.st0{fill:#1aa3dd}.st1{fill:#006a97}.st2{fill:#006998}</style><path class="st0" d="M40.2 139.3L-.1 116.1v46.5l40.3 23.2L80.4 209v-46.4z"/><path class="st1" d="M40.2 46.4L-.1 69.7v46.4l40.3 23.2V92.9l40.2-23.2V23.2zM120.6 139.3l-40.2 23.3V209l40.2-23.2 40.2-23.2v-46.5z"/><path class="st0" d="M120.6 0v139.3l40.2-23.2V23.2zM219.2 56.1v20.2c-1.3-.7-2.8-1.3-4.6-1.8-1.8-.5-3.8-.8-6.1-.8-3.4 0-6.4.6-9.1 1.8-2.6 1.2-4.8 2.9-6.7 5.1-1.8 2.2-3.2 4.8-4.2 7.9-.9 3.1-1.4 6.5-1.4 10.3 0 3.8.6 7.3 1.7 10.4 1.1 3.1 2.7 5.7 4.8 7.9 2.1 2.2 4.7 3.8 7.6 5 3 1.2 6.4 1.7 10.1 1.7 3.7 0 16.6-.5 18.7-.9v-73l-10.8 6.2zm0 57.2c-.8.2-5.6.5-7.7.4-2.7-.1-7.2-1.1-9.5-3.9s-3.5-6.6-3.5-11.5c0-4.7.9-8.4 2.8-11.2 1.9-2.7 4.8-4.1 8.8-4.1 1.8 0 3.6.3 5.2.9 1.6.6 2.9 1.2 3.9 1.9v27.5zM263.4 97.8l16.1-22.9h-11.6l-10.2 14.6-10.1-14.6h-12.2l16.2 23.4c-1.6 1.9-3.1 3.9-4.7 6s-3.2 4.2-4.7 6.4c-1.5 2.1-2.9 4.2-4.2 6.2-1.3 2-2.4 4-3.3 5.8H246c1.3-2.3 3-5 5.1-8 2-3 4.1-5.8 6.3-8.2 1 1.3 2.1 2.6 3.2 4s2.1 2.9 3.1 4.3c1 1.5 1.9 2.9 2.8 4.2.9 1.3 1.6 2.6 2.1 3.7h12c-2-3.8-4.5-7.8-7.6-12.1-3-4.3-6.2-8.6-9.6-12.8zM340.8 74.9c-.6 2.6-1.2 5.3-1.9 8.3-.7 3-1.5 6-2.3 9-.8 3.1-1.7 6.1-2.5 9-.9 2.9-1.7 5.6-2.5 8-.9-2.8-1.8-5.7-2.7-8.7-.9-3-1.7-6-2.5-9s-1.5-5.9-2.1-8.7c-.7-2.8-1.3-5.5-1.8-8H314c-.5 2.5-1.2 5.2-1.9 8s-1.4 5.7-2.2 8.7c-.8 3-1.6 6-2.5 9-.9 3-1.8 5.9-2.7 8.7-.9-2.4-1.7-5.1-2.6-8-.9-2.9-1.7-5.9-2.5-9-.8-3.1-1.6-6.1-2.3-9-.7-3-1.4-5.7-1.9-8.3h-11.7c1.3 4.7 2.6 9.3 3.9 13.8 1.3 4.5 2.7 8.8 4 12.9 1.3 4.1 2.7 7.9 4 11.5 1.3 3.6 2.6 6.8 3.8 9.6h9.1c1.6-4.5 3.2-9.3 4.8-14.4 1.6-5.1 3.1-10.3 4.5-15.7 1.4 5.4 2.9 10.6 4.6 15.7 1.7 5.1 3.3 9.9 4.9 14.4h9c1.3-2.8 2.6-6 3.9-9.6 1.3-3.6 2.7-7.4 4-11.5 1.3-4.1 2.7-8.4 4-12.9 1.3-4.5 2.7-9.1 3.9-13.8h-11.3z"/><path class="st2" d="M195.3 163.2c-1.4 0-2.8-.2-4.1-.7-1.3-.5-2.5-1.1-3.5-2l1.1-1.6c1 .8 2.1 1.5 3.1 1.9 1.1.4 2.2.6 3.4.6 1.5 0 2.6-.3 3.5-.9.9-.6 1.3-1.4 1.3-2.5 0-.5-.1-.9-.3-1.3-.2-.3-.6-.6-1-.9-.5-.3-1-.5-1.7-.7-.7-.2-1.5-.4-2.4-.6-1-.3-1.9-.5-2.7-.8-.8-.3-1.4-.5-1.9-.9-.5-.3-.9-.7-1.1-1.2-.2-.5-.4-1.1-.4-1.8 0-.9.2-1.7.5-2.4.4-.7.8-1.3 1.5-1.7.6-.5 1.3-.8 2.2-1 .8-.2 1.7-.3 2.6-.3 1.4 0 2.6.2 3.8.7 1.1.5 2 1 2.7 1.8l-1.1 1.4c-.7-.7-1.5-1.2-2.4-1.6-1-.3-2-.5-3-.5-.6 0-1.2.1-1.7.2s-1 .3-1.4.6c-.4.3-.7.6-1 1.1-.2.4-.3.9-.3 1.5 0 .5.1.9.2 1.2.2.3.4.6.8.8.4.2.8.4 1.4.6.6.2 1.3.4 2.1.5 1.2.3 2.2.6 3.1.8.9.3 1.6.6 2.2 1 .6.4 1 .8 1.3 1.4.3.5.5 1.2.5 1.9 0 1.7-.6 3-1.9 4-1.6.9-3.3 1.4-5.4 1.4zM214 163.2c-1.3 0-2.5-.2-3.6-.7-1.1-.5-2.1-1.2-2.9-2-.8-.9-1.4-1.9-1.9-3s-.7-2.3-.7-3.6c0-1.3.2-2.5.7-3.6.5-1.1 1.1-2.1 1.9-2.9.8-.8 1.8-1.5 2.9-2 1.1-.5 2.3-.7 3.6-.7 1.3 0 2.5.2 3.6.7 1.1.5 2 1.2 2.8 2 .8.9 1.4 1.8 1.8 2.9.4 1.1.7 2.3.7 3.5v.6c0 .2 0 .3-.1.4h-15.4c.1 1 .3 1.9.7 2.7.4.8.9 1.5 1.5 2.1.6.6 1.3 1.1 2 1.4.8.3 1.6.5 2.5.5.6 0 1.2-.1 1.8-.2.6-.2 1.1-.4 1.6-.7.5-.3.9-.6 1.3-1s.7-.9.9-1.3l2 .6c-.3.7-.7 1.3-1.2 1.8s-1.1 1-1.8 1.4c-.7.4-1.4.7-2.2.9-.8.1-1.7.2-2.5.2zm6.7-10.4c-.1-1-.3-1.9-.7-2.7-.4-.8-.9-1.5-1.5-2.1-.6-.6-1.3-1-2.1-1.4-.8-.3-1.6-.5-2.5-.5-.9 0-1.7.2-2.5.5s-1.5.8-2.1 1.4c-.6.6-1.1 1.3-1.4 2.1-.4.8-.6 1.7-.6 2.6h13.4zM225.3 153.7c0-1.3.2-2.5.7-3.6.4-1.1 1.1-2.1 1.9-3 .8-.8 1.8-1.5 2.9-2 1.1-.5 2.3-.7 3.7-.7 1.7 0 3.2.4 4.5 1.2 1.3.8 2.2 1.8 2.9 3.1l-2.3.7c-.5-.9-1.2-1.6-2.1-2.2s-1.9-.8-3-.8c-.9 0-1.8.2-2.6.6-.8.4-1.5.9-2.1 1.5-.6.6-1.1 1.4-1.4 2.3-.3.9-.5 1.8-.5 2.9 0 1 .2 2 .5 2.9.3.9.8 1.7 1.4 2.3.6.7 1.3 1.2 2.1 1.6.8.4 1.6.6 2.5.6.6 0 1.2-.1 1.7-.2.6-.2 1.1-.4 1.6-.7.5-.3.9-.6 1.2-1 .3-.4.6-.8.7-1.2l2.3.7c-.3.6-.6 1.2-1.1 1.8-.5.5-1.1 1-1.7 1.4-.7.4-1.4.7-2.2.9-.8.2-1.6.3-2.5.3-1.3 0-2.5-.2-3.6-.7-1.1-.5-2.1-1.2-2.9-2-.8-.9-1.4-1.9-1.9-3-.5-1.2-.7-2.4-.7-3.7zM251.1 163.2c-1.9 0-3.3-.7-4.3-2s-1.5-3.3-1.5-5.8v-10.6h2.4V155c0 4.1 1.4 6.1 4.2 6.1.7 0 1.4-.1 2-.3.7-.2 1.3-.6 1.9-1 .6-.4 1.1-1 1.5-1.6.5-.6.8-1.3 1.1-2v-11.4h2.4v15c0 .6.3 1 .9 1v2.1c-.5.1-.8.1-1 .1-.5 0-1-.2-1.4-.5-.4-.3-.6-.7-.6-1.2v-2.5c-.8 1.4-1.9 2.5-3.2 3.3-1.3.7-2.8 1.1-4.4 1.1zM275.2 146.8c-1.6 0-3 .5-4.2 1.3-1.2.8-2 2-2.5 3.4v11.2h-2.4v-18.1h2.2v4.3c.6-1.3 1.4-2.3 2.5-3.2 1-.8 2.1-1.3 3.3-1.3h1.1v2.4zM278.3 141v-3.5h2.4v3.5h-2.4zm0 21.8v-18.1h2.4v18.1h-2.4zM294.5 162c-.1.1-.3.2-.6.3l-.9.3c-.3.1-.7.2-1.2.3-.4.1-.9.1-1.4.1-.5 0-1-.1-1.5-.2s-.9-.4-1.2-.6c-.3-.3-.6-.7-.8-1.1-.2-.4-.3-.9-.3-1.5v-12.9h-2.5v-1.9h2.5v-6.1h2.4v6.1h4.2v1.9H289V159c0 .7.3 1.2.7 1.5.4.3.9.5 1.5.5.7 0 1.3-.1 1.8-.3.5-.2.8-.4 1-.5l.5 1.8zM298.3 168.4c.1 0 .2 0 .3.1h.3c.2 0 .5 0 .7-.1.3 0 .5-.1.6-.1.1 0 .2-.1.4-.3.1-.2.3-.4.5-.8s.4-.9.7-1.6c.3-.7.7-1.6 1.1-2.8l-7.9-18.1h2.5l6.7 15.9 6.2-15.9h2.3l-9.4 23.3c-.3.9-.8 1.5-1.4 1.9-.6.4-1.4.6-2.5.6-.4 0-.8 0-1.2-.1v-2z"/></svg>