<svg id="Layer_1" data-name="Layer 1" xmlns="http://www.w3.org/2000/svg" viewBox="0 0 349.01 70.78"><defs><style>.cls-1,.cls-2{fill:#fff;}.cls-2{font-size:43.26px;font-family:Ubuntu-Medium, Ubuntu;}.cls-3{letter-spacing:0.1em;}.cls-4{font-family:Ubuntu-Light, Ubuntu;}</style></defs><title>Artboard 1</title><polygon class="cls-1" points="13.37 47.62 13.37 47.62 13.37 47.61 0 39.89 0 55.34 13.37 63.06 13.37 63.06 26.75 70.78 26.75 55.34 13.37 47.62"/><polygon class="cls-1" points="13.37 15.6 0 23.32 0 38.77 0 38.77 13.37 46.49 13.37 31.05 26.75 23.32 26.75 7.88 13.37 15.6"/><polygon class="cls-1" points="41.23 47.62 27.86 55.34 27.86 70.78 41.23 63.06 41.24 63.06 54.61 55.34 54.61 55.34 54.61 39.89 41.23 47.62"/><polygon class="cls-1" points="41.51 0 41.51 15.44 41.51 30.89 41.51 46.33 54.89 38.61 54.89 23.16 54.89 23.16 54.89 7.72 54.89 7.72 41.51 0"/><text class="cls-2" transform="translate(72.14 53.94)">dx<tspan class="cls-3" x="48.67" y="0">w</tspan><tspan class="cls-4" x="86.74" y="0">advisories</tspan></text></svg>