<svg id="Layer_1" xmlns="http://www.w3.org/2000/svg" viewBox="0 0 499 240.9"><style>.st0{fill:#fff}</style><path class="st0" d="M45.5 162.1L-.1 135.9v52.5l45.6 26.3L91 241v-52.6zM45.5 53.5L-.1 79.7v52.6l45.6 26.3V106L91 79.7V27.2zM140.1 162.1l-45.6 26.3V241l45.6-26.3 45.5-26.3v-52.5zM140.1 0v157.7l45.5-26.3V26.3zM221.7 179.1c0-5.7 3.9-10.5 9.3-10.5 3.5 0 6.4 2.2 7.9 4.8v-12.6h2v25.7c0 .6.3 1 .8 1v1.8h-.7c-1.1 0-1.9-.9-1.9-1.8v-2.3c-1.6 2.7-4.7 4.4-7.7 4.4-5.7 0-9.7-5.1-9.7-10.5zm17.2 3.3v-6.7c-1.1-3-4.5-5.4-7.5-5.4-4.7 0-7.8 4.4-7.8 8.8 0 4.6 3.6 8.7 8.1 8.7 2.9 0 6.9-2.5 7.2-5.4zM244.7 179c0-5.7 4.3-10.4 9.9-10.4 5.7 0 9.9 4.8 9.9 10.4v.9h-17.8c.3 4.7 3.9 8.2 8.1 8.2 2.8 0 5.6-1.6 6.6-3.9l1.7.5c-1.2 2.9-4.6 5-8.4 5-5.7-.1-10-5-10-10.7zm18-.7c-.3-4.8-3.7-8.1-8-8.1s-7.7 3.4-8 8.1h16zM266.8 168.9l6.5 8.4.3.5.4-.5 6.5-8.4h2.1l-7.9 10.2 7.9 10.1h-2.2l-6.5-8.3-.4-.5-.3.5-6.5 8.3h-2.2l7.9-10.1-7.9-10.2h2.3zM294.4 188.2c-.4.2-2.1 1.2-4.2 1.2s-4-1.3-4-3.6v-15.3h-2.8v-1.6h2.8V162h2v6.9h4.8v1.6h-4.8v14.8c0 1.5 1.2 2.3 2.6 2.3 1.6 0 2.9-.8 3.2-.9l.4 1.5zM295.4 179c0-5.7 4.3-10.4 9.9-10.4 5.7 0 9.9 4.8 9.9 10.4v.9h-17.8c.3 4.7 3.9 8.2 8.1 8.2 2.8 0 5.6-1.6 6.6-3.9l1.7.5c-1.2 2.9-4.6 5-8.4 5-5.7-.1-10-5-10-10.7zm17.9-.7c-.3-4.8-3.7-8.1-8-8.1s-7.7 3.4-8 8.1h16zM328.1 170.7c-3.7.1-6.6 2.3-7.6 5.8v12.7h-2v-20.3h1.8v5c1.4-2.8 3.9-4.8 6.5-5h1.2v1.8zM328.4 179.1c0-5.7 4.3-10.5 9.9-10.5 5.6 0 9.9 4.8 9.9 10.5s-4.3 10.5-9.9 10.5c-5.7 0-9.9-4.9-9.9-10.5zm9.9 8.7c4.3 0 8-3.9 8-8.8 0-4.8-3.6-8.7-8-8.7-4.3 0-7.9 4-7.9 8.9 0 4.8 3.6 8.6 7.9 8.6zM351.6 180.6v-11.7h1.9v11.4c0 5 1.7 7.5 5.1 7.5 3.4 0 6.7-2.5 7.9-6.1v-12.8h1.9v17.6c0 .6.2 1 .8 1v1.8h-.7c-1.1 0-1.9-.7-1.9-1.8v-3.1c-1.8 3.2-5.1 5.2-8.7 5.2-4 0-6.3-3.1-6.3-9zM372 186.5l1-1.3c2.2 1.9 4.5 2.9 7.3 2.9 3.5 0 5.9-1.6 5.9-4.2 0-2.5-2.2-3.2-6.5-4.2-4.6-1.1-6.7-1.8-6.7-5 0-4.1 3.4-6 7.4-6 3.2 0 5.7 1.2 7.1 2.8l-1.1 1.1c-1.3-1.6-3.7-2.3-6.1-2.3-3 0-5.5 1.2-5.5 4.2 0 2.3 1.6 2.8 5.3 3.7 5.1 1.2 7.9 2.1 7.9 5.6 0 3.6-3.1 6-7.8 6-3.1-.2-6.1-1.3-8.2-3.3zM399.4 179.1c0-5.7 3.9-10.5 9.3-10.5 3.5 0 6.4 2.2 7.9 4.8v-12.6h2v25.7c0 .6.3 1 .8 1v1.8h-.7c-1.1 0-1.9-.9-1.9-1.8v-2.3c-1.6 2.7-4.7 4.4-7.7 4.4-5.6 0-9.7-5.1-9.7-10.5zm17.2 3.3v-6.7c-1.1-3-4.5-5.4-7.5-5.4-4.7 0-7.8 4.4-7.8 8.8 0 4.6 3.6 8.7 8.1 8.7 2.9 0 6.9-2.5 7.2-5.4zM423.8 164.3v-3.6h1.9v3.6h-1.9zm0 24.9v-20.3h1.9v20.3h-1.9zM429.4 179.1c0-5.5 3.9-10.5 9.4-10.5 3.5 0 6.1 2.1 8 4.8V169h1.8v20.7c0 5.5-4.4 8.3-9.6 8.3-4.7 0-7.3-1.8-9-4.7l1.3-.9c1.6 2.7 4.6 4 7.7 4 4.1 0 7.6-2.3 7.6-6.7v-4.4c-1.6 2.6-4.6 4.4-7.6 4.4-5.6-.2-9.6-5.3-9.6-10.6zm17.2 3.3v-6.7c-1.2-3.1-4.4-5.4-7.5-5.4-4.9 0-7.8 4.6-7.8 8.8 0 4.6 3.6 8.7 8.1 8.7 3.5 0 6.9-2.8 7.2-5.4zM453.6 164.3v-3.6h1.9v3.6h-1.9zm0 24.9v-20.3h1.9v20.3h-1.9zM469.7 188.2c-.4.2-2.1 1.2-4.2 1.2s-4-1.3-4-3.6v-15.3h-2.8v-1.6h2.8V162h1.9v6.9h4.8v1.6h-4.8v14.8c0 1.5 1.3 2.3 2.6 2.3 1.6 0 2.9-.8 3.2-.9l.5 1.5zM470.3 183.3c0-3.5 3.5-6 8.5-6 2.2 0 4.6.4 6.3 1.1v-2c0-3.8-2.4-6.3-6.1-6.3-2 0-4.3.9-6.5 2.4l-.8-1.3c2.6-1.8 5.1-2.7 7.4-2.7 4.9 0 7.9 3 7.9 8v9.9c0 .7.3 1 .8 1v1.8h-.7c-.9 0-1.9-.7-1.9-1.8v-1.7c-1.9 2.4-4.9 3.8-8.3 3.8-3.6.1-6.6-2.7-6.6-6.2zm14.2 1.6c.4-.5.7-1.1.7-1.6v-3.6c-1.9-.7-4-1.1-6.1-1.1-4.1 0-6.8 1.8-6.8 4.5s2.3 4.8 5.2 4.8c2.9.1 5.7-1.1 7-3zM492.2 160.7h2v24.5c0 1.5.9 2.5 2.4 2.5.6 0 1.5-.2 2.1-.4l.4 1.6c-.9.4-2.4.6-3.3.6-2.2 0-3.6-1.4-3.6-3.7v-25.1z"/><g><path class="st0" d="M257 68.3v22.8c-1.4-.8-3.2-1.5-5.2-2.1-2-.6-4.3-.9-6.9-.9-3.9 0-7.3.7-10.2 2-3 1.3-5.5 3.3-7.6 5.7-2.1 2.5-3.6 5.5-4.7 9s-1.6 7.4-1.6 11.6c0 4.3.6 8.3 1.9 11.7 1.3 3.5 3.1 6.5 5.5 8.9 2.4 2.5 5.3 4.3 8.6 5.6 3.4 1.3 7.2 2 11.5 2 4.1 0 18.8-.6 21.2-1V61L257 68.3zm0 64.7c-.9.2-6.4.6-8.7.5-3.1-.1-8.1-1.2-10.7-4.4-2.6-3.1-3.9-7.5-3.9-13 0-5.3 1-9.5 3.2-12.6 2.1-3.1 5.4-4.7 10-4.7 2.1 0 4 .3 5.8 1 1.8.7 3.3 1.4 4.4 2.1V133z"/></g><path class="st0" d="M307 115.5l18.2-25.9h-13.1l-11.5 16.6-11.5-16.6h-13.8l18.4 26.5c-1.8 2.2-3.6 4.4-5.4 6.8-1.8 2.4-3.6 4.8-5.3 7.2-1.7 2.4-3.3 4.7-4.8 7s-2.7 4.5-3.8 6.6h12.8c1.5-2.6 3.4-5.6 5.8-9 2.3-3.4 4.7-6.5 7.1-9.3 1.2 1.4 2.4 2.9 3.6 4.6 1.2 1.6 2.4 3.2 3.5 4.9 1.1 1.6 2.2 3.2 3.2 4.7s1.8 2.9 2.4 4.2h13.6c-2.3-4.3-5.1-8.9-8.6-13.7-3.3-5-7-9.8-10.8-14.6zM394.6 89.6c-.6 2.9-1.4 6-2.2 9.4-.8 3.3-1.7 6.8-2.7 10.2-.9 3.5-1.9 6.9-2.9 10.2-1 3.3-1.9 6.4-2.8 9.1-1-3.2-2-6.5-3-9.8-1-3.4-1.9-6.8-2.8-10.1-.9-3.4-1.7-6.7-2.4-9.9-.8-3.2-1.4-6.2-2.1-9.1h-9.6c-.6 2.8-1.3 5.8-2.1 9.1-.8 3.2-1.6 6.5-2.5 9.9-.9 3.4-1.8 6.8-2.9 10.1-1 3.4-2 6.7-3.1 9.8-1-2.8-1.9-5.8-2.9-9.1s-1.9-6.7-2.8-10.2c-.9-3.5-1.8-6.9-2.6-10.2-.8-3.3-1.6-6.5-2.2-9.4h-13.3c1.5 5.3 2.9 10.5 4.5 15.6 1.5 5.1 3 10 4.6 14.6 1.5 4.6 3 9 4.6 13 1.5 4.1 3 7.7 4.4 10.9H358c1.8-5.1 3.6-10.5 5.4-16.3 1.8-5.8 3.5-11.7 5.1-17.7 1.6 6.1 3.3 12 5.2 17.7 1.9 5.8 3.7 11.2 5.5 16.3h10.2c1.5-3.2 2.9-6.8 4.5-10.9 1.5-4.1 3-8.4 4.6-13 1.5-4.6 3-9.5 4.6-14.6 1.5-5.1 3-10.3 4.5-15.6h-13z"/></svg>