<svg xmlns="http://www.w3.org/2000/svg" viewBox="0 0 50.35 50.33"><defs><style>.cls-1{fill:#d30000}</style></defs><title>bad</title><g id="Layer_2" data-name="Layer 2"><path class="cls-1" d="M49 36.31a4.5 4.5 0 0 1 0 6.36L42.67 49a4.56 4.56 0 0 1-6.36 0L25.16 37.89 14.05 49a4.56 4.56 0 0 1-6.36 0l-6.36-6.33a4.5 4.5 0 0 1 0-6.36l11.11-11.15L1.29 14a4.56 4.56 0 0 1 0-6.36l6.4-6.36a4.56 4.56 0 0 1 6.36 0l11.11 11.16L36.31 1.29a4.56 4.56 0 0 1 6.36 0L49 7.66A4.5 4.5 0 0 1 49 14L37.89 25.16z" id="Layer_1-2" data-name="Layer 1"/></g></svg>