<svg xmlns="http://www.w3.org/2000/svg" viewBox="0 0 144 144"><path d="M72 0a72 72 0 1 0 72 72A72 72 0 0 0 72 0zm35 53.8v2.36c0 23.85-18.13 51.35-51.3 51.35-10.18 0-19.77-2.23-27.71-7.35a28.5 28.5 0 0 0 4.3.3c8.42 0 16.29-3.65 22.39-8.55a18 18 0 0 1-16.8-12.55 17.74 17.74 0 0 0 3.35.34 18.05 18.05 0 0 0 4.77-.63 18 18 0 0 1-14.48-17.7v-.21a18.1 18.1 0 0 0 8.16 2.23 18 18 0 0 1-8.08-15 17.2 17.2 0 0 1 2.45-8.77 51.31 51.31 0 0 0 37.22 18.56 18.81 18.81 0 0 1-.39-4.18 18 18 0 0 1 18-18 18.68 18.68 0 0 1 13.28 5.67 36.24 36.24 0 0 0 11.39-4.38 17.9 17.9 0 0 1-7.95 10 35.21 35.21 0 0 0 10.4-2.86 36.57 36.57 0 0 1-9 9.37z"/></svg>
