<svg xmlns="http://www.w3.org/2000/svg" viewBox="0 0 144 144"><path d="M88.5 68.91c-5.5 0-5.5.9-16.5.9s-11-.9-16.5-.9-15.9 2.75-15.9 15.6c0 11 8.55 18.3 32.4 18.3s32.4-7.3 32.4-18.3c0-12.85-10.4-15.6-15.9-15.6zM58.25 93.66c-2.54 0-4.6-1.85-4.6-8.25s2.06-8.25 4.6-8.25 4.6 1.85 4.6 8.25-2.06 8.25-4.6 8.25zm27.5 0c-2.54 0-4.6-1.85-4.6-8.25s2.06-8.25 4.6-8.25 4.6 1.85 4.6 8.25-2.06 8.25-4.6 8.25z"/><path d="M72 0a72 72 0 1 0 72 72A72 72 0 0 0 72 0zm0 108.32c-27.5 0-44-9.15-44-34.8a28.91 28.91 0 0 1 6.4-18.43c-.9-4.9-1.8-13.36.95-20.07a36 36 0 0 1 19.12 7.73A68.19 68.19 0 0 1 72 40.51a66.44 66.44 0 0 1 17.4 2.23A37 37 0 0 1 108.65 35c2.75 6.62 1.85 15.17.95 19.94a29.17 29.17 0 0 1 6.4 18.44c0 25.78-16.5 34.94-44 34.94z"/></svg>
